<svg xmlns="http://www.w3.org/2000/svg" xmlns:xlink="http://www.w3.org/1999/xlink" viewBox="0 0 344.35 106.65"><defs><style>.cls-1{isolation:isolate;}.cls-2{fill:#d2edeb;}.cls-3{fill:#20abcb;}.cls-4{fill:url(#_134);}.cls-5{fill:url(#_2);}.cls-10,.cls-11,.cls-12,.cls-6,.cls-7,.cls-8,.cls-9{opacity:0.5;mix-blend-mode:multiply;}.cls-6{fill:url(#_12);}.cls-7{fill:url(#_12-2);}.cls-8{fill:url(#_12-3);}.cls-9{fill:url(#_12-4);}.cls-10{fill:url(#_12-5);}.cls-11{fill:url(#_12-6);}.cls-12{fill:url(#_12-7);}</style><linearGradient id="_134" x1="230.47" y1="35.8" x2="344.35" y2="35.8" gradientUnits="userSpaceOnUse"><stop offset="0" stop-color="#461766"/><stop offset="1" stop-color="#491773"/></linearGradient><linearGradient id="_2" x1="186.82" y1="149.66" x2="272.18" y2="115.77" gradientUnits="userSpaceOnUse"><stop offset="0" stop-color="#5a2080"/><stop offset="1" stop-color="#a42e93"/></linearGradient><linearGradient id="_12" x1="239.18" y1="38.06" x2="344.35" y2="38.06" gradientUnits="userSpaceOnUse"><stop offset="0" stop-color="#a578b8"/><stop offset="1" stop-color="#4c1c89"/></linearGradient><linearGradient id="_12-2" x1="254.8" y1="66.36" x2="254.8" y2="44.7" xlink:href="#_12"/><linearGradient id="_12-3" x1="276.41" y1="64.23" x2="276.41" y2="37.17" xlink:href="#_12"/><linearGradient id="_12-4" x1="303.37" y1="35.46" x2="318.94" y2="35.46" xlink:href="#_12"/><linearGradient id="_12-5" x1="239.18" y1="44.8" x2="289.32" y2="44.8" xlink:href="#_12"/><linearGradient id="_12-6" x1="184.71" y1="151.85" x2="249.05" y2="151.85" xlink:href="#_12"/><linearGradient id="_12-7" x1="323.86" y1="58.1" x2="323.86" y2="16.92" xlink:href="#_12"/></defs><title>Untitled-1</title><g class="cls-1"><g id="Layer_1" data-name="Layer 1"><path class="cls-2" d="M139.58,181.2l-.2,0a2.82,2.82,0,1,0-.87,5.57l.15,0a3.57,3.57,0,0,0,.46,0,2.82,2.82,0,0,0,.46-5.6Z" transform="translate(45.76 -117.48)"/><path class="cls-2" d="M230.51,168.56a2.83,2.83,0,0,0-3.93.72l-.09.14a2.82,2.82,0,0,0,4.63,3.21l.11-.15A2.82,2.82,0,0,0,230.51,168.56Z" transform="translate(45.76 -117.48)"/><path class="cls-2" d="M244.21,149.33l-.14.12a2.82,2.82,0,1,0,3.55,4.38l.13-.11a2.82,2.82,0,0,0-3.54-4.39Z" transform="translate(45.76 -117.48)"/><path class="cls-2" d="M238.61,158.46a2.82,2.82,0,0,0-4,.3l-.12.14a2.81,2.81,0,0,0,.32,4,2.77,2.77,0,0,0,1.83.68,2.83,2.83,0,0,0,2.14-1l.11-.13A2.82,2.82,0,0,0,238.61,158.46Z" transform="translate(45.76 -117.48)"/><path class="cls-2" d="M254.24,146" transform="translate(45.76 -117.48)"/><path class="cls-2" d="M190.08,218.48H190a2.82,2.82,0,0,0,.21,5.63h.21l.22,0a2.82,2.82,0,0,0-.51-5.62Z" transform="translate(45.76 -117.48)"/><path class="cls-2" d="M223.34,179.35a2.83,2.83,0,0,0-3.88.94l-.09.15a2.82,2.82,0,1,0,4.81,2.94l.09-.15A2.83,2.83,0,0,0,223.34,179.35Z" transform="translate(45.76 -117.48)"/><path class="cls-2" d="M202.76,212.32a2.82,2.82,0,0,0-4,.26l-.11.12a2.82,2.82,0,1,0,4.22,3.74l.12-.14A2.83,2.83,0,0,0,202.76,212.32Z" transform="translate(45.76 -117.48)"/><path class="cls-2" d="M210,201.59a2.81,2.81,0,0,0-3.89.85l-.1.15a2.82,2.82,0,0,0,4.76,3l.09-.15A2.81,2.81,0,0,0,210,201.59Z" transform="translate(45.76 -117.48)"/><path class="cls-2" d="M180.4,214.07l-.13-.1a2.82,2.82,0,1,0-3.43,4.47l.14.12a2.82,2.82,0,1,0,3.42-4.49Z" transform="translate(45.76 -117.48)"/><path class="cls-2" d="M216.66,190.46a2.81,2.81,0,0,0-3.86,1l-.1.15a2.82,2.82,0,0,0,1,3.86,2.75,2.75,0,0,0,1.43.39,2.82,2.82,0,0,0,2.43-1.38l.09-.15A2.82,2.82,0,0,0,216.66,190.46Z" transform="translate(45.76 -117.48)"/><path class="cls-2" d="M-11.93,165.9a2.83,2.83,0,0,0-4,.1,2.83,2.83,0,0,0,.1,4l.13.12a2.78,2.78,0,0,0,1.94.77,2.79,2.79,0,0,0,2-.87,2.82,2.82,0,0,0-.1-4Z" transform="translate(45.76 -117.48)"/><path class="cls-2" d="M-21.1,156.81a2.82,2.82,0,0,0-4,.06,2.83,2.83,0,0,0,.07,4l.12.12a2.83,2.83,0,0,0,2,.79,2.8,2.8,0,0,0,2-.85,2.82,2.82,0,0,0-.06-4Z" transform="translate(45.76 -117.48)"/><path class="cls-2" d="M-30.73,148.13l-.14-.11a2.82,2.82,0,0,0-4,.35,2.83,2.83,0,0,0,.36,4l.13.11a2.83,2.83,0,0,0,1.81.66,2.79,2.79,0,0,0,2.16-1A2.81,2.81,0,0,0-30.73,148.13Z" transform="translate(45.76 -117.48)"/><path class="cls-2" d="M7.91,182l-.14-.1a2.82,2.82,0,0,0-3.18,4.66l.14.1A2.82,2.82,0,0,0,7.91,182Z" transform="translate(45.76 -117.48)"/><path class="cls-2" d="M-2.26,174.43l-.13-.11a2.81,2.81,0,0,0-4,.4,2.83,2.83,0,0,0,.4,4l.14.11a2.83,2.83,0,0,0,1.78.63,2.8,2.8,0,0,0,2.19-1A2.81,2.81,0,0,0-2.26,174.43Z" transform="translate(45.76 -117.48)"/><path class="cls-2" d="M18.7,188.67l-.15-.09a2.82,2.82,0,0,0-2.74,4.93l.16.09a2.82,2.82,0,0,0,2.73-4.93Z" transform="translate(45.76 -117.48)"/><path class="cls-2" d="M-41.18,140.11l-.15-.11a2.82,2.82,0,0,0-3.92.7,2.82,2.82,0,0,0,.7,3.93l.14.1a2.82,2.82,0,0,0,1.61.51A2.79,2.79,0,0,0-40.49,144,2.81,2.81,0,0,0-41.18,140.11Z" transform="translate(45.76 -117.48)"/><path class="cls-2" d="M41.92,198.53l-.16-.05a2.82,2.82,0,0,0-1.64,5.4l.18.05a2.82,2.82,0,0,0,1.62-5.4Z" transform="translate(45.76 -117.48)"/><path class="cls-2" d="M125.3,184l-.17.1a2.82,2.82,0,0,0,2.81,4.89l.13-.08A2.82,2.82,0,1,0,125.3,184Z" transform="translate(45.76 -117.48)"/><path class="cls-2" d="M114.64,191.52l-.14.09a2.82,2.82,0,1,0,3,4.78l.16-.09a2.82,2.82,0,1,0-3-4.78Z" transform="translate(45.76 -117.48)"/><path class="cls-2" d="M103.55,197.1l-.15.06a2.82,2.82,0,0,0,1,5.44,2.9,2.9,0,0,0,1-.19l.17-.07a2.82,2.82,0,0,0-2.09-5.24Z" transform="translate(45.76 -117.48)"/><path class="cls-2" d="M152.38,187.19l-.14-.11a2.82,2.82,0,1,0-3.37,4.53l.14.1a2.85,2.85,0,0,0,1.68.56,2.82,2.82,0,0,0,1.69-5.08Z" transform="translate(45.76 -117.48)"/><path class="cls-2" d="M162.17,196.05a2.82,2.82,0,0,0-4,3.94l.12.12a2.82,2.82,0,0,0,4-3.93Z" transform="translate(45.76 -117.48)"/><path class="cls-2" d="M79.23,202.68h-.17a2.82,2.82,0,0,0,.23,5.63h.41a2.82,2.82,0,0,0-.47-5.62Z" transform="translate(45.76 -117.48)"/><path class="cls-2" d="M91.62,200.78l-.17,0a2.82,2.82,0,0,0,.62,5.57,2.62,2.62,0,0,0,.62-.07l.18,0a2.82,2.82,0,0,0-1.25-5.5Z" transform="translate(45.76 -117.48)"/><path class="cls-2" d="M171.09,205.46a2.82,2.82,0,0,0-4.06,3.91l.12.13a2.82,2.82,0,0,0,4.06-3.91Z" transform="translate(45.76 -117.48)"/><path class="cls-2" d="M54.18,201.46l-.17,0A2.82,2.82,0,0,0,53,207l.18,0a2.7,2.7,0,0,0,.49,0,2.82,2.82,0,0,0,.49-5.59Z" transform="translate(45.76 -117.48)"/><path class="cls-2" d="M30.06,194.22l-.16-.07a2.82,2.82,0,1,0-2.22,5.18l.17.08a2.88,2.88,0,0,0,1.1.22,2.82,2.82,0,0,0,1.11-5.41Z" transform="translate(45.76 -117.48)"/><path class="cls-2" d="M63.54,205.54a2.82,2.82,0,0,0,2.67,3h.18l.28-5.64h-.16A2.82,2.82,0,0,0,63.54,205.54Z" transform="translate(45.76 -117.48)"/><path class="cls-3" d="M184.71,125.64l113.88,4.5-8.66-6.23s-17.59-2.57-21.88-2.57-47.18-3.44-52.33-3.86Z" transform="translate(45.76 -117.48)"/><polygon class="cls-4" points="344.35 12.67 335.04 28.31 314.53 40.32 306.39 52.56 280.93 60.27 275.85 60.59 270.43 63.44 239.18 42.47 234.28 25.82 230.47 8.16 344.35 12.67"/><path class="cls-5" d="M184.71,125.64l31-4.3s36.67,0,47.61,1.57c6.38.93,23.45,2.73,23.45,2.73l11.81,4.5S251,141,249.05,141.08c-27.47,1.56-53.4-5.79-53.4-5.79Z" transform="translate(45.76 -117.48)"/><polygon class="cls-6" points="344.35 12.67 335.04 28.31 314.53 40.32 306.39 52.56 280.93 60.27 275.85 60.59 270.43 63.44 239.18 42.47 260.19 46.75 267.91 29.17 271.62 34.38 281.21 51.47 303.37 41.46 318.94 18.36 344.35 12.67"/><polygon class="cls-7" points="260.19 46.75 270.43 63.44 239.18 42.47 260.19 46.75"/><polygon class="cls-8" points="271.62 34.38 275.85 60.59 280.93 60.27 281.21 51.47 271.62 34.38"/><polygon class="cls-9" points="314.53 40.32 318.94 18.36 303.37 41.46 306.39 52.56 314.53 40.32"/><polygon class="cls-10" points="260.19 46.75 267.91 29.17 268.94 28.01 289.32 26.15 278.62 31.12 271.62 34.38 273.82 48 263.75 52.56 270.43 63.44 239.18 42.47 260.19 46.75"/><path class="cls-11" d="M188.52,143.3l6.76-6.52,27.9,8.71-1,1.15,3.7,5.21,4.23,26.21,5.08-.32.28-8.79-9.59-17.1,23.19-10.77s-29.15,1.16-53.4-5.79l-10.94-9.65Z" transform="translate(45.76 -117.48)"/><polygon class="cls-12" points="344.35 12.67 318.94 18.36 303.37 41.46 306.39 52.56 314.53 40.32 318.23 21.9 335.46 19.23 335.04 28.31 344.35 12.67"/></g></g></svg>