<svg xmlns="http://www.w3.org/2000/svg" x="0px" y="0px" width="100" height="100" viewBox="0,0,256,256">
<g transform="translate(25.6,25.6) scale(0.8,0.8)"><g fill="#ffffff" fill-rule="nonzero" stroke="none" stroke-width="1" stroke-linecap="butt" stroke-linejoin="miter" stroke-miterlimit="10" stroke-dasharray="" stroke-dashoffset="0" font-family="none" font-weight="none" font-size="none" text-anchor="none" style="mix-blend-mode: normal"><path d="M48,288c-44.18278,0 -80,-35.81722 -80,-80v-160c0,-44.18278 35.81722,-80 80,-80h160c44.18278,0 80,35.81722 80,80v160c0,44.18278 -35.81722,80 -80,80z" id="shape"></path></g><g fill="none" fill-rule="nonzero" stroke="none" stroke-width="1" stroke-linecap="butt" stroke-linejoin="miter" stroke-miterlimit="10" stroke-dasharray="" stroke-dashoffset="0" font-family="none" font-weight="none" font-size="none" text-anchor="none" style="mix-blend-mode: normal"><g transform="scale(5.33333,5.33333)"><path d="M0,15h48v17h-24v3h-11v-3h-13z" fill="#d50000"></path><path d="M3,29h5v-8h3v8h2v-11h-10zM16,18v14h5v-3h5v-11zM24,26h-3v-5h3zM29,18v11h5v-8h3v8h3v-8h3v8h2v-11z" fill="#ffffff"></path></g></g></g>
</svg>