<svg id="Layer_1" data-name="Layer 1" xmlns="http://www.w3.org/2000/svg" viewBox="0 0 1270.88 1211.9"><defs><style>.cls-1{fill:#fff;}</style></defs><title>Untitled-1</title><path class="cls-1" d="M626.19,651.15c-.14,0-.33,1.12-.29,1.14.88.3,1.78.52,2.68.75v-1.81A16,16,0,0,0,626.19,651.15Z" transform="translate(642.3 430.67)"/><path class="cls-1" d="M14.2-33.73c-2.43,2.3-2.52,5-1.46,8.84.87-1.24,1.28-1.79,1.65-2.37.49-.74,1-1.5,1.43-2.25l-.15.15C14.56-30.6,17.92-33.35,14.2-33.73Z" transform="translate(642.3 430.67)"/><path class="cls-1" d="M-580.22-227.43c-2-.16-4-.07-7.18-.07,1.08,1.6,1.59,2.86,2,2.82a10.62,10.62,0,0,1,5,.44c.25.09,1.23-1,1.41-1.74C-578.93-226.35-579.76-227.39-580.22-227.43Z" transform="translate(642.3 430.67)"/><path class="cls-1" d="M-457.43-307.08c.82,1.92.11,4.79,2.93,4.34,2.11-.34,1.42-2.14,1.09-3.81Z" transform="translate(642.3 430.67)"/><path class="cls-1" d="M286.22,133.11c-1.52.56-1.55,1.58-.78,2.79.07.11.23.17.47.33l5.78-2.17C290.49,132,289.7,131.83,286.22,133.11Z" transform="translate(642.3 430.67)"/><path class="cls-1" d="M-236.38,315.73c3.34-1.39,1.47-3.87,2.5-6.17l-3.61.65C-237.1,312.17-236.77,313.8-236.38,315.73Z" transform="translate(642.3 430.67)"/><path class="cls-1" d="M-125.89-78.84a3,3,0,0,0,0-2,35.64,35.64,0,0,0-1.88-3.49l-2.5.47h0c1.66.85,1.92,2.24,1.79,4a2.38,2.38,0,0,0,1.14,1.62A1.56,1.56,0,0,0-125.89-78.84Z" transform="translate(642.3 430.67)"/><path class="cls-1" d="M324.08,174.68A13,13,0,0,0,324,178c2.78.62,3-1.27,3.12-2.84.05-.66-.83-1.38-1.29-2.08C325.22,173.64,324.25,174.05,324.08,174.68Z" transform="translate(642.3 430.67)"/><path class="cls-1" d="M157.55,160.79c1.95,2.84,1.95,2.84,5.07,2C161.29,159.72,160.8,159.53,157.55,160.79Z" transform="translate(642.3 430.67)"/><path class="cls-1" d="M-561.63-423.85l-1.93.48c1.12,2.44,2.06,4.51,3.35,7.33C-558.39-419.75-561.3-421.5-561.63-423.85Z" transform="translate(642.3 430.67)"/><path class="cls-1" d="M-9.29-.7C-6.26,1.17-5.32-2-3.5-3-6.32-4.17-7.75-3.51-9.29-.7Z" transform="translate(642.3 430.67)"/><path class="cls-1" d="M307.93-283.17c4.18-2.48,4.18-2.48,2.43-4.39C306.93-285.31,306.93-285.31,307.93-283.17Z" transform="translate(642.3 430.67)"/><path class="cls-1" d="M95.17-68.09c-2.1-.26-3.38.7-3.65,3.51,2.16,0,3.9,0,4.52-2.21A1.59,1.59,0,0,0,95.17-68.09Z" transform="translate(642.3 430.67)"/><path class="cls-1" d="M385.58,70.54V65.46l-2.66.43C383,67.84,383,69.56,385.58,70.54Z" transform="translate(642.3 430.67)"/><path class="cls-1" d="M42.82,119.7c1.57-.52,3.88-.07,4.6-3.23l-6.63.32C41.86,118.36,42.59,119.78,42.82,119.7Z" transform="translate(642.3 430.67)"/><path class="cls-1" d="M375.56,752.21c1.87,1.58,3.13-.35,4.76-.43C378.7,748.26,378.4,748.3,375.56,752.21Z" transform="translate(642.3 430.67)"/><path class="cls-1" d="M-158.37,289.23c.3.29,1.67-.07,2.17-.54.66-.62.95-1.65,1.85-3.36a20,20,0,0,0-3.61,1A1.69,1.69,0,0,0-158.37,289.23Z" transform="translate(642.3 430.67)"/><path class="cls-1" d="M101.11,161.79a23.82,23.82,0,0,1,1.49,2.8c.31.91.43,1.88.81,3.64,1-1.21,1.92-1.86,1.85-2.36C105,164,103.86,162.61,101.11,161.79Z" transform="translate(642.3 430.67)"/><path class="cls-1" d="M593.76,621.25c-1.43-1.53-2.64-2.83-4.56-4.87C589.27,620.82,590.31,621.82,593.76,621.25Z" transform="translate(642.3 430.67)"/><path class="cls-1" d="M-418.19-55.74c-.31,2.3-3.62,1.57-3.77,4.22,1.45-.29,2.6-.54,3.75-.76C-415.72-52.76-416.42-53.95-418.19-55.74Z" transform="translate(642.3 430.67)"/><path class="cls-1" d="M-613.91-14.75c.79,2.47,2.91,2,4.51,2.67C-608.85-15.28-608.88-15.3-613.91-14.75Z" transform="translate(642.3 430.67)"/><path class="cls-1" d="M177.61,326.8c.89-.6,1.74-1.58,2.69-1.71,1.93-.26,1.73-1.07,1.14-2.34C176.4,324.43,176.4,324.43,177.61,326.8Z" transform="translate(642.3 430.67)"/><path class="cls-1" d="M-58.95,321.23c-.46,1.29-2.21,2.92.87,4.31.66-1.74,1.19-3.18,2.08-5.56C-57.52,320.59-58.77,320.72-58.95,321.23Z" transform="translate(642.3 430.67)"/><path class="cls-1" d="M597.76-187.64c0,.44,0,.87,0,1.31.83.18,1.78.72,2.44.47,1.44-.54,2.69-1.5,1.19-3.74Z" transform="translate(642.3 430.67)"/><path class="cls-1" d="M-575.81-383.32l4.74-3.62-.82-1.09C-573.21-386.75-576.48-387.61-575.81-383.32Z" transform="translate(642.3 430.67)"/><path class="cls-1" d="M260.12,232.43c1.88-.39,3.73-.8,3.78-3.66C261.31,228.89,260.38,230.31,260.12,232.43Z" transform="translate(642.3 430.67)"/><path class="cls-1" d="M-218,291.75c1.87-.25,3.17-.07,3.5-.55.52-.77.4-2,.56-3l-1.35-.41Z" transform="translate(642.3 430.67)"/><path class="cls-1" d="M391.64,127c-4.21-1.57-4.21-1.57-5.51.13C387.89,127.47,389.38,129.13,391.64,127Z" transform="translate(642.3 430.67)"/><path class="cls-1" d="M574.15-178.45c.15.65,1.12,1.12,1.74,1.66.5-.62,1.36-1.22,1.41-1.87s-.86-1.18-1.67-2.17C574.9-179.73,574-179,574.15-178.45Z" transform="translate(642.3 430.67)"/><path class="cls-1" d="M233.22-150.25c1.27.34,2.29,1,2.78.67,1.52-.9,1.42-2.34.27-4.91C235.18-153,234.46-152,233.22-150.25Z" transform="translate(642.3 430.67)"/><path class="cls-1" d="M547.6-364.55c2.38,1.48,4.54,1.21,6.5,1.84C553.21-365.2,552-365.59,547.6-364.55Z" transform="translate(642.3 430.67)"/><path class="cls-1" d="M559.17-145.4a7.46,7.46,0,0,0,2.33,1.47c.38.08,1-1,1.78-1.91-.93-.68-1.77-1.65-2.12-1.49C560.37-147,559.82-146.08,559.17-145.4Z" transform="translate(642.3 430.67)"/><path class="cls-1" d="M-14,54.13c-2.16-.35-3.28.82-4.35,2.39C-15.39,57.79-15.38,57.78-14,54.13Z" transform="translate(642.3 430.67)"/><path class="cls-1" d="M470.59,15.64c-1.1-1.2-1.94-2.5-3.37-1.1a2.3,2.3,0,0,0-.07,2.26C468.51,18.34,469.42,17.09,470.59,15.64Z" transform="translate(642.3 430.67)"/><path class="cls-1" d="M507.81-51.46c-1.59-1.16-2.28-2.07-2.91-2s-1.2,1-1.8,1.59c.66.66,1.24,1.7,2,1.87S506.6-50.78,507.81-51.46Z" transform="translate(642.3 430.67)"/><path class="cls-1" d="M-124.42-346.88c.62-1,1.39-1.76,1.33-2.4s-1.17-1.57-1.58-1.46c-.67.17-1.59,1.08-1.59,1.69S-125.28-347.83-124.42-346.88Z" transform="translate(642.3 430.67)"/><path class="cls-1" d="M-628.6,399.42c.06.67,1,1.26,1.49,1.89.6-.54,1.6-1,1.68-1.63s-.76-1.33-1.47-2.43C-627.71,398.22-628.65,398.87-628.6,399.42Z" transform="translate(642.3 430.67)"/><path class="cls-1" d="M454.43-420.16c.44.19,1.29-.63,2.43-1.26-1-.86-1.51-1.64-2.15-1.76-.47-.09-1.63.82-1.58,1.07A3,3,0,0,0,454.43-420.16Z" transform="translate(642.3 430.67)"/><path class="cls-1" d="M19.66-416.11c.11-.27-.86-1.38-1.2-1.32-.72.12-1.73.65-1.91,1.23s.52,1.43,1.11,2.81A14.06,14.06,0,0,0,19.66-416.11Z" transform="translate(642.3 430.67)"/><path class="cls-1" d="M-129.18,292.82c-2.13-1.15-3-.28-3.13,1.62,0,.52.69,1.54,1,1.53C-129.1,295.92-129.38,294.24-129.18,292.82Z" transform="translate(642.3 430.67)"/><path class="cls-1" d="M-108.61,733.29c-.62,0-1.19.93-1.78,1.46.5.56,1,1.49,1.51,1.56s1.3-.67,2.38-1.29C-107.45,734.19-108.06,733.25-108.61,733.29Z" transform="translate(642.3 430.67)"/><path class="cls-1" d="M582.89,230.62a1.2,1.2,0,0,0-.41,1.11c.93,1.77,2.45,1.73,4.27.69C585.66,231.3,584.77,229.85,582.89,230.62Z" transform="translate(642.3 430.67)"/><path class="cls-1" d="M-561.1-379.62v4.22l.8.28c.73-1.27,1.47-2.53,2.48-4.28Z" transform="translate(642.3 430.67)"/><path class="cls-1" d="M-606.78,279.82c.46-.46.22-1.61.37-3.3l-3.9,2.75C-609,281.09-607.75,280.79-606.78,279.82Z" transform="translate(642.3 430.67)"/><path class="cls-1" d="M-73.17,307.49c-1.59.15-3.18-1.45-5.67,1.22l5.54.53C-73.26,308.66-73.21,308.07-73.17,307.49Z" transform="translate(642.3 430.67)"/><path class="cls-1" d="M118.94,341.05l1.21-.3c-.53-1.58-1.07-3.16-1.87-5.53C116.69,338.21,118.4,339.48,118.94,341.05Z" transform="translate(642.3 430.67)"/><path class="cls-1" d="M486.74,344l4.51-2.39C488.63,340.21,488.58,340.23,486.74,344Z" transform="translate(642.3 430.67)"/><path class="cls-1" d="M407.28,389l3.64,2.75C411.51,387.68,411.51,387.68,407.28,389Z" transform="translate(642.3 430.67)"/><path class="cls-1" d="M331.84-146.48c.06.6.91,1.24,1.56,1.57.19.09,1.28-.84,1.27-1.28,0-.7-.62-1.37-1.25-2.58C332.63-147.69,331.78-147,331.84-146.48Z" transform="translate(642.3 430.67)"/><path class="cls-1" d="M-566.29,400.84c-.08.25.95,1.25,1.41,1.21.68-.06,1.3-.75,2.39-1.46-1.09-.74-1.82-1.6-2.37-1.51S-566.06,400.14-566.29,400.84Z" transform="translate(642.3 430.67)"/><path class="cls-1" d="M574.25,536.74a2.94,2.94,0,0,0,1.91,1.26c.26.06,1.14-1.06,1.06-1.53s-.87-1.11-1.69-2.05C574.89,535.51,574.07,536.35,574.25,536.74Z" transform="translate(642.3 430.67)"/><path class="cls-1" d="M-66.39-258.17c0,.54,1,1,1.6,1.45a10.14,10.14,0,0,0,.94-2.65c0-.46-.74-1-1.62-2C-65.94-259.91-66.48-259-66.39-258.17Z" transform="translate(642.3 430.67)"/><path class="cls-1" d="M-438.34-260.92c.52.33,1.62-.28,3.33-.65l-3.56-3.15C-439.68-263-439.57-261.69-438.34-260.92Z" transform="translate(642.3 430.67)"/><path class="cls-1" d="M510.54,612.33c.31.66,1.12,1.09,1.72,1.61.41-.52,1.21-1.12,1.12-1.52-.16-.68-.88-1.22-1.62-2.12C511.16,611.25,510.39,612,510.54,612.33Z" transform="translate(642.3 430.67)"/><path class="cls-1" d="M603.42,664.92c-1,1.21-.19,2.08,2.05,3.15.08-1.4.14-2.39.2-3.38C604.9,664.75,603.76,664.5,603.42,664.92Z" transform="translate(642.3 430.67)"/><path class="cls-1" d="M510.7-372.42c.54.11,1.28-.73,2.34-1.43-.94-.8-1.52-1.68-2.1-1.68s-1.64.89-1.63,1.37A2.27,2.27,0,0,0,510.7-372.42Z" transform="translate(642.3 430.67)"/><path class="cls-1" d="M145.91,304.43l4.82.52C150.33,302.43,150.33,302.43,145.91,304.43Z" transform="translate(642.3 430.67)"/><path class="cls-1" d="M216.16,758.3a2.27,2.27,0,0,0,1.7,1.49c.62,0,1.26-.91,2.2-1.67-1.06-.72-1.78-1.59-2.42-1.54A2.28,2.28,0,0,0,216.16,758.3Z" transform="translate(642.3 430.67)"/><path class="cls-1" d="M82.38-404.39c-.07-.63-1-1.17-1.54-1.76a6.66,6.66,0,0,0-1.39,2c-.1.41.66,1,1.32,2C81.54-403.18,82.44-403.84,82.38-404.39Z" transform="translate(642.3 430.67)"/><path class="cls-1" d="M-524.92,186.77c-.66.21-1.13,1-1.93,1.75.85.64,1.64,1.45,1.84,1.33a3.38,3.38,0,0,0,1.45-1.79C-523.48,187.74-524.61,186.67-524.92,186.77Z" transform="translate(642.3 430.67)"/><path class="cls-1" d="M208.44,715.78c.48.48.94,1.32,1.45,1.35.67,0,1.37-.55,2.57-1.11-1-.85-1.67-1.75-2.24-1.71S209,715.26,208.44,715.78Z" transform="translate(642.3 430.67)"/><path class="cls-1" d="M-155.55,169.34c1.74-1,1.42-2.29.81-3.73C-157.31,166.64-157.31,166.65-155.55,169.34Z" transform="translate(642.3 430.67)"/><path class="cls-1" d="M307.55,704c2.24-.69,2.77-1.83,2.15-4C307.25,700.3,306.87,701.5,307.55,704Z" transform="translate(642.3 430.67)"/><path class="cls-1" d="M-221,691.44c.45,0,1-.89,1.46-1.37l-2.7-2.56C-223.15,690.13-222.76,691.29-221,691.44Z" transform="translate(642.3 430.67)"/><path class="cls-1" d="M-367.13,156.66l-2.5-4.46c-2.15,2.25.08,3.29.45,4.63A11.73,11.73,0,0,0-367.13,156.66Z" transform="translate(642.3 430.67)"/><path class="cls-1" d="M373.84-331.66c-.87-1.36-1.74-2.71-2.6-4.07l-1.39.8c-.17,2,1.61,2.88,2.95,4Z" transform="translate(642.3 430.67)"/><path class="cls-1" d="M7.18,108.63A2,2,0,0,0,8.55,110c.45,0,1-.8,1.76-1.52-.84-.56-1.43-1.27-1.91-1.2S7.12,108.21,7.18,108.63Z" transform="translate(642.3 430.67)"/><path class="cls-1" d="M579.1-319.93c-.08.25.85,1.14,1.38,1.2s1.62-.64,1.58-.89a8.73,8.73,0,0,0-1.26-2.45C580-321.12,579.31-320.6,579.1-319.93Z" transform="translate(642.3 430.67)"/><path class="cls-1" d="M253.49-256.61c-.7-.75-1.35-1.76-1.6-1.67-.68.25-1.18,1-1.75,1.5.45.48.87,1.29,1.37,1.35S252.63-256.06,253.49-256.61Z" transform="translate(642.3 430.67)"/><path class="cls-1" d="M-370.35,11.71c.62.53,1.22,1.41,1.88,1.47s1.13-.94,2.12-1.87c-1.2-.48-1.95-1-2.65-1C-369.48,10.37-369.91,11.22-370.35,11.71Z" transform="translate(642.3 430.67)"/><path class="cls-1" d="M-609.81,415.21c1.43.67,2.34,1.08,3.25,1.5.31-.75,1.09-1.8.84-2.2C-606.64,413-607.87,413.5-609.81,415.21Z" transform="translate(642.3 430.67)"/><path class="cls-1" d="M-36.15-19.09c-.1.37.72,1.32,1.21,1.39s1.51-.63,1.53-1c0-.71-.5-1.45-1-2.68C-35.24-20.38-36-19.8-36.15-19.09Z" transform="translate(642.3 430.67)"/><path class="cls-1" d="M-445.12-208.69c-2.62-1.06-2.75-1-4.66,2.08C-447.82-206.76-446.26-207-445.12-208.69Z" transform="translate(642.3 430.67)"/><path class="cls-1" d="M362.23-133.47c.68-.11,1.26-.8,2.2-1.47-.89-.75-1.62-1.66-1.88-1.54A3.28,3.28,0,0,0,361-134.8C360.86-134.53,361.86-133.42,362.23-133.47Z" transform="translate(642.3 430.67)"/><path class="cls-1" d="M-194.42,502a2.12,2.12,0,0,0,1.51,1.22c.46.06,1-.63,2-1.29-1.1-.66-1.73-1.29-2.42-1.36C-193.67,500.49-194.52,501.56-194.42,502Z" transform="translate(642.3 430.67)"/><path class="cls-1" d="M-134.46-96.34c-1.36-1-2.39,0-2.66,1.49l2,2.14C-134.41-93.85-132.67-95-134.46-96.34Z" transform="translate(642.3 430.67)"/><polygon class="cls-1" points="507.17 337.97 507.16 337.96 507.16 337.97 507.17 337.97"/><path class="cls-1" d="M-197-111.67l-3.51.92c.22.63.27,1.62.71,1.85C-198.39-108.14-197.81-109.18-197-111.67Z" transform="translate(642.3 430.67)"/><path class="cls-1" d="M527.68-124.56c-.38-.09-1,.75-1.45,1.18.51.53.94,1.31,1.56,1.51.44.14,1.13-.51,2.15-1C528.92-123.7,528.36-124.41,527.68-124.56Z" transform="translate(642.3 430.67)"/><path class="cls-1" d="M32.89,505.3c0,.52.84,1.6,1.1,1.53a9.53,9.53,0,0,0,2.43-1.58c-1-.59-1.59-1.22-2.09-1.16S32.91,504.85,32.89,505.3Z" transform="translate(642.3 430.67)"/><path class="cls-1" d="M-436,506.28l4.3,3C-433,505.9-433,505.9-436,506.28Z" transform="translate(642.3 430.67)"/><path class="cls-1" d="M-471.21,504.56c.81,1.22,1.47,2.39,2.84,1.17a1.66,1.66,0,0,0,.32-1.55Q-469.45,502.54-471.21,504.56Z" transform="translate(642.3 430.67)"/><path class="cls-1" d="M-190.93-77.59c-.7-.73-1.13-1.56-1.6-1.58s-1.18.61-1.77,1a8.18,8.18,0,0,0,1.49,1.87C-192.64-76.2-191.78-77-190.93-77.59Z" transform="translate(642.3 430.67)"/><path class="cls-1" d="M547.11,540.33c.28.11,1.48-.91,1.4-1.17a9.78,9.78,0,0,0-1.59-2.4c-.66.89-1.47,1.55-1.36,2A2.89,2.89,0,0,0,547.11,540.33Z" transform="translate(642.3 430.67)"/><path class="cls-1" d="M-92.35,491.54c-1.27-1-2.09-.24-3.41,2.17l3.78-.6C-92.09,492.58-92,491.81-92.35,491.54Z" transform="translate(642.3 430.67)"/><path class="cls-1" d="M398,470a1.92,1.92,0,0,0-1.57,1.1,2,2,0,0,0,1.06,1.62c.44.17,1.18-.44,2.11-.85C398.87,471,398.5,470.14,398,470Z" transform="translate(642.3 430.67)"/><path class="cls-1" d="M-493.48,453.67c0,.52.9,1.48,1.09,1.41a10.6,10.6,0,0,0,2.18-1.63l-2.36-1.47C-492.9,452.54-493.51,453.12-493.48,453.67Z" transform="translate(642.3 430.67)"/><path class="cls-1" d="M-231.95,610.53c-.46.17-.65,1.06-1.23,2.11a11.52,11.52,0,0,0,2.12,0c1.05-.26,2.22-.7,1.41-2C-229.88,610.21-231.25,610.27-231.95,610.53Z" transform="translate(642.3 430.67)"/><path class="cls-1" d="M-641.64,422.87c-.1.28.81,1.3,1.22,1.28.7,0,1.36-.63,2.52-1.25-1.05-.82-1.69-1.69-2.29-1.67S-641.4,422.2-641.64,422.87Z" transform="translate(642.3 430.67)"/><path class="cls-1" d="M548.51,617.23c-.46-.06-1.26.93-1.49,1.59-.11.33.72,1.4,1.12,1.4.69,0,1.38-.58,2.49-1.12C549.69,618.21,549.15,617.31,548.51,617.23Z" transform="translate(642.3 430.67)"/><path class="cls-1" d="M-410.82-242.82l3.95,2.08.75-1.37C-407.24-242.92-408.2-244.16-410.82-242.82Z" transform="translate(642.3 430.67)"/><path class="cls-1" d="M416.46,411.83c-.09.19.9,1.27,1.31,1.22.62-.08,1.16-.79,2-1.46-.86-.71-1.59-1.55-1.8-1.44A3.82,3.82,0,0,0,416.46,411.83Z" transform="translate(642.3 430.67)"/><path class="cls-1" d="M399.16-272.54c-.59-1-1.16-2-1.83-2.87a11.5,11.5,0,0,0-1.34.74L398.2-272Z" transform="translate(642.3 430.67)"/><path class="cls-1" d="M227.5-279.85c.13-.33-.59-1-1.07-1.76-.79.61-1.79,1.15-1.73,1.4a7.47,7.47,0,0,0,1.28,2C226.51-278.75,227.25-279.21,227.5-279.85Z" transform="translate(642.3 430.67)"/><path class="cls-1" d="M69.68,75.16c-1,2.21.4,3.07,1.68,4C72,77.34,71.4,76.16,69.68,75.16Z" transform="translate(642.3 430.67)"/><path class="cls-1" d="M-485.71-312.52c.64-1.12,1.27-2.24,2.08-3.65C-486.64-315.59-486.64-315.59-485.71-312.52Z" transform="translate(642.3 430.67)"/><path class="cls-1" d="M-599.2,359.76a1.76,1.76,0,0,0,1.13,1.32c.55,0,1.13-.62,1.69-1l-1.22-1.88C-598.33,358.89-599.12,359.27-599.2,359.76Z" transform="translate(642.3 430.67)"/><path class="cls-1" d="M278.93,358.29c-.1.29.95,1.41,1.29,1.33.66-.15,1.19-.88,2-1.58l-1.79-1.65A6.66,6.66,0,0,0,278.93,358.29Z" transform="translate(642.3 430.67)"/><path class="cls-1" d="M-81.11,126.72c-.23-1.37-.91-2.23-2.34-1.6-.43.18-.89,1.51-.68,1.77C-83.22,128-82.13,127.86-81.11,126.72Z" transform="translate(642.3 430.67)"/><path class="cls-1" d="M310.63,346l-2.51-3.6C307.2,345.2,307.2,345.2,310.63,346Z" transform="translate(642.3 430.67)"/><path class="cls-1" d="M498.57-364.49c-.56,1.14-1.24,2.33.49,3.09.36.15,1.49-.53,1.61-1C501.05-363.83,500.26-364.55,498.57-364.49Z" transform="translate(642.3 430.67)"/><path class="cls-1" d="M-126.27,169.09l3.83-2.42C-124.16,166.38-126.54,164.84-126.27,169.09Z" transform="translate(642.3 430.67)"/><path class="cls-1" d="M458.28-376.72c-.6,1-1.25,1.59-1.31,2.26,0,.41.83.9,1.29,1.35a7.59,7.59,0,0,0,1.59-1.84C460-375.19,459.05-375.88,458.28-376.72Z" transform="translate(642.3 430.67)"/><path class="cls-1" d="M-415.42,188.07c-.56.18-.94,1-1.39,1.48.49.41.95,1.12,1.47,1.16s1-.68,1.76-1.31C-414.43,188.75-415.07,188-415.42,188.07Z" transform="translate(642.3 430.67)"/><path class="cls-1" d="M-626.39,199.76c-.09.55.43,1.21.68,1.82.42.24.83.49,1.24.74.25-.71.79-1.46.68-2.1s-.87-1.3-1.34-1.94C-625.57,198.77-626.29,199.21-626.39,199.76Z" transform="translate(642.3 430.67)"/><path class="cls-1" d="M130,319.88c.1.68.78,1.26,1.22,1.89.41-.33,1.17-.66,1.17-1a11.34,11.34,0,0,0-.73-2.76C130.79,319,129.93,319.48,130,319.88Z" transform="translate(642.3 430.67)"/><path class="cls-1" d="M62.06,314.67c0,.56.64,1.12,1,1.69.48-.49,1.24-.92,1.36-1.48s-.44-1.19-1-2.4C62.73,313.56,62.06,314.11,62.06,314.67Z" transform="translate(642.3 430.67)"/><path class="cls-1" d="M391.26,738.24c-1.48.7-2.13,1.66-1,3.07a1.63,1.63,0,0,0,1.59.17C393.2,740.25,392.73,739.18,391.26,738.24Z" transform="translate(642.3 430.67)"/><path class="cls-1" d="M-579.68,305.93c-.06.52.53,1.12,1.06,2.11.72-.86,1.56-1.44,1.47-1.83-.14-.66-.87-1.19-1.34-1.77C-578.92,304.93-579.61,305.39-579.68,305.93Z" transform="translate(642.3 430.67)"/><path class="cls-1" d="M266.48,280l.45,1.35,2.62-.56-.72-1.89Z" transform="translate(642.3 430.67)"/><path class="cls-1" d="M-473.91,277c-1.46.55-1.79,1.5-.83,2.69a1.54,1.54,0,0,0,1.49.13C-472.2,278.65-472.59,277.69-473.91,277Z" transform="translate(642.3 430.67)"/><path class="cls-1" d="M144.45,762.45c.44.45.84,1.18,1.33,1.25s1.17-.45,2.18-.91c-.88-.75-1.4-1.53-1.86-1.5S145,762,144.45,762.45Z" transform="translate(642.3 430.67)"/><path class="cls-1" d="M-182.16,303a7,7,0,0,0-2.12,1l1.82,1.7a6.52,6.52,0,0,0,1.27-1.64C-181.1,303.84-181.84,302.94-182.16,303Z" transform="translate(642.3 430.67)"/><path class="cls-1" d="M-525.3-134.58c0-.55-.62-1.09-1-1.63-.51.55-1.26,1-1.43,1.66-.11.43.61,1.07,1.22,2C-525.9-133.49-525.3-134-525.3-134.58Z" transform="translate(642.3 430.67)"/><path class="cls-1" d="M121.28,566.63c2,1.63,3,2.07,3.9.73.18-.28-.36-1.47-.53-1.47A21.55,21.55,0,0,0,121.28,566.63Z" transform="translate(642.3 430.67)"/><path class="cls-1" d="M283.28,531.63c.46.51.85,1.3,1.41,1.44s1.1-.53,2.08-1.08c-.87-.7-1.37-1.43-1.85-1.41S283.82,531.25,283.28,531.63Z" transform="translate(642.3 430.67)"/><path class="cls-1" d="M-62.77-419.78c-.1.13.7.94,1.28,1.7.7-.66,1.52-1.08,1.55-1.55s-.64-1.13-1-1.7A9.8,9.8,0,0,0-62.77-419.78Z" transform="translate(642.3 430.67)"/><path class="cls-1" d="M-529.32,266.25c.46.51.86,1.31,1.41,1.43s1.16-.52,2.18-1.05c-.93-.7-1.44-1.39-2-1.41S-528.78,265.88-529.32,266.25Z" transform="translate(642.3 430.67)"/><path class="cls-1" d="M-388.83,581c-.05.31.8,1.12,1.08,1,.55-.14,1-.73,1.74-1.38l-1.8-1.35C-388.17,579.83-388.73,580.35-388.83,581Z" transform="translate(642.3 430.67)"/><path class="cls-1" d="M391.17,516.48c.79.67,1.3,1.09,1.81,1.51l1.49-1.94c-.56-.36-1.12-1-1.67-1S391.87,515.83,391.17,516.48Z" transform="translate(642.3 430.67)"/><path class="cls-1" d="M-501.13,254.23h-3.66C-502.22,256.77-502.22,256.77-501.13,254.23Z" transform="translate(642.3 430.67)"/><path class="cls-1" d="M-417.48-107c.44.09,1.05-.59,1.88-1.13l-1.63-1.72c-.48.46-1.27.88-1.35,1.41A1.84,1.84,0,0,0-417.48-107Z" transform="translate(642.3 430.67)"/><path class="cls-1" d="M-292.48,244.23c.08.66.17,1.31.25,2l2.52-.55c-.07-.47-.13-.94-.2-1.41Z" transform="translate(642.3 430.67)"/><path class="cls-1" d="M-98.61,584.7c.11.55.85,1,1.32,1.45.4-.51,1.09-1,1.12-1.53s-.66-1-1.33-1.94C-98.06,583.63-98.71,584.24-98.61,584.7Z" transform="translate(642.3 430.67)"/><path class="cls-1" d="M-246.74,242.81a8.83,8.83,0,0,0,1.55.44,16.37,16.37,0,0,0,.81-2.42l-1.52-.49Z" transform="translate(642.3 430.67)"/><path class="cls-1" d="M-603.89,510.8c0,.51.81.95,1.47,1.64l1.5-1.83a6.51,6.51,0,0,0-1.91-1.19C-603.09,509.35-603.94,510.35-603.89,510.8Z" transform="translate(642.3 430.67)"/><path class="cls-1" d="M537.43-96.28c.37.38.71,1,1.13,1.08a8,8,0,0,0,2.42-.66c-1-.84-1.5-1.61-2-1.6S538-96.7,537.43-96.28Z" transform="translate(642.3 430.67)"/><path class="cls-1" d="M-631,501.28a6.51,6.51,0,0,0-1.86,1.39c.46.47.87,1.22,1.4,1.32s1.15-.49,2-.92C-630.15,502.22-630.75,501.2-631,501.28Z" transform="translate(642.3 430.67)"/><path class="cls-1" d="M-529.88-400.52c-1.87,1-3.27,1.21-2.4,2.91.17.33,1,.32,1.53.47C-530.53-398-530.31-398.86-529.88-400.52Z" transform="translate(642.3 430.67)"/><path class="cls-1" d="M591.18-80.31a14.76,14.76,0,0,0-2.46-.25c-.15,0-.25,1-.37,1.5l2.6.29C591-79.28,591.11-79.8,591.18-80.31Z" transform="translate(642.3 430.67)"/><path class="cls-1" d="M-143.19,203.84c.06-.54-.54-1.14-1.12-2.2-.62,1.06-1.26,1.65-1.21,2.19s.75,1.06,1.17,1.58C-143.94,204.89-143.25,204.4-143.19,203.84Z" transform="translate(642.3 430.67)"/><path class="cls-1" d="M-382.48-78.46a1.89,1.89,0,0,0-1.83,0c-.92,1.18-.42,2.15.91,2.73C-382-76.28-381.62-77.29-382.48-78.46Z" transform="translate(642.3 430.67)"/><path class="cls-1" d="M-392.6-224.65l3.05,2.67C-389.08-225.14-389.08-225.14-392.6-224.65Z" transform="translate(642.3 430.67)"/><path class="cls-1" d="M-640.66-381.74l3.32-.2C-638.62-384.73-639.64-384.46-640.66-381.74Z" transform="translate(642.3 430.67)"/><path class="cls-1" d="M292.54,168.81c.47.44.91,1.18,1.43,1.24s1.15-.52,2.13-1c-1-.72-1.5-1.46-2-1.45S293.05,168.36,292.54,168.81Z" transform="translate(642.3 430.67)"/><path class="cls-1" d="M166.79,717.66c-.54.32-1.27.83-1.31,1.33s.72,1,1.49,1.93c.44-1.07.86-1.66.83-2.23C167.79,718.31,166.91,717.59,166.79,717.66Z" transform="translate(642.3 430.67)"/><path class="cls-1" d="M-218.57,613.59c.24.24,1.52-.05,1.53-.17a23.78,23.78,0,0,0-.13-3.35C-219.39,611.51-219.65,612.52-218.57,613.59Z" transform="translate(642.3 430.67)"/><path class="cls-1" d="M-425.93,462.71c-1-1.24-2-2-3.14-.84a1.58,1.58,0,0,0,.08,1.57C-427.9,464.55-426.89,464.23-425.93,462.71Z" transform="translate(642.3 430.67)"/><path class="cls-1" d="M386.19,154.84c-.38,0-1.17.79-1.1,1a6.15,6.15,0,0,0,1.17,1.63l1.88-1.56C387.25,155.39,386.73,154.86,386.19,154.84Z" transform="translate(642.3 430.67)"/><path class="cls-1" d="M-221.79,154.65l3.31-.28C-220.27,152.31-220.27,152.31-221.79,154.65Z" transform="translate(642.3 430.67)"/><path class="cls-1" d="M504.93,148.77c-.1.57.45,1.26.88,2.3l2-2.41c-.51-.42-1-1.17-1.53-1.16A1.92,1.92,0,0,0,504.93,148.77Z" transform="translate(642.3 430.67)"/><path class="cls-1" d="M74,146.46a1.76,1.76,0,0,0,1.29,1.16c.45,0,1.27-.84,1.22-1.21-.08-.58-.75-1.08-1.43-1.94C74.56,145.34,74,145.92,74,146.46Z" transform="translate(642.3 430.67)"/><path class="cls-1" d="M526.3-261.42c.55-.15,1-.92,1.64-1.68-.84-.5-1.49-1.19-1.94-1.08a1.86,1.86,0,0,0-1,1.54C525-262.16,526-261.33,526.3-261.42Z" transform="translate(642.3 430.67)"/><path class="cls-1" d="M417.23-366h-2.56l-.06,1.29,2.47.27Z" transform="translate(642.3 430.67)"/><path class="cls-1" d="M505.71-19.83c0,.52.73,1.06,1.14,1.58.5-.43,1.28-.8,1.4-1.32s-.5-1.11-1-2.09C506.5-20.82,505.72-20.33,505.71-19.83Z" transform="translate(642.3 430.67)"/><path class="cls-1" d="M-93.23,629.42a1.92,1.92,0,0,0-1.5,1.15c-.12.44.57,1.09,1.73,3,.55-1.39,1.08-2.09,1-2.75A2,2,0,0,0-93.23,629.42Z" transform="translate(642.3 430.67)"/><path class="cls-1" d="M110.7,368.56c0,.51.64,1.42,1.06,1.45s1.6-.71,1.56-1a9.56,9.56,0,0,0-1.32-2.55C111.36,367.45,110.72,368,110.7,368.56Z" transform="translate(642.3 430.67)"/><path class="cls-1" d="M135.7-280.92c.52.38,1.05,1.07,1.56,1.05s.92-.77,1.66-1.46c-.91-.54-1.57-1.22-2-1.1S136.1-281.45,135.7-280.92Z" transform="translate(642.3 430.67)"/><path class="cls-1" d="M287.31,368.54c.16.57.66,1.36,1.14,1.45s1-.66,1.9-1.31c-.92-.59-1.43-1.13-2-1.19C288,367.46,287.24,368.28,287.31,368.54Z" transform="translate(642.3 430.67)"/><path class="cls-1" d="M371.75,79.33l3.6.53C374.45,77.17,373.48,77.28,371.75,79.33Z" transform="translate(642.3 430.67)"/><path class="cls-1" d="M79.4,409.4c-1,1.24-1.18,2.32.18,3.06a1.59,1.59,0,0,0,1.51-.47C81.85,410.59,81.09,409.84,79.4,409.4Z" transform="translate(642.3 430.67)"/><path class="cls-1" d="M476.76-295.79a2.76,2.76,0,0,0-1.12.22,23.35,23.35,0,0,0,.18,2.5l1.61-.35A21.35,21.35,0,0,0,476.76-295.79Z" transform="translate(642.3 430.67)"/><path class="cls-1" d="M-50.88-313c.47.29,1,.85,1.4.79s1-.66,2-1.36c-1.11-.53-1.8-1.15-2.24-1S-50.51-313.54-50.88-313Z" transform="translate(642.3 430.67)"/><path class="cls-1" d="M-139.49-312.36l-2.61-.32-.39,1.52,2.41.76C-139.88-311-139.69-311.7-139.49-312.36Z" transform="translate(642.3 430.67)"/><path class="cls-1" d="M-534-329.56c-.53.87-1.23,1.55-1.09,1.92a2,2,0,0,0,1.53,1.17c.45,0,1.14-1,1.14-1.49S-533.3-328.85-534-329.56Z" transform="translate(642.3 430.67)"/><path class="cls-1" d="M585.05,650.88c.52.41,1,1.09,1.57,1.14s1-.62,1.91-1.21c-.93-.6-1.52-1.28-2-1.22S585.54,650.42,585.05,650.88Z" transform="translate(642.3 430.67)"/><path class="cls-1" d="M-83.27,650.22c-.19-.09-1.09.63-1.14,1s.42,1.1.86,2.09c.8-.84,1.63-1.34,1.58-1.74S-82.72,650.5-83.27,650.22Z" transform="translate(642.3 430.67)"/><path class="cls-1" d="M-211.81,385.93a5,5,0,0,0,1.54,1.11c.31.09.81-.54,1.55-1.08-.9-.55-1.43-1.08-2-1.16C-211,384.75-211.45,385.52-211.81,385.93Z" transform="translate(642.3 430.67)"/><path class="cls-1" d="M-556.53-304.55c-.42-.11-1.08.59-1.92,1.11.57.63,1,1.33,1.25,1.3a6.31,6.31,0,0,0,1.79-.84C-555.77-303.54-556-304.41-556.53-304.55Z" transform="translate(642.3 430.67)"/><path class="cls-1" d="M162.48,19.78l-2.41-3.25C159.21,20,159.21,20,162.48,19.78Z" transform="translate(642.3 430.67)"/><path class="cls-1" d="M182.8-282.9c.16.47,1,.8,1.65.94a1.87,1.87,0,0,0,.74-1.32c-.14-.57-.76-1-1.53-2C183.2-284.1,182.63-283.37,182.8-282.9Z" transform="translate(642.3 430.67)"/><path class="cls-1" d="M-354.51-2.46A2,2,0,0,0-356-1.24c-.1.39.62,1.36,1.1,1.46s1.2-.47,2.16-.91C-353.55-1.55-354-2.41-354.51-2.46Z" transform="translate(642.3 430.67)"/><path class="cls-1" d="M388.71,679.75c-.38,0-1,1-.95,1.42s.88.91,1.76,1.72c.37-1,.88-1.73.71-2.17A1.9,1.9,0,0,0,388.71,679.75Z" transform="translate(642.3 430.67)"/><path class="cls-1" d="M-246,427.14c-.35.41-1,.91-1,1.23.13.55.74,1,1.41,1.79.49-.83,1.08-1.44,1-1.7C-244.83,427.92-245.48,427.57-246,427.14Z" transform="translate(642.3 430.67)"/><path class="cls-1" d="M144.11,350.68c0-.53-.51-1.07-1-2-.7.87-1.48,1.45-1.39,1.82.14.55.89.94,1.38,1.41C143.45,351.48,144.11,351.08,144.11,350.68Z" transform="translate(642.3 430.67)"/><path class="cls-1" d="M530-354.92c.35-.53,1-1.06,1-1.58s-.65-1.06-1.2-1.84c-.67.85-1.55,1.58-1.42,1.89C528.59-355.82,529.4-355.42,530-354.92Z" transform="translate(642.3 430.67)"/><path class="cls-1" d="M-177.66,120.38c-.55.15-1,.73-1.45,1.14.43.29.85.79,1.31.83s.89-.4,1.75-.84C-176.85,120.92-177.36,120.3-177.66,120.38Z" transform="translate(642.3 430.67)"/><path class="cls-1" d="M419.42-273c0,.39,1,1.12,1.18,1,.55-.25,1.26-.88,1.26-1.37s-.76-1-1.53-1.91C419.86-274.23,419.38-273.62,419.42-273Z" transform="translate(642.3 430.67)"/><path class="cls-1" d="M469.58,135.45c-.11.14.58,1.23.85,1.21a5.2,5.2,0,0,0,1.77-.81l.69-1.12c-.59-.17-1.23-.56-1.75-.45A3,3,0,0,0,469.58,135.45Z" transform="translate(642.3 430.67)"/><path class="cls-1" d="M-32.67-31.64c-.21.28.08,1.41.32,1.47a2,2,0,0,0,2.66-1.62C-30.8-33-31.84-32.73-32.67-31.64Z" transform="translate(642.3 430.67)"/><path class="cls-1" d="M-285.29-376.12c.38.52.68,1.33,1.16,1.46s1.16-.43,2.33-.95c-1.07-.64-1.57-1.14-2.12-1.21S-284.83-376.37-285.29-376.12Z" transform="translate(642.3 430.67)"/><path class="cls-1" d="M613.34,451.19c-.28,0-1,.8-1,1.1.13.57.7,1,1.33,1.88.56-.91,1.2-1.5,1.13-2S613.91,451.28,613.34,451.19Z" transform="translate(642.3 430.67)"/><path class="cls-1" d="M-587.19-375c.23.07,1-.7,1-1.08a7.09,7.09,0,0,0-.67-2.06l-1.14.7c-.28.43-.89,1.11-.78,1.26A3.26,3.26,0,0,0-587.19-375Z" transform="translate(642.3 430.67)"/><path class="cls-1" d="M495.69,149.48c.08-.43-.72-1-1.38-1.84-.63.83-1.39,1.41-1.32,1.85s.85,1,1.33,1.52C494.81,150.5,495.58,150.05,495.69,149.48Z" transform="translate(642.3 430.67)"/><path class="cls-1" d="M-62.84,338.71c0,.37.06.75.1,1.12h2.63c-.08-.52-.17-1-.25-1.56Z" transform="translate(642.3 430.67)"/><path class="cls-1" d="M606,158c0,.18.82.94,1.18.88.54-.08,1-.65,1.87-1.27-.92-.57-1.56-1.25-2-1.13S606.21,157.4,606,158Z" transform="translate(642.3 430.67)"/><path class="cls-1" d="M-563.72-236.29c.58-.05,1.12-.61,2-1.17-.73-.58-1.24-1.25-1.53-1.17a5.85,5.85,0,0,0-1.62,1.16C-564.47-237-564.06-236.27-563.72-236.29Z" transform="translate(642.3 430.67)"/><path class="cls-1" d="M-492.62-53c.58,0,1.12-.55,2-1-.73-.67-1.26-1.43-1.51-1.34a3,3,0,0,0-1.43,1.26C-493.66-54-492.92-53-492.62-53Z" transform="translate(642.3 430.67)"/><path class="cls-1" d="M-235.59-58c0-.36-.59-.79-1.09-1.38l-1.44,1.3a5.91,5.91,0,0,0,1.53,1.2C-236.4-56.84-235.64-57.6-235.59-58Z" transform="translate(642.3 430.67)"/><path class="cls-1" d="M-255.71-59.73a1.77,1.77,0,0,0,1.39,1.11,1.79,1.79,0,0,0,1.21-1.32c0-.52-.78-1-1.5-1.81C-255.16-60.82-255.79-60.21-255.71-59.73Z" transform="translate(642.3 430.67)"/><path class="cls-1" d="M-205.18,163.58c.15.06,1-.85.94-1.09a7.91,7.91,0,0,0-1.48-1.81c-.46.81-1.05,1.44-.91,1.69A2.94,2.94,0,0,0-205.18,163.58Z" transform="translate(642.3 430.67)"/><path class="cls-1" d="M-75.17,170.89c-.09.45.59,1.06,1.15,1.92.7-.74,1.44-1.18,1.52-1.72.06-.38-.75-1.24-1.21-1.26A1.82,1.82,0,0,0-75.17,170.89Z" transform="translate(642.3 430.67)"/><path class="cls-1" d="M545.38-225c-.48.13-.89.94-1.07,1.53-.06.18.8.92,1.17.87.54-.07,1-.62,1.86-1.2C546.43-224.44,545.79-225.15,545.38-225Z" transform="translate(642.3 430.67)"/><path class="cls-1" d="M-15.68,329.45l2.42.36.12-1.56h-2.47C-15.63,328.65-15.65,329.05-15.68,329.45Z" transform="translate(642.3 430.67)"/><path class="cls-1" d="M-339.54,192.65c-.1.2.65,1.18.87,1.13a7.59,7.59,0,0,0,2-1.15c-.71-.54-1.19-1.18-1.52-1.11A2.28,2.28,0,0,0-339.54,192.65Z" transform="translate(642.3 430.67)"/><path class="cls-1" d="M99.28-79.56a5.77,5.77,0,0,0-1.77,1c.51.46.95,1.1,1.55,1.32.3.11.88-.53,1.63-1C100.05-78.91,99.61-79.61,99.28-79.56Z" transform="translate(642.3 430.67)"/><path class="cls-1" d="M-71.26,209.91c-.55.29-1.29.82-1.32,1.3s.73,1,1.47,1.86c.45-1,.9-1.57.88-2.12C-70.25,210.57-71.12,209.83-71.26,209.91Z" transform="translate(642.3 430.67)"/><path class="cls-1" d="M-610.63-393.43a7.21,7.21,0,0,0-2.25-.92c-.33,0-.66.8-1,1.23a5.1,5.1,0,0,0,1.7.93C-611.83-392.14-611.39-392.79-610.63-393.43Z" transform="translate(642.3 430.67)"/><path class="cls-1" d="M-612.15,226.22l1,.06c.19-.83.39-1.65.59-2.48l-1.94-.12C-612.36,224.53-612.25,225.37-612.15,226.22Z" transform="translate(642.3 430.67)"/><path class="cls-1" d="M-207.91,730.33a2.45,2.45,0,0,0,1.37,1.24c.44.13,1-.31,2.09-.67-1.55-1.11-2-1.63-2.58-1.77C-207.23,729.08-208,730.09-207.91,730.33Z" transform="translate(642.3 430.67)"/><path class="cls-1" d="M-144.24,226.89c.24.56.84,1.31,1.32,1.33a1.85,1.85,0,0,0,1.34-1.26c.09-.66-.41-1.39-.83-2.61C-143.68,226.07-144.34,226.64-144.24,226.89Z" transform="translate(642.3 430.67)"/><path class="cls-1" d="M59.52-406a1.82,1.82,0,0,0,1.17-1.17c.08-.38-.5-.9-1-1.77-.63.91-1.17,1.4-1.28,2C58.32-406.67,59.19-405.91,59.52-406Z" transform="translate(642.3 430.67)"/><path class="cls-1" d="M-59.4,738.11c.06.54.78,1,1.22,1.49.47-.47,1.25-.9,1.33-1.44s-.65-1-1.3-1.95C-58.77,737.09-59.46,737.64-59.4,738.11Z" transform="translate(642.3 430.67)"/><path class="cls-1" d="M-170,309.94c-.51.41-1.31.75-1.44,1.27s.42,1.17,1,2.43c.69-1.18,1.21-1.71,1.27-2.29S-169.73,310.41-170,309.94Z" transform="translate(642.3 430.67)"/><path class="cls-1" d="M453-110.91c.38.53.7,1.42,1.16,1.49s1.19-.52,3.1-1.49c-1.3-.5-1.88-.93-2.4-.87A6.4,6.4,0,0,0,453-110.91Z" transform="translate(642.3 430.67)"/><path class="cls-1" d="M451.62,253.3c.38.36.76,1,1.15,1,.55,0,1.11-.46,2.11-.94-.9-.7-1.45-1.45-1.86-1.38S452.08,252.83,451.62,253.3Z" transform="translate(642.3 430.67)"/><path class="cls-1" d="M165.31,579a15.59,15.59,0,0,0,2.43.33,8.61,8.61,0,0,0,.29-1.48h-2.62C165.38,578.21,165.34,578.6,165.31,579Z" transform="translate(642.3 430.67)"/><path class="cls-1" d="M160.41,757c.08.52.16,1,.23,1.56l2.59-.28a7,7,0,0,0-.29-1.54A15.51,15.51,0,0,0,160.41,757Z" transform="translate(642.3 430.67)"/><path class="cls-1" d="M404.07-135.78a5.38,5.38,0,0,0-.95,1.66c-.06.31.6.74,1.23,1.44.46-1,.93-1.55.93-2.13C405.28-135.13,404.5-135.46,404.07-135.78Z" transform="translate(642.3 430.67)"/><path class="cls-1" d="M613.76-170.76c.45.29.89.78,1.36.81a6.89,6.89,0,0,0,2.11-.63l-2.33-1.84Z" transform="translate(642.3 430.67)"/><path class="cls-1" d="M-285.8-136.58a5.33,5.33,0,0,0-1.74-.86c-.28,0-1,.87-.91,1.15.18.57.78,1,1.49,1.84C-286.42-135.43-286.11-136-285.8-136.58Z" transform="translate(642.3 430.67)"/><path class="cls-1" d="M-549.59-159.6c0,.29.7.68,1.48,1.38a6.67,6.67,0,0,0,.61-2.21c0-.35-.78-.59-1.21-.88A5.46,5.46,0,0,0-549.59-159.6Z" transform="translate(642.3 430.67)"/><path class="cls-1" d="M251.47-148.93c.22.65,1,1.12,1.53,1.67.38-.54,1.05-1.08,1.05-1.62s-.67-1.07-1.24-1.88C252.19-150,251.35-149.29,251.47-148.93Z" transform="translate(642.3 430.67)"/><path class="cls-1" d="M132.8-148.94c.42.34.92,1,1.23.95a7.42,7.42,0,0,0,1.92-1.32c-.7-.59-1.37-1.32-1.51-1.23A9.91,9.91,0,0,0,132.8-148.94Z" transform="translate(642.3 430.67)"/><path class="cls-1" d="M-177.46,287.46c.35.42.75,1.21,1,1.17.57-.08,1.07-.61,1.91-1.15-.69-.56-1.18-1.21-1.46-1.13C-176.53,286.5-177,287.07-177.46,287.46Z" transform="translate(642.3 430.67)"/><path class="cls-1" d="M416.51,289.18c-.1.13.56,1.2.88,1.2.57,0,1.14-.48,1.72-.76l.6-1c-.56-.19-1.17-.61-1.68-.51A2.77,2.77,0,0,0,416.51,289.18Z" transform="translate(642.3 430.67)"/><path class="cls-1" d="M407.13,542.47a14.79,14.79,0,0,0,.54,2.42l1.42-.35c-.18-.86-.36-1.72-.55-2.59C408.05,542.13,407.12,542.33,407.13,542.47Z" transform="translate(642.3 430.67)"/><path class="cls-1" d="M-613.19-155.57c.1-.5-.59-1.16-1.18-2.16-.64.89-1.23,1.38-1.32,2-.07.37.67,1.27.88,1.22C-614.19-154.69-613.27-155.12-613.19-155.57Z" transform="translate(642.3 430.67)"/><path class="cls-1" d="M82.18-159.55a6.07,6.07,0,0,0-1.9.57c.22.49.34,1.28.68,1.39a6.78,6.78,0,0,0,2.32-.28C82.74-158.74,82.48-159.54,82.18-159.55Z" transform="translate(642.3 430.67)"/><path class="cls-1" d="M-320.25-151.33c0,.36.7,1.06,1,1s.81-.67,1.46-1.28c-.69-.47-1.22-1.08-1.52-1A1.64,1.64,0,0,0-320.25-151.33Z" transform="translate(642.3 430.67)"/><path class="cls-1" d="M2.83,549.84c-.15.56-.52,1.2-.39,1.69s.78,1,1.19,1.55c.37-.4,1-.77,1-1.22s-.48-.88-.76-1.33Z" transform="translate(642.3 430.67)"/><path class="cls-1" d="M-427.56-176.15l-2.33-.61-.33,1.65h2.52C-427.65-175.46-427.61-175.8-427.56-176.15Z" transform="translate(642.3 430.67)"/><path class="cls-1" d="M512-180.82a12,12,0,0,0-1.94-1c-.11,0-.52.85-.79,1.32l2.22,1Z" transform="translate(642.3 430.67)"/><path class="cls-1" d="M-72.95-181.7c-.41-.35-.93-1.06-1.21-1-.55.16-1,.77-1.74,1.49.8.45,1.4,1,1.64.87A5.46,5.46,0,0,0-72.95-181.7Z" transform="translate(642.3 430.67)"/><path class="cls-1" d="M-117.09,579c.1,1.26.17,2.13.31,4C-114.56,580.75-114.64,579.81-117.09,579Z" transform="translate(642.3 430.67)"/><path class="cls-1" d="M257.19-110.88a4.75,4.75,0,0,0-1.22,1.57c0,.08.66.79.83.72a11.93,11.93,0,0,0,2-1.3C258-110.4,257.33-111,257.19-110.88Z" transform="translate(642.3 430.67)"/><path class="cls-1" d="M181.75-96.3c-.82-.42-1.36-.92-1.68-.8s-.68.78-1,1.21c.41.3.84.86,1.24.84S181.05-95.66,181.75-96.3Z" transform="translate(642.3 430.67)"/><path class="cls-1" d="M287.51-200.25c-1.7-.92-2.19-1.4-2.6-1.35s-.84.62-1.26,1c.5.43.94,1.07,1.51,1.22S286.25-199.77,287.51-200.25Z" transform="translate(642.3 430.67)"/><path class="cls-1" d="M603.49-202.28c-.77-.53-1.34-1.15-1.6-1.05-.53.22-.89.84-1.32,1.3.45.26.9.73,1.35.73S602.75-201.79,603.49-202.28Z" transform="translate(642.3 430.67)"/><path class="cls-1" d="M472.78-80.32c-.61-.57-1.13-1.32-1.37-1.24-.57.19-1,.78-1.49,1.21.49.4.93,1,1.49,1.13C471.69-79.14,472.19-79.82,472.78-80.32Z" transform="translate(642.3 430.67)"/><path class="cls-1" d="M388,492.52c-.08.12.54,1.05.91,1.11a4.9,4.9,0,0,0,1.81-.4c.24-.4.48-.8.73-1.2a5.14,5.14,0,0,0-2-.69C388.9,491.38,388.35,492,388,492.52Z" transform="translate(642.3 430.67)"/><path class="cls-1" d="M220.2,492.1l-2.35-2.92C216.71,492.59,217.6,493.05,220.2,492.1Z" transform="translate(642.3 430.67)"/><path class="cls-1" d="M-399.19-74.69l-2.5-.37c-.07.53-.15,1-.22,1.58a21,21,0,0,0,2.51,0C-399.28-73.55-399.26-74.29-399.19-74.69Z" transform="translate(642.3 430.67)"/><path class="cls-1" d="M26.21,611.17c0,.4.63.76,1.16,1.34l1.26-1.59A6.13,6.13,0,0,0,27,610C26.84,609.92,26.19,610.76,26.21,611.17Z" transform="translate(642.3 430.67)"/><path class="cls-1" d="M-371.63-252.63c-.45,0-.86.62-1.28,1l1.31,1.44,1.44-1.33C-370.81-252.06-371.24-252.66-371.63-252.63Z" transform="translate(642.3 430.67)"/><path class="cls-1" d="M523.19,449.73c.44.33.86.89,1.31.9s.77-.62,1.46-1.24c-.83-.45-1.37-1-1.73-.89S523.53,449.3,523.19,449.73Z" transform="translate(642.3 430.67)"/><path class="cls-1" d="M-597.82-259l-1.64-1.12c-.28.44-.8.91-.76,1.31s.64.8,1.18,1.4Z" transform="translate(642.3 430.67)"/><path class="cls-1" d="M481.39,444.61a3.27,3.27,0,0,0-1.52,1.21c-.1.15.61.83,1.17,1.56.61-.71,1.19-1.14,1.37-1.7C482.49,445.43,481.61,444.54,481.39,444.61Z" transform="translate(642.3 430.67)"/><path class="cls-1" d="M511.19,436.65c.56,0,1.11-.52,2.12-1-.85-.55-1.34-1.1-1.68-1a5.3,5.3,0,0,0-1.58,1C510.43,436,510.82,436.66,511.19,436.65Z" transform="translate(642.3 430.67)"/><path class="cls-1" d="M-530.69-15.13a9.31,9.31,0,0,0-1.53.26,17.69,17.69,0,0,0,.31,2.48l1.49-.2Z" transform="translate(642.3 430.67)"/><path class="cls-1" d="M360.57,423.65a7.56,7.56,0,0,0,1.61,1.08c.15,0,.83-.72.86-1.14a6.27,6.27,0,0,0-.63-2Z" transform="translate(642.3 430.67)"/><path class="cls-1" d="M231.35,421.71c-.07.24.87,1.12,1.11,1,.56-.21,1-.81,1.69-1.47-.75-.56-1.46-1.25-1.59-1.15A3.35,3.35,0,0,0,231.35,421.71Z" transform="translate(642.3 430.67)"/><path class="cls-1" d="M11.31,10.23c.06.5.11,1,.17,1.51L14,11.41a10.66,10.66,0,0,0-.2-1.43A19.55,19.55,0,0,0,11.31,10.23Z" transform="translate(642.3 430.67)"/><path class="cls-1" d="M-433.56,15.94c-.13.11-.13.36-.28.82l4.23-.2C-431.54,14.29-432.56,15.12-433.56,15.94Z" transform="translate(642.3 430.67)"/><path class="cls-1" d="M476,650.6c-.11.43.31,1,.84,2.45.71-1.46,1.19-2,1.13-2.42a7.55,7.55,0,0,0-.87-2A8,8,0,0,0,476,650.6Z" transform="translate(642.3 430.67)"/><path class="cls-1" d="M-298.56,652.19c-.59.17-1.44.73-1.47,1.17s.69,1.11,1.32,2a7.6,7.6,0,0,0,1.2-2.12C-297.46,652.93-298.32,652.11-298.56,652.19Z" transform="translate(642.3 430.67)"/><path class="cls-1" d="M-631.18,47.2a6.62,6.62,0,0,0,1.57,1.07c.17.06.84-.72.89-1.16a5.76,5.76,0,0,0-.56-2Z" transform="translate(642.3 430.67)"/><path class="cls-1" d="M-622.61,665.72c0,.38.71.7,1.09,1l1.27-1.58c-.7-.36-1.28-.88-1.57-.76A1.58,1.58,0,0,0-622.61,665.72Z" transform="translate(642.3 430.67)"/><path class="cls-1" d="M470.44,54.46c.3.1.85-.49,1.64-1-.76-.5-1.18-1-1.59-1s-.89.49-1.34.76C469.57,53.65,469.93,54.27,470.44,54.46Z" transform="translate(642.3 430.67)"/><path class="cls-1" d="M-589.65,68.54a2.39,2.39,0,0,0-1.17,1.35c-.07.24.86,1.1,1.1,1,.55-.21,1-.81,1.74-1.55C-588.78,68.94-589.37,68.41-589.65,68.54Z" transform="translate(642.3 430.67)"/><path class="cls-1" d="M568.11-339.5c0,.35.64.69,1.2,1.21l1.17-1.44a5.92,5.92,0,0,0-1.56-1C568.74-340.75,568.1-339.92,568.11-339.5Z" transform="translate(642.3 430.67)"/><path class="cls-1" d="M164.47,97.41a8.77,8.77,0,0,0-1.07-.12l-.18,2.27,1.11,0A19.78,19.78,0,0,0,164.47,97.41Z" transform="translate(642.3 430.67)"/><path class="cls-1" d="M-569.51-351.33c-.07.36.44.83.69,1.26a5.2,5.2,0,0,0,1.49-1c.12-.2-.49-.88-.94-1.63C-568.86-352.11-569.43-351.76-569.51-351.33Z" transform="translate(642.3 430.67)"/><path class="cls-1" d="M-126.23,120.38l1.84.67.54-2.1-1.05-.5C-125.34,119.09-125.79,119.73-126.23,120.38Z" transform="translate(642.3 430.67)"/><path class="cls-1" d="M522.49,126l-2.06-1.2-.75,1.93,2.46.59C522.25,126.85,522.37,126.41,522.49,126Z" transform="translate(642.3 430.67)"/><path class="cls-1" d="M444.2,138.32c-.93-.33-1.45-.7-1.87-.6s-.82.63-1.22,1c.52.34,1,.88,1.56,1C443,139.7,443.43,139,444.2,138.32Z" transform="translate(642.3 430.67)"/><path class="cls-1" d="M19,142.36c.51.41,1,1.12,1.53,1.14s.91-.77,1.65-1.46c-.77-.51-1.34-1.11-1.61-1A6.64,6.64,0,0,0,19,142.36Z" transform="translate(642.3 430.67)"/><path class="cls-1" d="M481.32,708.62c-.09.31.52.81,1.08,1.61.46-.86.91-1.32.88-1.74s-.53-.87-.82-1.31C482.06,707.66,481.48,708.08,481.32,708.62Z" transform="translate(642.3 430.67)"/><path class="cls-1" d="M-400.59,146.09a12,12,0,0,0,.76,2.35c.7-.77,1.41-1.27,1.33-1.53a5.54,5.54,0,0,0-1.15-1.59C-400,145.58-400.61,145.87-400.59,146.09Z" transform="translate(642.3 430.67)"/><path class="cls-1" d="M86.28,143,85,144.58l1.54,1.18c.3-.42.87-.85.84-1.25S86.8,143.66,86.28,143Z" transform="translate(642.3 430.67)"/><path class="cls-1" d="M226.16,148.31a5.2,5.2,0,0,0-1.54,1.08c.41.34.79.9,1.23,1s.91-.42,1.7-.83C226.9,148.93,226.43,148.24,226.16,148.31Z" transform="translate(642.3 430.67)"/><path class="cls-1" d="M-380.85,165.12a5.54,5.54,0,0,0,1.73.52c.49,0,.95-.45,2.21-1.11C-379,163.44-380.11,163.08-380.85,165.12Z" transform="translate(642.3 430.67)"/><path class="cls-1" d="M67.59,336.55a2.31,2.31,0,0,0,1.3,1.35c.46.14,1.1-.35,2.22-.77-1.57-1.13-2-1.64-2.63-1.79C68.28,335.29,67.49,336.26,67.59,336.55Z" transform="translate(642.3 430.67)"/><path class="cls-1" d="M145.48,725.25c-.1-.54-.73-1-1.13-1.46-.37.39-1,.75-1,1.18s.44.94,1.22,2.38C145.05,726.29,145.57,725.71,145.48,725.25Z" transform="translate(642.3 430.67)"/><path class="cls-1" d="M-7.1,202.48c-.21.48-.67,1-.56,1.42a1.84,1.84,0,0,0,1.23,1,5.08,5.08,0,0,0,1.75-.32l-.78-1.19Z" transform="translate(642.3 430.67)"/><path class="cls-1" d="M-79.29,321.38l-.9-.56c-.53.68-1.06,1.36-1.58,2.05a9.11,9.11,0,0,0,1.31.65A18.42,18.42,0,0,0-79.29,321.38Z" transform="translate(642.3 430.67)"/><path class="cls-1" d="M-286.12,231.41a5.55,5.55,0,0,0,1.45,1.25c.3-.43.89-.88.84-1.27s-.64-.85-1.19-1.5C-285.53,230.57-286.23,231.23-286.12,231.41Z" transform="translate(642.3 430.67)"/><path class="cls-1" d="M209.77,231.48c0-.33-.82-1.08-1-1-.57.2-1.36.72-1.41,1.19s.7,1,1.41,1.88C209.24,232.6,209.73,232.05,209.77,231.48Z" transform="translate(642.3 430.67)"/><path class="cls-1" d="M327.18,233.75c0,.36.73.75,1.13,1.13a5.56,5.56,0,0,0,1.12-1.59c.08-.29-.56-.78-1.13-1.52C327.75,232.67,327.2,233.2,327.18,233.75Z" transform="translate(642.3 430.67)"/><path class="cls-1" d="M280.51,254.57c.28.07.75-.57,1.4-1.11-.81-.56-1.29-1.1-1.85-1.19-.26-.05-1,1-.93,1.18A2.48,2.48,0,0,0,280.51,254.57Z" transform="translate(642.3 430.67)"/><path class="cls-1" d="M-445.86-416.9a12.08,12.08,0,0,0-1.21-1.83c-.1-.12-.75.25-1.15.39.4.74.79,1.48,1.19,2.21Z" transform="translate(642.3 430.67)"/><path class="cls-1" d="M-397,266c-.41.7-1,1.28-.86,1.56.22.53.85.89,1.31,1.32a5.38,5.38,0,0,0,1-1.66C-395.55,267-396.33,266.59-397,266Z" transform="translate(642.3 430.67)"/><path class="cls-1" d="M547.24,275.22A5.64,5.64,0,0,0,549,276c.3,0,.69-.67,1.44-1.47-1.1-.33-1.74-.73-2.27-.62S547.56,274.77,547.24,275.22Z" transform="translate(642.3 430.67)"/><path class="cls-1" d="M529.21,291.72c.23.49.36,1.16.75,1.42s.95-.12,1.91-.29c-.55-.84-.77-1.54-1.14-1.63S529.72,291.53,529.21,291.72Z" transform="translate(642.3 430.67)"/><path class="cls-1" d="M-86.09,280.47l-3.22.21C-88,282.82-87,282.82-86.09,280.47Z" transform="translate(642.3 430.67)"/><path class="cls-1" d="M551.15-427.75a5.31,5.31,0,0,0,1.13-1.48c.08-.27-.6-.76-1.18-1.44-.54.83-1.08,1.33-1.13,1.88C550-428.48,550.73-428.1,551.15-427.75Z" transform="translate(642.3 430.67)"/><path class="cls-1" d="M238.06,281.47c-.07.34.68,1.25.94,1.2a5.53,5.53,0,0,0,1.74-1l-1.26-2C238.8,280.48,238.18,280.92,238.06,281.47Z" transform="translate(642.3 430.67)"/><path class="cls-1" d="M301.32,734.14c.27.8.55,1.6.83,2.39a7.94,7.94,0,0,0,1.44-.57,15.09,15.09,0,0,0-.78-2.29Z" transform="translate(642.3 430.67)"/><path class="cls-1" d="M521.77,720.24c-.09.37.38.88.79,1.71.61-.69,1.2-1.06,1.19-1.42s-.54-.83-.84-1.24C522.51,719.6,521.87,719.85,521.77,720.24Z" transform="translate(642.3 430.67)"/><path class="cls-1" d="M122,715.29a1.44,1.44,0,0,0,1.15.86c.41,0,.8-.59,1.5-1.18-.83-.43-1.35-.92-1.77-.85A1.47,1.47,0,0,0,122,715.29Z" transform="translate(642.3 430.67)"/><path class="cls-1" d="M397.67,690.71a2.6,2.6,0,0,0,1,1.11c.1.07.58-.44,1.14-.89a5.39,5.39,0,0,0-1.34-1C398.26,689.91,397.61,690.59,397.67,690.71Z" transform="translate(642.3 430.67)"/><path class="cls-1" d="M337.16,690.48c.44.34.88.93,1.32.93s.79-.64,1.54-1.31c-.88-.41-1.41-.88-1.81-.78S337.51,690.07,337.16,690.48Z" transform="translate(642.3 430.67)"/><path class="cls-1" d="M277.43,678.25c-.33-.07-1.09.52-1.15.89s.37,1.07.63,1.72c1-.92,1.57-1.33,1.52-1.43C278.2,679,277.85,678.33,277.43,678.25Z" transform="translate(642.3 430.67)"/><path class="cls-1" d="M-74.29,670.69c0,.46.58.88.91,1.32.44-.44,1.07-.82,1.24-1.35.1-.29-.6-.83-1.17-1.54C-73.78,669.82-74.32,670.28-74.29,670.69Z" transform="translate(642.3 430.67)"/><path class="cls-1" d="M443.07,652.53c.37.38.71,1,1.12,1.06s.83-.51,1.73-1.15a7.31,7.31,0,0,0-2-.68C443.64,651.76,443.36,652.26,443.07,652.53Z" transform="translate(642.3 430.67)"/><path class="cls-1" d="M-73.3,634.85c.46.3.92.83,1.37.82s.82-.6,1.5-1.15c-.7-.52-1.31-1.18-1.51-1.07A6.26,6.26,0,0,0-73.3,634.85Z" transform="translate(642.3 430.67)"/><path class="cls-1" d="M-501.62-375.27a1.51,1.51,0,0,0,1,1.08c.4,0,.83-.59,1.5-1.12-.66-.48-1.11-1.05-1.51-1A1.46,1.46,0,0,0-501.62-375.27Z" transform="translate(642.3 430.67)"/><path class="cls-1" d="M-421.13,617.87a4.84,4.84,0,0,0,.82,1.68c.43-.27,1.18-.5,1.22-.82a7.71,7.71,0,0,0-.58-2.3C-420.45,617.17-421.15,617.55-421.13,617.87Z" transform="translate(642.3 430.67)"/><path class="cls-1" d="M339.27,616.08c-.31.42-.83.83-.85,1.25s.55.77,1.13,1.48c.46-.85.95-1.37.87-1.76S339.67,616.4,339.27,616.08Z" transform="translate(642.3 430.67)"/><path class="cls-1" d="M-2.87,615.16a1.55,1.55,0,0,0,1.23.84c.39,0,.72-.71,1.07-1.1L-2,613.64C-2.43,614.34-3,614.89-2.87,615.16Z" transform="translate(642.3 430.67)"/><path class="cls-1" d="M-362,601.87a1.4,1.4,0,0,0-1.07.93,1.45,1.45,0,0,0,.83,1.17c.34.1.85-.4,1.56-.78C-361.33,602.55-361.66,601.92-362,601.87Z" transform="translate(642.3 430.67)"/><path class="cls-1" d="M-206.51,601.54a7,7,0,0,0,.65,2.06l1.77-2.28a6.19,6.19,0,0,0-1.61-1C-205.87,600.32-206.48,601.11-206.51,601.54Z" transform="translate(642.3 430.67)"/><path class="cls-1" d="M190.14,584c-.3.43-.85.86-.84,1.28s.59.84,1.23,1.67c.39-.95.82-1.49.72-1.91S190.53,584.29,190.14,584Z" transform="translate(642.3 430.67)"/><path class="cls-1" d="M-145.82,568.15c.08.4.68.7,1.29,1.26.41-.71,1-1.4.86-1.55a5.2,5.2,0,0,0-1.5-1C-145.4,567.28-145.89,567.77-145.82,568.15Z" transform="translate(642.3 430.67)"/><path class="cls-1" d="M-206.39,562.7c.8.22,1.61.37,2.42.53,0-.54,0-1.09,0-1.63-.8.1-1.6.19-2.39.35A1.6,1.6,0,0,0-206.39,562.7Z" transform="translate(642.3 430.67)"/><path class="cls-1" d="M-274.46,562.58a6.32,6.32,0,0,0-1.63,1l1.74,2.1c.37-.89.79-1.44.77-2S-274.27,562.52-274.46,562.58Z" transform="translate(642.3 430.67)"/><path class="cls-1" d="M-129.43,543.86c-.33.43-.91.85-.91,1.28s.63.77,1.28,1.48c.4-.81.87-1.34.77-1.7S-129,544.21-129.43,543.86Z" transform="translate(642.3 430.67)"/><path class="cls-1" d="M-93.58,523.06l-2.09.13c0,.28,0,.56,0,.83l2.15.19C-93.57,523.83-93.58,523.44-93.58,523.06Z" transform="translate(642.3 430.67)"/><path class="cls-1" d="M-522.73-338.9c.5.41.94,1,1.51,1.16.25.08.75-.63,1.48-1.27-.83-.42-1.32-.88-1.74-.82S-522.31-339.23-522.73-338.9Z" transform="translate(642.3 430.67)"/><path class="cls-1" d="M-168.66,490.35c-.42.7-1,1.26-.86,1.52a1.64,1.64,0,0,0,1.25.85c.36,0,1-.73,1-1.06S-168,491-168.66,490.35Z" transform="translate(642.3 430.67)"/><path class="cls-1" d="M56.31,483.43c.42.33.85.95,1.24.93s.78-.67,1.52-1.38c-.85-.35-1.37-.78-1.76-.68S56.64,483,56.31,483.43Z" transform="translate(642.3 430.67)"/><path class="cls-1" d="M-593,482.56l.24,1.26,2.48-.51a5.91,5.91,0,0,0-.34-1.13A21.42,21.42,0,0,0-593,482.56Z" transform="translate(642.3 430.67)"/><path class="cls-1" d="M-268.62,459.72a1.66,1.66,0,0,0-1.24.87c-.11.3.45.84.91,1.6.6-.64,1.2-1,1.2-1.37S-268.31,459.71-268.62,459.72Z" transform="translate(642.3 430.67)"/><path class="cls-1" d="M24,451.65c.11.42.77.7,1.18,1,.3-.44.84-.88.84-1.32s-.58-.8-1.2-1.55C24.43,450.71,24,451.25,24,451.65Z" transform="translate(642.3 430.67)"/><path class="cls-1" d="M114.64,441.27c0,.44.64.87,1,1.3l1.85-1.71c-.88-.38-1.41-.81-1.78-.7S114.62,440.89,114.64,441.27Z" transform="translate(642.3 430.67)"/><path class="cls-1" d="M-413.43,425.41c-.42,0-1.24.7-1.19.85a6.34,6.34,0,0,0,1.06,1.58l1.34-1.22C-412.73,426.08-413.08,425.42-413.43,425.41Z" transform="translate(642.3 430.67)"/><path class="cls-1" d="M-142-302.36c-.15.31.33,1.3.59,1.33a5.06,5.06,0,0,0,1.81-.49l.66-1.13a5.36,5.36,0,0,0-1.67-.46A1.93,1.93,0,0,0-142-302.36Z" transform="translate(642.3 430.67)"/><path class="cls-1" d="M-298.89-285.48a1.57,1.57,0,0,0,1.2-.87c.12-.3-.39-.84-.78-1.57-.68.61-1.38.95-1.38,1.31A1.48,1.48,0,0,0-298.89-285.48Z" transform="translate(642.3 430.67)"/><path class="cls-1" d="M340-281.21c.47.21,1,.61,1.4.55s.76-.58,1.45-1.16c-.85-.43-1.49-1-1.73-.83C340.66-282.37,340.39-281.71,340-281.21Z" transform="translate(642.3 430.67)"/><path class="cls-1" d="M50.83,355.29c.38.18.81.57,1.14.49s.8-.55,1.71-1.23c-1.12-.33-1.71-.72-2.08-.56S51.08,354.83,50.83,355.29Z" transform="translate(642.3 430.67)"/><path class="cls-1" d="M34,317.91c-.12-.43-.93-1.1-1.13-1a5.32,5.32,0,0,0-1.3,1.33l1.47,1.1C33.46,318.72,34.06,318.22,34,317.91Z" transform="translate(642.3 430.67)"/><path class="cls-1" d="M427.93,313.19c-.42,0-.86.57-1.52,1.08.66.5,1.1,1.11,1.5,1.08a1.53,1.53,0,0,0,1-1.1A1.46,1.46,0,0,0,427.93,313.19Z" transform="translate(642.3 430.67)"/><path class="cls-1" d="M512.93-244.76l1.06-.67c.13-.49.5-1.08.34-1.46s-.82-.62-1.25-.92c-.24.46-.65.91-.66,1.36A5.65,5.65,0,0,0,512.93-244.76Z" transform="translate(642.3 430.67)"/><path class="cls-1" d="M-437.21-246a1.39,1.39,0,0,0-1.07.89,1.5,1.5,0,0,0,.87,1.17c.36.1.89-.37,1.68-.74C-436.42-245.33-436.77-245.93-437.21-246Z" transform="translate(642.3 430.67)"/><path class="cls-1" d="M-101.23,296.34c-.46,0-1,.41-1.44.65a5.39,5.39,0,0,0,1.14,1.48c.22.13.88-.46,1.69-.93C-100.49,297-100.84,296.37-101.23,296.34Z" transform="translate(642.3 430.67)"/><path class="cls-1" d="M133.87-238.31c.38,0,.76-.57,1.45-1.15-.82-.47-1.35-1-1.7-.9a1.61,1.61,0,0,0-.89,1.23C132.71-238.87,133.47-238.31,133.87-238.31Z" transform="translate(642.3 430.67)"/><path class="cls-1" d="M313.29-234.19c.37.37.7,1,1.11,1s.88-.47,1.32-.74l-1.07-1.6Z" transform="translate(642.3 430.67)"/><path class="cls-1" d="M58.7,284.12a6,6,0,0,0,1,1.62l2.1-1.81a6.16,6.16,0,0,0-2-.68C59.4,283.27,58.65,283.92,58.7,284.12Z" transform="translate(642.3 430.67)"/><path class="cls-1" d="M494.17,282.4a1.59,1.59,0,0,0,1.11,1.05c.28.05,1-.62,1-1s-.5-.85-1-1.54C494.76,281.59,494.13,282,494.17,282.4Z" transform="translate(642.3 430.67)"/><path class="cls-1" d="M102,280.1a5.8,5.8,0,0,0,1.41.83c.17,0,.52-.54,1.09-1.15a5.6,5.6,0,0,0-1.7-.55C102.55,279.25,102.3,279.79,102,280.1Z" transform="translate(642.3 430.67)"/><path class="cls-1" d="M433.79,276.65a5.35,5.35,0,0,0-1.51,1.18c.34.39.71,1.1,1,1.09.55,0,1.08-.52,1.95-1C434.55,277.28,434,276.57,433.79,276.65Z" transform="translate(642.3 430.67)"/><path class="cls-1" d="M-445.83-226.95c0,.42.61.84,1.09,1.42l1.4-1.31c-.47-.39-.9-1-1.44-1.1C-445-228-445.84-227.3-445.83-226.95Z" transform="translate(642.3 430.67)"/><path class="cls-1" d="M247.84,269.1c-.06.15.71.95,1.14,1s.82-.57,1.43-1l-1.32-1.44A6.69,6.69,0,0,0,247.84,269.1Z" transform="translate(642.3 430.67)"/><path class="cls-1" d="M-588.65,257.12c.38.37.74,1,1.14,1.05s.91-.51,1.72-1c-.79-.57-1.26-1.17-1.68-1.13S-588.26,256.73-588.65,257.12Z" transform="translate(642.3 430.67)"/><path class="cls-1" d="M-483.77-214.15a5,5,0,0,0,1.07,1.5c.43-.35,1.25-.75,1.22-1-.08-.57-.62-1.09-1.2-2C-483.22-214.95-483.84-214.47-483.77-214.15Z" transform="translate(642.3 430.67)"/><path class="cls-1" d="M-607.58-210.63c-.4-.35-.81-1-1.21-1a1.55,1.55,0,0,0-1.14,1c-.05.33.6.78,1.1,1.37C-608.29-209.84-607.94-210.24-607.58-210.63Z" transform="translate(642.3 430.67)"/><path class="cls-1" d="M-299.07,231.21c-.08.4-.25.85-.11,1.16a2.29,2.29,0,0,0,1.1,1.07c.21.09,1-.45.95-.59a2.71,2.71,0,0,0-.73-1.39C-298.13,231.22-298.64,231.26-299.07,231.21Z" transform="translate(642.3 430.67)"/><path class="cls-1" d="M-299.14,231.2h.07l0-.13Z" transform="translate(642.3 430.67)"/><path class="cls-1" d="M-369.15,228.72c.66.46,1.19,1,1.33.89a5.56,5.56,0,0,0,1.06-1.19c-.33-.25-.72-.76-1-.7C-368.19,227.82-368.56,228.27-369.15,228.72Z" transform="translate(642.3 430.67)"/><path class="cls-1" d="M-474.1-194.72c.44.44.87.89,1.3,1.33l1.3-1.4c-.61-.44-1.07-1-1.43-1S-473.71-195.09-474.1-194.72Z" transform="translate(642.3 430.67)"/><path class="cls-1" d="M334.91,216.9c.28.44.69,1,1.14,1.06.27,0,.92-.61,1-1a6.42,6.42,0,0,0-.4-2C335.4,216.31,334.85,216.8,334.91,216.9Z" transform="translate(642.3 430.67)"/><path class="cls-1" d="M-434.55-186c-.66-.47-1.05-.91-1.51-1-.24-.05-.6.51-.92.79a4.89,4.89,0,0,0,1.13,1.06C-435.66-185-435.21-185.52-434.55-186Z" transform="translate(642.3 430.67)"/><path class="cls-1" d="M188,215.61c.42.31.81.82,1.26.88s1-.31,2.31-.75c-1.75-.91-2.27-1.4-2.61-1.29S188.27,215.2,188,215.61Z" transform="translate(642.3 430.67)"/><path class="cls-1" d="M-405.2,211.69c2.14,1.17,3,.76,3.65-.39l-.47-1.08Z" transform="translate(642.3 430.67)"/><path class="cls-1" d="M-615.53-176.83a1.56,1.56,0,0,0-.74.81,6.7,6.7,0,0,0,.52,1.89c.74-.85,1.37-1.27,1.34-1.65S-615.08-176.56-615.53-176.83Z" transform="translate(642.3 430.67)"/><path class="cls-1" d="M483.68-176.5c.4.37.77,1,1.2,1s.88-.53,1.63-1c-.74-.55-1.22-1.17-1.61-1.12S484.08-176.9,483.68-176.5Z" transform="translate(642.3 430.67)"/><path class="cls-1" d="M-399.36,200.22c-.49,0-1,.39-1.49.62.26.44.48,1.2.8,1.25a7.41,7.41,0,0,0,2.36-.64C-398.57,200.77-399,200.24-399.36,200.22Z" transform="translate(642.3 430.67)"/><path class="cls-1" d="M179.63,196.6l-2.23-.94c-.16.42-.32.83-.47,1.25a10.1,10.1,0,0,0,1.91,1C179,197.92,179.36,197.05,179.63,196.6Z" transform="translate(642.3 430.67)"/><path class="cls-1" d="M-197.58,195.57c-.44.06-.83.57-1.24.88.48.37.92.93,1.45,1.06.31.07.79-.55,1.58-1.16C-196.67,195.94-197.16,195.52-197.58,195.57Z" transform="translate(642.3 430.67)"/><path class="cls-1" d="M594.93,191.85c.08.42.72.73,1.33,1.28l1.15-1.49a5.57,5.57,0,0,0-1.65-.93C595.55,190.67,594.87,191.52,594.93,191.85Z" transform="translate(642.3 430.67)"/><path class="cls-1" d="M-25.87-169.7v1.23c.76-.05,1.52-.07,2.26-.19a9.75,9.75,0,0,0-.05-1.16Z" transform="translate(642.3 430.67)"/><path class="cls-1" d="M-50.37,174.54c.38.35.74.94,1.15,1s.87-.49,1.65-1c-.77-.53-1.24-1.1-1.62-1.05S-50,174.16-50.37,174.54Z" transform="translate(642.3 430.67)"/><path class="cls-1" d="M217.1,164.65c.09-.18-.61-.75-1.15-1.38-.51.65-1.11,1.08-1.08,1.46s.6.85.94,1.27A5.65,5.65,0,0,0,217.1,164.65Z" transform="translate(642.3 430.67)"/><path class="cls-1" d="M327,150.35c-.29.5-.68.87-.63,1.18s.49.66.76,1a5,5,0,0,0,.84-1.26C328.06,151.1,327.47,150.74,327,150.35Z" transform="translate(642.3 430.67)"/><path class="cls-1" d="M-442.71,151.47c0,.26.7.66,1.09,1,.33-.41.87-.78.94-1.23s-.38-.9-.84-1.83A7.6,7.6,0,0,0-442.71,151.47Z" transform="translate(642.3 430.67)"/><path class="cls-1" d="M75.87-147.79c-.85-.66-1.3-1.26-1.66-1.21s-.83.66-1,1.12c-.07.17.51.85.8.86C74.45-147,74.92-147.37,75.87-147.79Z" transform="translate(642.3 430.67)"/><path class="cls-1" d="M-170.36,129.16l-.82,0-.33,2.22,1.54,0Z" transform="translate(642.3 430.67)"/><path class="cls-1" d="M-551.84,131.48c-.07.19.52.89.75.86a5,5,0,0,0,1.44-.68l-1-1.72A6.93,6.93,0,0,0-551.84,131.48Z" transform="translate(642.3 430.67)"/><path class="cls-1" d="M143.14,125.39a7.1,7.1,0,0,0-1-1.72c-.47.8-1,1.31-.93,1.68s.75.72,1.23.88C142.56,126.27,143.19,125.62,143.14,125.39Z" transform="translate(642.3 430.67)"/><path class="cls-1" d="M259,104.49a5.14,5.14,0,0,0-1.21,1.42c.45.24.91.69,1.35.67s.78-.55,1.47-1.09C259.87,105,259.24,104.37,259,104.49Z" transform="translate(642.3 430.67)"/><path class="cls-1" d="M-111.5,101.57c-.14-.07-.8.49-.82.8a6.23,6.23,0,0,0,.61,1.92c.72-.86,1.34-1.28,1.34-1.7S-111,101.79-111.5,101.57Z" transform="translate(642.3 430.67)"/><path class="cls-1" d="M-6,87.53c.1.57.65,1,1,1.57.4-.36,1.15-.73,1.14-1.06,0-.59-.54-1.16-1.06-2.13C-5.44,86.7-6,87.18-6,87.53Z" transform="translate(642.3 430.67)"/><path class="cls-1" d="M2.89,70.46a5.26,5.26,0,0,0,1.32-.82L3.06,68c-.46.78-.85,1.18-.89,1.61C2.15,69.89,2.73,70.5,2.89,70.46Z" transform="translate(642.3 430.67)"/><path class="cls-1" d="M512.48-94.76c.43.36,1,1.07,1.27,1,.57-.16,1-.78,1.88-1.52-.9-.45-1.51-1-1.8-.86C513.28-95.9,512.92-95.24,512.48-94.76Z" transform="translate(642.3 430.67)"/><path class="cls-1" d="M105.44,57.52c-.59.77-1.22,1.24-1.17,1.62s.72.8,1.11,1.2c.37-.39,1-.74,1-1.17S105.92,58.3,105.44,57.52Z" transform="translate(642.3 430.67)"/><path class="cls-1" d="M-90.75-89.62c-.45.2-1.08.6-1.11,1s.55.82,1.19,1.67A7,7,0,0,0-90-88.86C-90-89.13-90.61-89.69-90.75-89.62Z" transform="translate(642.3 430.67)"/><path class="cls-1" d="M-48.29-89.07A3.48,3.48,0,0,0-49.83-90c-.15,0-.78.66-.71.79a12.12,12.12,0,0,0,1.33,1.82C-48.74-88.22-48.17-88.93-48.29-89.07Z" transform="translate(642.3 430.67)"/><path class="cls-1" d="M149.74,45.35c.07.45.7.81,1.09,1.21.34-.38.94-.74,1-1.14s-.48-.9-1-1.72C150.26,44.49,149.68,45,149.74,45.35Z" transform="translate(642.3 430.67)"/><path class="cls-1" d="M166.52-72.17c-.39,0-.83.53-1.25.83.33.42.59,1,1,1.19s.91-.33,1.77-.71C167.31-71.53,166.94-72.13,166.52-72.17Z" transform="translate(642.3 430.67)"/><path class="cls-1" d="M592.22,16.52c.25.45.61,1,1,1.13s.78-.52,1.6-1.12a6.58,6.58,0,0,0-1.86-.75C592.73,15.77,592.17,16.43,592.22,16.52Z" transform="translate(642.3 430.67)"/><path class="cls-1" d="M-611.87-45.28c-.66-.83-.9-1.37-1.31-1.58a1.41,1.41,0,0,0-1.14.3c0,.5,0,1.25.33,1.47S-613-45.15-611.87-45.28Z" transform="translate(642.3 430.67)"/><path class="cls-1" d="M20.47-27.48l.07,0c0-.06,0-.12.07-.18Z" transform="translate(642.3 430.67)"/><path class="cls-1" d="M21.37-25.28c.28.05.72-.73,1.09-1.13l-1.92-1C20.12-26.47,20-25.55,21.37-25.28Z" transform="translate(642.3 430.67)"/><path class="cls-1" d="M-537.52-32.48a2.93,2.93,0,0,0-1.28.92c-.07.1.42.65,1.4,2.09a8.91,8.91,0,0,0,.64-2.11C-536.76-31.9-537.36-32.53-537.52-32.48Z" transform="translate(642.3 430.67)"/><path class="cls-1" d="M-70.69-25.76l1.1,1,.84-1c-.43-.35-.76-.82-1.07-.82S-70.4-26-70.69-25.76Z" transform="translate(642.3 430.67)"/><path class="cls-1" d="M-326.93-54c.44.63.68,1.26.9,1.25a4.49,4.49,0,0,0,1.44-.58c-.19-.34-.34-.93-.58-1A6.13,6.13,0,0,0-326.93-54Z" transform="translate(642.3 430.67)"/><path class="cls-1" d="M-558.31-54.28c.06.38.66.67,1,1,.3-.39.84-.77.84-1.16s-.5-.83-1.06-1.64C-557.94-55.17-558.38-54.68-558.31-54.28Z" transform="translate(642.3 430.67)"/><path class="cls-1" d="M485.54-57.9a2.07,2.07,0,0,0-1.38.67c-.14.23.36.87.78,1.77.62-.74,1.08-1.07,1.19-1.5C486.21-57.22,485.71-57.93,485.54-57.9Z" transform="translate(642.3 430.67)"/><path class="cls-1" d="M-629.41-57.06c-.54-.76-.76-1.4-1.13-1.5s-.93.28-1.41.46c.2.48.29,1.16.65,1.38S-630.35-56.87-629.41-57.06Z" transform="translate(642.3 430.67)"/><path class="cls-1" d="M-381.44-66.8a4.21,4.21,0,0,0-.85,1.22c-.06.2.63.87.75.82a6.35,6.35,0,0,0,1.24-1Z" transform="translate(642.3 430.67)"/><path class="cls-1" d="M-3.06-69.9c-.39.12-.63.71-.94,1.09.36.21.75.62,1.08.58s.87-.43,1.9-1C-2.16-69.64-2.68-70-3.06-69.9Z" transform="translate(642.3 430.67)"/><path class="cls-1" d="M52,17.92c.08-.32-.31-.74-.64-1.4-.55,1-.94,1.33-.91,1.66s.46.68.71,1A4.31,4.31,0,0,0,52,17.92Z" transform="translate(642.3 430.67)"/><path class="cls-1" d="M-140.93,26.7c0,.12.79.61,1,.5.4-.23.64-.74.95-1.13l-1.28-.83A5.54,5.54,0,0,0-140.93,26.7Z" transform="translate(642.3 430.67)"/><path class="cls-1" d="M216.38-84.13c.36.13.9-.27,2-.67-.94-.57-1.34-1-1.78-1s-.72.34-1.08.54C215.78-84.88,216-84.26,216.38-84.13Z" transform="translate(642.3 430.67)"/><path class="cls-1" d="M242.93-86.38a4.69,4.69,0,0,0-1.27.77c.23.32.46.88.7.88A5.05,5.05,0,0,0,244-85.3C243.44-85.85,243.11-86.42,242.93-86.38Z" transform="translate(642.3 430.67)"/><path class="cls-1" d="M174.4,57.63c-.07.15.54.89.68.85a6.23,6.23,0,0,0,1.39-.89l-1-1.11A4.84,4.84,0,0,0,174.4,57.63Z" transform="translate(642.3 430.67)"/><path class="cls-1" d="M-439.56-92.07a4.18,4.18,0,0,0,1,1.07c.18.09.94-.39.92-.52a5.8,5.8,0,0,0-.68-1.42Z" transform="translate(642.3 430.67)"/><path class="cls-1" d="M246.25-102.33c-.35,0-.75.33-1.13.51.3.41.52,1,.92,1.18s.89-.27,2-.67C247.07-101.9,246.68-102.28,246.25-102.33Z" transform="translate(642.3 430.67)"/><path class="cls-1" d="M152.85,83.77c.26.28.49.75.79.81s.64-.34,1.07-.6L154,82.87Z" transform="translate(642.3 430.67)"/><path class="cls-1" d="M17.67-112.3c-.42,0-.87.45-1.3.71.32.38.58,1,1,1.09s.92-.29,1.88-.64C18.46-111.75,18.07-112.28,17.67-112.3Z" transform="translate(642.3 430.67)"/><path class="cls-1" d="M-377.92,90.69l-.93-1.13c-.3.25-.76.46-.83.76s.34.62.59,1Z" transform="translate(642.3 430.67)"/><path class="cls-1" d="M435.91,90.16c.39.33.75.88,1.17.94s.85-.42,1.74-.91c-.89-.52-1.34-1-1.74-1S436.3,89.83,435.91,90.16Z" transform="translate(642.3 430.67)"/><path class="cls-1" d="M-284.48-116.46c-1.13-.51-1.55-.87-1.89-.8a4.52,4.52,0,0,0-1.34.76c.26.32.5.88.77.89C-286.48-115.58-286-115.9-284.48-116.46Z" transform="translate(642.3 430.67)"/><path class="cls-1" d="M393-119.81c.42-.13.69-.76,1.29-1.51-.8-.31-1.39-.75-1.71-.6a1.49,1.49,0,0,0-.7,1.28C391.92-120.29,392.69-119.72,393-119.81Z" transform="translate(642.3 430.67)"/><path class="cls-1" d="M-86.91,100.65c-.82-.58-1.22-1.08-1.62-1.07s-.9.45-1.36.71c.33.39.61,1,1,1.1S-87.93,101.06-86.91,100.65Z" transform="translate(642.3 430.67)"/><path class="cls-1" d="M146.22-120.76c.1-.11-.31-.66-.58-1.18-.42.34-.89.54-1,.84s.21.73.33,1.1A4.84,4.84,0,0,0,146.22-120.76Z" transform="translate(642.3 430.67)"/><path class="cls-1" d="M59.36-127.73a5.11,5.11,0,0,0-1.67-.48c-.26,0-.46.6-.69.93a5.1,5.1,0,0,0,1.36.72C58.54-126.52,58.84-127.11,59.36-127.73Z" transform="translate(642.3 430.67)"/><path class="cls-1" d="M-496.29-126.8c.17.45.51,1.06.88,1.14s.85-.42,1.74-.92c-.89-.49-1.31-.87-1.77-.92C-495.71-127.53-496.34-126.92-496.29-126.8Z" transform="translate(642.3 430.67)"/><path class="cls-1" d="M-144.18,116.06c.31-.41.88-.82.87-1.22s-.57-.82-1.25-1.69a7.63,7.63,0,0,0-.51,2.07C-145,115.53-144.49,115.78-144.18,116.06Z" transform="translate(642.3 430.67)"/><path class="cls-1" d="M173.5,118.85c-.07.12.52.85.7.82a5.58,5.58,0,0,0,1.42-.87c-.53-.47-1-1-1.08-.94A2.42,2.42,0,0,0,173.5,118.85Z" transform="translate(642.3 430.67)"/><path class="cls-1" d="M126,121.54c-.16-.06-.81.59-.75.74a5.17,5.17,0,0,0,1,1.29c.43-.56.91-1,.85-1.13A2.44,2.44,0,0,0,126,121.54Z" transform="translate(642.3 430.67)"/><path class="cls-1" d="M422.11-137.7a4.84,4.84,0,0,0,1.46.52c.25,0,.49-.58,1-1.2a5.91,5.91,0,0,0-1.8-.29C422.48-138.62,422.32-138,422.11-137.7Z" transform="translate(642.3 430.67)"/><path class="cls-1" d="M199.4,134.57l1.13,1.09c.25-.31.71-.63.7-.93s-.46-.63-.79-1Z" transform="translate(642.3 430.67)"/><path class="cls-1" d="M376.92-148.87a6.16,6.16,0,0,0,.55-1.69c0-.25-.53-.48-.81-.72a4.46,4.46,0,0,0-.76,1.28C375.85-149.79,376.36-149.46,376.92-148.87Z" transform="translate(642.3 430.67)"/><path class="cls-1" d="M-251.39,149.79c0,.42.67,1.16,1,1.16s.85-.68,1.52-1.27c-.63-.46-1.1-1.06-1.46-1S-251.39,149.4-251.39,149.79Z" transform="translate(642.3 430.67)"/><path class="cls-1" d="M-308.48-154.43c-.33,0-.7.3-1,.47a4.43,4.43,0,0,0,.93,1.07c.12.08.6-.38,1.07-.7C-307.93-154-308.18-154.4-308.48-154.43Z" transform="translate(642.3 430.67)"/><path class="cls-1" d="M-530.24,154.1c-.2,0-.81.57-.77.83a4.31,4.31,0,0,0,.73,1.36c.43-.32.85-.64,1.6-1.18A5.88,5.88,0,0,0-530.24,154.1Z" transform="translate(642.3 430.67)"/><path class="cls-1" d="M-451.89-152.56l1.23.86.7-1.16c-.44-.23-.82-.6-1.07-.52S-451.61-152.85-451.89-152.56Z" transform="translate(642.3 430.67)"/><path class="cls-1" d="M-446.62,163.43c-.06.48,0,1.22.29,1.44s1-.06,2-.17c-.57-.81-.79-1.34-1.19-1.59C-445.76,163-446.6,163.26-446.62,163.43Z" transform="translate(642.3 430.67)"/><path class="cls-1" d="M-561.85,166.49c-.17-.09-.63.37-1,.58a10,10,0,0,0,1.12,1.58c.09.1.7-.32,1.32-.62C-561.14,167.2-561.42,166.72-561.85,166.49Z" transform="translate(642.3 430.67)"/><path class="cls-1" d="M491,170c.36.2.72.57,1.06.56s.56-.47,1-.89c-.62-.29-1-.64-1.34-.57S491.21,169.7,491,170Z" transform="translate(642.3 430.67)"/><path class="cls-1" d="M-187.09,197.93c.38.41.61.85,1,.95s.59-.36.9-.57c-.3-.4-.6-.8-.89-1.21Z" transform="translate(642.3 430.67)"/><path class="cls-1" d="M-353-175a5.52,5.52,0,0,0-1.55-.81c-.23,0-.53.49-.8.77a4.5,4.5,0,0,0,1.14.86C-354-174.14-353.64-174.59-353-175Z" transform="translate(642.3 430.67)"/><path class="cls-1" d="M-465.94,200.74c.24.33.48.92.73.93a11.12,11.12,0,0,0,2.51-.95c-1.14-.47-1.57-.82-1.92-.75A4.59,4.59,0,0,0-465.94,200.74Z" transform="translate(642.3 430.67)"/><path class="cls-1" d="M-509,206c-.13-.06-.78.47-.79.75,0,.43.3.88.67,1.79.65-.79,1.25-1.22,1.19-1.53S-508.55,206.23-509,206Z" transform="translate(642.3 430.67)"/><path class="cls-1" d="M363.43,213A9,9,0,0,0,365,214c.13.05.5-.54,1-1.07a6.22,6.22,0,0,0-1.67-.63C364,212.24,363.72,212.75,363.43,213Z" transform="translate(642.3 430.67)"/><path class="cls-1" d="M-269.76,217.71c.27.28.51.75.8.78a6.33,6.33,0,0,0,1.79-.43c-.65-.59-1-1.1-1.23-1.07A4.59,4.59,0,0,0-269.76,217.71Z" transform="translate(642.3 430.67)"/><path class="cls-1" d="M-301.79,226c.12-.91.22-1.81.35-2.91C-303.52,224.11-303.53,224.15-301.79,226Z" transform="translate(642.3 430.67)"/><path class="cls-1" d="M-301.71,226.05l-.08-.08a1.23,1.23,0,0,1,0,.19Z" transform="translate(642.3 430.67)"/><path class="cls-1" d="M-129.14,223.71a4.77,4.77,0,0,0-1.34.66c.21.34.39.94.62.95a5.31,5.31,0,0,0,1.63-.48C-128.68,224.25-129,223.68-129.14,223.71Z" transform="translate(642.3 430.67)"/><path class="cls-1" d="M132.71-197.65a2.86,2.86,0,0,0-.94,1.1c-.06.1.55.75.74.7a4.83,4.83,0,0,0,1.36-.91C133.28-197.22,132.8-197.72,132.71-197.65Z" transform="translate(642.3 430.67)"/><path class="cls-1" d="M483.27-201.46a5.23,5.23,0,0,0-1.69-.45c-.27,0-.46.59-.69.9a4.16,4.16,0,0,0,1.32.62C482.44-200.36,482.72-200.88,483.27-201.46Z" transform="translate(642.3 430.67)"/><path class="cls-1" d="M-154.37-205.89a4.48,4.48,0,0,0-.75,1.32c0,.23.42.58.93,1.2a6.27,6.27,0,0,0,.71-1.75C-153.47-205.37-154-205.64-154.37-205.89Z" transform="translate(642.3 430.67)"/><path class="cls-1" d="M376.17,247.37c-.08.42.33.93.71,1.82.62-.72,1.21-1.11,1.2-1.48s-.54-.86-.85-1.29C376.86,246.73,376.24,247,376.17,247.37Z" transform="translate(642.3 430.67)"/><path class="cls-1" d="M179.46,253.87c.27.29.5.77.81.83s.66-.33,1.09-.58l-.73-1.22Z" transform="translate(642.3 430.67)"/><path class="cls-1" d="M578.6,253.67c0,.41,0,.82,0,1.23.76-.08,1.54-.14,2.29-.28.07,0,.07-.74.05-.74C580.17,253.78,579.38,253.73,578.6,253.67Z" transform="translate(642.3 430.67)"/><path class="cls-1" d="M153.58,257.44l-1.11,1.2c.49.42.93.93,1,.86.42-.23,1-.63,1-1S153.92,257.79,153.58,257.44Z" transform="translate(642.3 430.67)"/><path class="cls-1" d="M116.87-221.42c.07-.09-.42-.59-.76-1.06-.37.4-.81.66-.84,1s.29.74.45,1.11A6.26,6.26,0,0,0,116.87-221.42Z" transform="translate(642.3 430.67)"/><path class="cls-1" d="M-115.23,269.4c-.33-.41-.56-.95-.86-1s-.67.4-1,.63l.9,1.23Z" transform="translate(642.3 430.67)"/><path class="cls-1" d="M410,270.18c-.41-.34-.79-.89-1.24-.95s-.87.43-1.8,1c.92.54,1.4,1.06,1.79,1S409.62,270.54,410,270.18Z" transform="translate(642.3 430.67)"/><path class="cls-1" d="M-216.31,275.77c.07-.21-.59-.95-.7-.91a2.88,2.88,0,0,0-1.21.94c-.1.14.35.65.75,1.32C-216.95,276.55-216.47,276.22-216.31,275.77Z" transform="translate(642.3 430.67)"/><path class="cls-1" d="M-206.33,275c-.15-.4-.79-.69-1.28-.83a1.49,1.49,0,0,0-.64,1c.08.45.54.84,1.15,1.68C-206.67,275.9-206.2,275.34-206.33,275Z" transform="translate(642.3 430.67)"/><path class="cls-1" d="M-506.81,276.08c-.07.26.35.64.61,1.05l1.21-.68c-.32-.41-.65-.81-1-1.21C-506.27,275.52-506.74,275.75-506.81,276.08Z" transform="translate(642.3 430.67)"/><path class="cls-1" d="M-53.38-234.4c0,.29.53.53.82.79l.93-1.12-1-.72C-53-235-53.41-234.69-53.38-234.4Z" transform="translate(642.3 430.67)"/><path class="cls-1" d="M-422.9-237.88c.39.12.92-.26,1.38-.42l.44-.79a3.52,3.52,0,0,0-1.19-.36,6.17,6.17,0,0,0-1.52.46C-423.5-238.6-423.27-238-422.9-237.88Z" transform="translate(642.3 430.67)"/><path class="cls-1" d="M68.94,291.85c0-.21-.57-.82-.79-.77a4.54,4.54,0,0,0-1.33.78c.3.43.6.85,1.14,1.64A6.93,6.93,0,0,0,68.94,291.85Z" transform="translate(642.3 430.67)"/><path class="cls-1" d="M481.48,291.42a5.62,5.62,0,0,0-1.78-.56c-.29,0-.54.54-.81.84a4.61,4.61,0,0,0,1.35.74C480.48,292.49,480.82,292,481.48,291.42Z" transform="translate(642.3 430.67)"/><path class="cls-1" d="M-54.07,296.93a4.53,4.53,0,0,0-1.31.8c.29.41.57.82,1.07,1.55.51-.74.92-1.12,1-1.58C-53.24,297.5-53.86,296.88-54.07,296.93Z" transform="translate(642.3 430.67)"/><path class="cls-1" d="M455.23,306c.36.35.73.69,1.1,1l.83-1.09c-.42-.31-.76-.76-1.07-.73S455.51,305.67,455.23,306Z" transform="translate(642.3 430.67)"/><path class="cls-1" d="M-32.45,316.62a2.46,2.46,0,0,0,.93,1.11c.13.08.61-.43,1.2-.87-.55-.42-.9-.85-1.33-1C-31.84,315.83-32.5,316.49-32.45,316.62Z" transform="translate(642.3 430.67)"/><path class="cls-1" d="M-21.82,316c.06.43.63.82,1.05,1.12.07.05.55-.49,1-.94-.41-.47-.75-.85-1.08-1.24C-21.18,315.26-21.86,315.66-21.82,316Z" transform="translate(642.3 430.67)"/><path class="cls-1" d="M376.21-254.69l-.95-1.13c-.31.27-.79.5-.87.82s.37.65.64,1.07Z" transform="translate(642.3 430.67)"/><path class="cls-1" d="M-211.75,333.49a1.41,1.41,0,0,0-.79.7c-.06.26.33.62.58,1l1.18-.66A5.8,5.8,0,0,0-211.75,333.49Z" transform="translate(642.3 430.67)"/><path class="cls-1" d="M550.55-266c0-.28-.48-.59-.75-.88l-1.07,1,1,.87C550.06-265.4,550.53-265.69,550.55-266Z" transform="translate(642.3 430.67)"/><path class="cls-1" d="M156.57,343.47a2,2,0,0,0,1,1c.15.07.86-.52.82-.67a7.77,7.77,0,0,0-1.12-1.71C156.91,342.78,156.48,343.22,156.57,343.47Z" transform="translate(642.3 430.67)"/><path class="cls-1" d="M-476.36-276.1c-.27,0-.52.55-.78.85a4.35,4.35,0,0,0,1.3.73c.24,0,.57-.45,1.2-1A5.41,5.41,0,0,0-476.36-276.1Z" transform="translate(642.3 430.67)"/><path class="cls-1" d="M178.05,361.12a4.53,4.53,0,0,0,1.45.52c.25,0,.5-.58,1-1.21a5.91,5.91,0,0,0-1.83-.31C178.41,360.16,178.25,360.77,178.05,361.12Z" transform="translate(642.3 430.67)"/><path class="cls-1" d="M-424.57,372.55a4.25,4.25,0,0,0,1.31.78c.21,0,.54-.55,1.06-1.11a5.5,5.5,0,0,0-1.66-.58C-424.1,371.63-424.33,372.23-424.57,372.55Z" transform="translate(642.3 430.67)"/><path class="cls-1" d="M-388.17,377a5.87,5.87,0,0,0,1.56-.93c-.67-.46-1.11-.95-1.3-.86a4.63,4.63,0,0,0-1.15,1C-388.76,376.51-388.41,377-388.17,377Z" transform="translate(642.3 430.67)"/><path class="cls-1" d="M-195.34,386c-.39.09-.66.71-1,1.1.44.26.89.74,1.31.71s.81-.55,1.6-1.16C-194.38,386.32-194.92,385.93-195.34,386Z" transform="translate(642.3 430.67)"/><path class="cls-1" d="M-286.44,407.52c-.16-.07-.82.46-.83.74,0,.43.31.89.69,1.8.67-.79,1.29-1.22,1.24-1.54S-286,407.72-286.44,407.52Z" transform="translate(642.3 430.67)"/><path class="cls-1" d="M-260.95,407.32a1.73,1.73,0,0,0-1.28.67c-.13.28.37.85.78,1.65.6-.71,1-1.05,1.19-1.49C-260.19,408-260.74,407.29-260.95,407.32Z" transform="translate(642.3 430.67)"/><path class="cls-1" d="M382.83-296.55a4.52,4.52,0,0,0,1.26-.87l-1-1.12a7.41,7.41,0,0,0-1.07,1.26C382-297.19,382.64-296.5,382.83-296.55Z" transform="translate(642.3 430.67)"/><path class="cls-1" d="M158.83-297.39a2.65,2.65,0,0,0,1.18-.89c.07-.1-.43-.62-.85-1.21a5.17,5.17,0,0,0-1,1.27C158.06-298,158.7-297.34,158.83-297.39Z" transform="translate(642.3 430.67)"/><path class="cls-1" d="M254.48,422.68a1.53,1.53,0,0,0,1,1.06,1.59,1.59,0,0,0,1.21-.89c.09-.3-.51-.81-1.56-2.32C254.79,421.6,254.41,422.17,254.48,422.68Z" transform="translate(642.3 430.67)"/><path class="cls-1" d="M408.17,429.07c-.05.15.55.73.79.7a6.19,6.19,0,0,0,1.62-.93c-.79-.5-1.28-1-1.58-.94S408.31,428.62,408.17,429.07Z" transform="translate(642.3 430.67)"/><path class="cls-1" d="M259.59-307.73a5.79,5.79,0,0,0,1.45-.63l-.8-1.27c-.4.3-.91.53-1.14.92C259-308.53,259.46-307.72,259.59-307.73Z" transform="translate(642.3 430.67)"/><path class="cls-1" d="M87.16,439.63a4.11,4.11,0,0,0,.9,1.27c.32-.26.91-.53.9-.79,0-.45-.38-.9-1-2.26C87.46,438.85,87.08,439.3,87.16,439.63Z" transform="translate(642.3 430.67)"/><path class="cls-1" d="M-355.55,450.11a1.41,1.41,0,0,0,1,1c.4,0,.83-.53,1.25-.82l-1.07-1.49C-354.95,449.41-355.57,449.78-355.55,450.11Z" transform="translate(642.3 430.67)"/><path class="cls-1" d="M152.73,453.61c0,.27.49.57.75.86a4.26,4.26,0,0,0,.89-1.19c.07-.23-.38-.62-.87-1.33A5.82,5.82,0,0,0,152.73,453.61Z" transform="translate(642.3 430.67)"/><path class="cls-1" d="M-387.73,456.88a3.88,3.88,0,0,0-1.18-.87c-.18-.06-.85.61-.79.77a5.08,5.08,0,0,0,1,1.27Z" transform="translate(642.3 430.67)"/><path class="cls-1" d="M162.63,456.63c.38,1.13.63,1.89.89,2.65.26-.1.65-.11.78-.3C165.07,457.8,164.65,457.09,162.63,456.63Z" transform="translate(642.3 430.67)"/><path class="cls-1" d="M186.25,470a2.9,2.9,0,0,0,1,1.19c.13.09.64-.44,1.24-.89a5.82,5.82,0,0,0-1.43-1.05C186.9,469.17,186.2,469.89,186.25,470Z" transform="translate(642.3 430.67)"/><path class="cls-1" d="M106,477.56a5.7,5.7,0,0,0,1,1.26l1-1.11a4.55,4.55,0,0,0-1.18-.87C106.64,476.79,106,477.43,106,477.56Z" transform="translate(642.3 430.67)"/><path class="cls-1" d="M-414.3-339.39c0-.26-.74-.72-1-.63-.43.16-.73.66-1.08,1l1.41,1.34C-414.61-338.5-414.27-339-414.3-339.39Z" transform="translate(642.3 430.67)"/><path class="cls-1" d="M-469.27-339.15a5.83,5.83,0,0,0-1.84-.49c-.28,0-.48.6-.72.94a4.68,4.68,0,0,0,1.38.58C-470.19-338.1-469.89-338.58-469.27-339.15Z" transform="translate(642.3 430.67)"/><path class="cls-1" d="M-90.74,503.92c-.42-.05-.88.27-1.69.58.62.72.94,1.1,1.26,1.49.36-.36.84-.66,1-1.09A1.17,1.17,0,0,0-90.74,503.92Z" transform="translate(642.3 430.67)"/><path class="cls-1" d="M427.66-347c.11.45.55.81.86,1.21l1-1.1-1.17-1C428.13-347.6,427.61-347.22,427.66-347Z" transform="translate(642.3 430.67)"/><path class="cls-1" d="M54,514c.3.38.54,1,.92,1.09s.9-.23,1.37-.37l.42-.79a3.53,3.53,0,0,0-1.17-.37A7.43,7.43,0,0,0,54,514Z" transform="translate(642.3 430.67)"/><path class="cls-1" d="M212.09,517.37a4.8,4.8,0,0,0-.73-.29c-.21.68-.41,1.36-.61,2l.82.24C211.75,518.7,212,518,212.09,517.37Z" transform="translate(642.3 430.67)"/><path class="cls-1" d="M383.46,519.38a4.31,4.31,0,0,0-1.41.54c.19.34.35.93.58,1a5.89,5.89,0,0,0,1.75-.33C383.94,520,383.7,519.38,383.46,519.38Z" transform="translate(642.3 430.67)"/><path class="cls-1" d="M-423.34,544.93c-.41-.09-.94.33-2.54,1,1.13.42,1.53.7,1.91.67a6,6,0,0,0,1.48-.5C-422.77,545.67-423,545-423.34,544.93Z" transform="translate(642.3 430.67)"/><path class="cls-1" d="M-91.4,551.12c-.31,0-.71.62-1.07,1l1.22,1.15c.43-.5,1-.94.9-1.06C-90.59,551.74-91,551.18-91.4,551.12Z" transform="translate(642.3 430.67)"/><path class="cls-1" d="M-640.58-353.92c.28-.34.55-.69.82-1a7.44,7.44,0,0,0-1.72-.32c-.29,0-.86.51-.82.64a3.39,3.39,0,0,0,.82,1.27C-641.43-353.31-640.89-353.72-640.58-353.92Z" transform="translate(642.3 430.67)"/><path class="cls-1" d="M-427.08,573.47c.33.41.58,1,1,1.17s.88-.38,1.7-.78c-.71-.61-1.08-1.18-1.48-1.21S-426.67,573.17-427.08,573.47Z" transform="translate(642.3 430.67)"/><path class="cls-1" d="M-437.5-361.34a4.87,4.87,0,0,0,.8-1.26c0-.13-.58-.47-1-.81-.28.5-.68.89-.62,1.2S-437.8-361.62-437.5-361.34Z" transform="translate(642.3 430.67)"/><path class="cls-1" d="M347.51,604c.28.4.5,1,.87,1.14s.89-.32,1.34-.51c.16-.28.31-.56.47-.83a3.44,3.44,0,0,0-1.21-.31A6.42,6.42,0,0,0,347.51,604Z" transform="translate(642.3 430.67)"/><path class="cls-1" d="M371.59-365.39a6.86,6.86,0,0,0,1.73-.89c-.82-.53-1.31-1.08-1.63-1s-.71.72-.87,1.18C370.77-365.95,371.36-365.36,371.59-365.39Z" transform="translate(642.3 430.67)"/><path class="cls-1" d="M-370.56-371.54c.33.08.83-.5,2.45-1.61-1.16-.35-1.75-.71-2.27-.63a1.52,1.52,0,0,0-1,1A1.47,1.47,0,0,0-370.56-371.54Z" transform="translate(642.3 430.67)"/><path class="cls-1" d="M493.28-382.29a5.69,5.69,0,0,0-1.73-.43c-.27,0-.47.59-.7.92a4.46,4.46,0,0,0,1.36.65C492.45-381.13,492.74-381.69,493.28-382.29Z" transform="translate(642.3 430.67)"/><path class="cls-1" d="M-361.41,653.81a4.57,4.57,0,0,0,.72,1.33l1.57-1.16a7,7,0,0,0-1.58-1C-360.85,652.9-361.45,653.54-361.41,653.81Z" transform="translate(642.3 430.67)"/><path class="cls-1" d="M-393.9-391.08c-.1.75-.21,1.5-.31,2.24l1.27,0c-.05-.71-.07-1.43-.18-2.14C-393.13-391-393.62-391-393.9-391.08Z" transform="translate(642.3 430.67)"/><path class="cls-1" d="M254.32,664.73a4.09,4.09,0,0,0,.73,1.29l1.49-1.11a6.68,6.68,0,0,0-1.51-1C254.85,663.88,254.27,664.49,254.32,664.73Z" transform="translate(642.3 430.67)"/><path class="cls-1" d="M572-395.88c-.12.35.29.89.68,1.88.58-.87,1-1.26,1.09-1.71s-.38-.69-.59-1C572.72-396.47,572.09-396.26,572-395.88Z" transform="translate(642.3 430.67)"/><path class="cls-1" d="M555.67-396.9a4.12,4.12,0,0,0,1.09.92c.16-.36.46-.74.44-1.1s-.34-.74-.67-1.39C556-397.55,555.57-397.07,555.67-396.9Z" transform="translate(642.3 430.67)"/><path class="cls-1" d="M264.24,699.29c-.34-.08-.77.2-1.16.33a5,5,0,0,0,.81,1.25c.13.1.69-.33,1.22-.6C264.76,699.85,264.55,699.37,264.24,699.29Z" transform="translate(642.3 430.67)"/><path class="cls-1" d="M-80.51,724.67a1.35,1.35,0,0,0,.28,1.12c.19.16.71-.07,1.29-.15-.24-.54-.31-1-.59-1.21S-80.47,724.51-80.51,724.67Z" transform="translate(642.3 430.67)"/><path class="cls-1" d="M545.69,739.54a5.47,5.47,0,0,0,.53,1.53l1.36-.77c.21-.34.42-.68.62-1a6.43,6.43,0,0,0-1.67-.47C546.24,738.8,545.68,739.29,545.69,739.54Z" transform="translate(642.3 430.67)"/><path class="cls-1" d="M525,750.18a4.84,4.84,0,0,0-.77,1.3c-.05.21.45.55,1,1.14a6.47,6.47,0,0,0,.62-1.71C525.85,750.67,525.3,750.43,525,750.18Z" transform="translate(642.3 430.67)"/><path class="cls-1" d="M353,780a6.62,6.62,0,0,0,1,1.27l1-1.13a4.25,4.25,0,0,0-1.21-.87C353.63,779.17,353,779.84,353,780Z" transform="translate(642.3 430.67)"/></svg>