<svg id="Layer_1" data-name="Layer 1" xmlns="http://www.w3.org/2000/svg" viewBox="0 0 71.39 114.7"><defs><style>.cls-1{fill:#fcfcfc;}</style></defs><title>Untitled-1</title><path class="cls-1" d="M96.83,125.9A1.73,1.73,0,0,0,98,127a1.42,1.42,0,0,0,1.44-.46,2.11,2.11,0,0,0,.44-1.07c0-.25,0-.5.05-.75a5.1,5.1,0,0,0,.14-1.1,3.36,3.36,0,0,0-.18-1.3,1.83,1.83,0,0,0-.28-.47l-.06-.11a1.38,1.38,0,0,0-1.28-.64,1.58,1.58,0,0,0-1.15.84,5.57,5.57,0,0,0-.39,2.93A3.09,3.09,0,0,0,96.83,125.9Z" transform="translate(-49.47 -85.73)"/><path class="cls-1" d="M76.43,120.48l-.05-.11a1.38,1.38,0,0,0-1.28-.64,1.58,1.58,0,0,0-1.15.84,5.57,5.57,0,0,0-.39,2.93,3.09,3.09,0,0,0,.13,1,1.73,1.73,0,0,0,1.14,1.08,1.42,1.42,0,0,0,1.44-.46,2,2,0,0,0,.43-1.07q0-.37.06-.75a5.81,5.81,0,0,0,.14-1.1,3.36,3.36,0,0,0-.18-1.3A1.61,1.61,0,0,0,76.43,120.48Z" transform="translate(-49.47 -85.73)"/><path class="cls-1" d="M83.71,132.14a6.52,6.52,0,0,0,6.07.38c.85-.42,2.07-1,2.34-2,.06-.21-.13-.35-.31-.36a2.91,2.91,0,0,0-1.28.34,7.09,7.09,0,0,1-1.26.4,9.1,9.1,0,0,1-2.44.22,4.84,4.84,0,0,1-2.12-.7,5.52,5.52,0,0,1-1.45-1.52,1,1,0,0,0-1.71.86A5,5,0,0,0,83.71,132.14Z" transform="translate(-49.47 -85.73)"/><path class="cls-1" d="M120.67,143.62a1.08,1.08,0,0,0-1.07-1.21c-3.25,0-6.53.2-9.78.32-2.37.09-4.74.21-7.11.32a7.79,7.79,0,0,0-.64-.76,10.4,10.4,0,0,0-.76-.72,14.78,14.78,0,0,0-1.67-1.28c-.6-.41-1.21-.8-1.82-1.19a12.2,12.2,0,0,0-1.41-.84,33,33,0,0,0,8.71-4.88,25.17,25.17,0,0,0,10-18.27c0-.46,0-.91,0-1.36,0-7.35-3.48-14.11-9.11-19.12A36.44,36.44,0,0,0,83.92,85.8c-.78,0-1.55-.07-2.32-.07A35.71,35.71,0,0,0,59.53,93a25.11,25.11,0,0,0-10,18.27h0c0,.45,0,.91,0,1.36,0,7.34,3.48,14.11,9.11,19.12a34.79,34.79,0,0,0,12.9,7.17l-1.71,1.16c-1.44,1-2.87,2-4.3,3l-8.9,6.36c-1,.72-2.16,1.59-1.79,3s1.94,2.15,3,2.86a66.58,66.58,0,0,0,8.33,4.76l1.69.76c-.13,1.08-.25,2.15-.33,3.23-.34,4.46.38,9.39,3.8,12.6a14.07,14.07,0,0,0,7.56,3.3,49.9,49.9,0,0,0,0,8.38c.06,1.54.15,3.09.27,4.63,0,.72.11,1.43.18,2.15a13.71,13.71,0,0,0-7.77.28,3,3,0,0,0-2.33,2.44c-.14,1.39,1,2.16,2.2,2.38a13.55,13.55,0,0,0,8.46-1.36,2.87,2.87,0,0,0,1.42-1.12,3.76,3.76,0,0,0,0-2.05c-.23-1.73-.43-3.46-.59-5.19s-.29-3.72-.37-5.59c-.07-1.58,0-3.19-.18-4.78,1.39.16,2.78.24,4.11.29a52.13,52.13,0,0,0,8-.32l.58-.07c-.38,2.57-.41,5.22-.7,7.78q-.51,4.6-1.37,9.15a1,1,0,0,0,.82,1.19,27.39,27.39,0,0,0,8.14,1.62c2,0,5.66-.42,5.64-3.13,0-2.45-3.84-2.8-5.62-3a18.35,18.35,0,0,0-6.52.56q.42-3.13.69-6.28a49.15,49.15,0,0,0,.3-8.14A12.87,12.87,0,0,0,98,178.56a7,7,0,0,0,3.5-5.8,35.3,35.3,0,0,0-.4-8.83v-.05l.4,0a2.91,2.91,0,0,0,1,2.3,5.17,5.17,0,0,0,3.51,1.07,5.33,5.33,0,0,0,3.1-.76,4,4,0,0,0,1.5-3.29l0-.18,3.36-.32c1.14-.11,2.29-.2,3.44-.3l.13-2.14c0-.16.1-.34.15-.52.22-.87.37-1.77.56-2.65q.61-2.93,1.2-5.87.75-3.77,1.44-7.55ZM78.85,197.15a12.41,12.41,0,0,1-4.08,1.17,11.91,11.91,0,0,1-2.07.05c-.38,0-1.75,0-1.44-.56s1.27-.61,1.71-.73a11.71,11.71,0,0,1,2.19-.33,12.72,12.72,0,0,1,3.79.36Zm19.4-1.58c.68,0,5.37.36,5.07,1.26-.23.69-1.9.77-2.47.83a13,13,0,0,1-3-.07,34.28,34.28,0,0,1-5-1.13A16.41,16.41,0,0,1,98.25,195.57Zm.52-54.27c.53.39,1.06.79,1.56,1.23.21.19.42.39.62.6l-.92,0-2.9.17a13.66,13.66,0,0,0-.93-3.12q-.3-.65-.66-1.26A8.34,8.34,0,0,0,97,140.09C97.6,140.49,98.19,140.89,98.77,141.3Zm-18.31,4.45a26,26,0,0,0-.65,3.9c-.12.92-.25,1.85-.38,2.78a.81.81,0,0,0-.22,0l-4.64.74a24.41,24.41,0,0,0-4,.85c.09-.88.17-1.77.24-2.65v-.08a32.91,32.91,0,0,1,1.11-4.37,41.26,41.26,0,0,1,3.22-7.06,38.71,38.71,0,0,0,5.57.73c.56,0,1.13,0,1.69,0,0,.14-.11.29-.15.43-.12.4-.19.81-.27,1.22-.15.74-.26,1.48-.39,2.22a5.46,5.46,0,0,0-.83.31.54.54,0,0,0,0,1,.6.6,0,0,1-.46-.34A.56.56,0,0,0,80.46,145.75Zm.21,20.68c.8,1.76-1.21,3.21-2.8,2.38s-1.76-2.89-1-4.42a1.86,1.86,0,0,0,.59.31,1.13,1.13,0,0,0,1.2,1.29l1.94-.18A.85.85,0,0,0,80.67,166.43Zm-9.14-11.2a28.74,28.74,0,0,0,3.19-.33l4.46-.62c0,.13,0,.26-.05.39-.38,2.68-.82,5.35-1.29,8-.31-.34-.63-.67-1-1-.61-.65-1.23-1.3-1.82-2A54.24,54.24,0,0,1,71.53,155.23Zm1.56,5.46c-1-.37-2.09-.78-3.12-1.21.1-.73.19-1.47.28-2.21Q71.6,159,73.09,160.69Zm16-20.5c.08.21.18.42.26.61l.08.2c-.41.09-.82.24-1.18.35-.64.18-1.28.37-1.91.57-1.1.35-2.17.73-3.23,1.17,0-.2,0-.39,0-.59,0-.38.1-.76.14-1.14s0-.47,0-.71A38.82,38.82,0,0,0,89.09,140.19Zm-6,3.64c1.19-.3,2.36-.65,3.54-1l1.86-.53.92-.27.43-.11,0,.07a11.7,11.7,0,0,1,.36,1.19c.06.23.06.26.11.49a.15.15,0,0,0,0,.07h0c-1.57.11-3.13.21-4.69.34-.79.07-1.68.08-2.54.17C83,144.11,83,144,83.05,143.83Zm8.73-.17c-.06-.3-.14-.58-.22-.86a13,13,0,0,0-.44-1.24,9.38,9.38,0,0,0-.59-1.24l-.22-.35c1.19-.23,2.36-.51,3.5-.84l.19.41c.21.48.43,1,.61,1.46s.32,1,.46,1.48l.1.37a2,2,0,0,1,0,.24h0v0c0,.1,0,.21.05.31Zm-39.95-31c0-.41,0-.81,0-1.22l-1.18-.07,1.18.07c.38-6.55,3.78-12.34,9.13-16.55A33.38,33.38,0,0,1,81.6,88.1q1.08,0,2.19.06A34.17,34.17,0,0,1,104.5,96.4c5.2,4.64,8.32,10.77,8.32,17.35,0,.41,0,.81,0,1.22-.38,6.55-3.78,12.34-9.13,16.55a33.38,33.38,0,0,1-20.6,6.77q-1.08,0-2.19-.06A34.17,34.17,0,0,1,60.15,130C55,125.34,51.83,119.22,51.83,112.64ZM68.71,155.1c-.23,1.19-.43,2.38-.61,3.57a65.22,65.22,0,0,1-10.57-6c-.17-.11-.75-.42-.78-.63s.55-.65.78-.81l2.37-1.73,4.73-3.45c1.58-1.16,3.16-2.3,4.73-3.46.79-.58,1.57-1.16,2.35-1.76l1.22-1,.48-.39.15,0a29.66,29.66,0,0,0-3.32,6.93A35.15,35.15,0,0,0,69,151c-.15.78-.28,1.57-.37,2.35A3.48,3.48,0,0,0,68.71,155.1ZM99.4,171.3c-.08,1.94-.37,3.89-2.1,5a11.19,11.19,0,0,1-4.93,1.48,51.89,51.89,0,0,1-7.05.39c-3.95-.05-8.88-.21-12.1-2.84s-3.89-7.07-3.72-11c0-.9.13-1.8.22-2.7,1.73.69,3.49,1.32,5.27,1.87-1.27,2.71-.71,6.2,2.47,7.35a3.88,3.88,0,0,0,4.24-1,3.77,3.77,0,0,0,.76-4.15l-.08-.13q8.28-.75,16.55-1.56v0A35.25,35.25,0,0,1,99.4,171.3Zm9.1-7.09a1.28,1.28,0,0,1-.49.65s-.25.14-.14.09l-.24.1-.25.09-.18,0a5.54,5.54,0,0,1-1.15.12,3.89,3.89,0,0,1-2.21-.46,2.39,2.39,0,0,1-.9-1.13l5.81-.56C108.65,163.51,108.61,163.93,108.5,164.21Zm8.92-13c-.34,2-.69,3.93-1,5.9a13,13,0,0,0-.47,3.18l-2.15.22L102,161.59c-7.36.67-14.73,1.32-22.08,2,.48-2.86.91-5.72,1.27-8.59.21-1.68.38-3.37.53-5.05a24.65,24.65,0,0,0,.16-3.94,24.62,24.62,0,0,0,3.86-.17l4.69-.3q4.89-.3,9.78-.54c3.26-.15,6.53-.28,9.79-.39,2.83-.09,5.67-.07,8.51-.17C118.15,146.73,117.8,149,117.42,151.21Z" transform="translate(-49.47 -85.73)"/></svg>