<svg id="Layer_1" data-name="Layer 1" xmlns="http://www.w3.org/2000/svg" viewBox="0 0 73.68 113.3"><defs><style>.cls-1{fill:#fcfcfc;}</style></defs><title>Untitled-1</title><path class="cls-1" d="M177.13,84.55a37.69,37.69,0,0,0-46.33,0c-6,4.93-9.71,11.83-9.71,19.48s3.75,14.55,9.71,19.48a34.3,34.3,0,0,0,12.06,6.36c-2.68,2.44-5.15,5.12-7.59,7.8s-5.05,5.6-7.34,8.6a53,53,0,0,0-5.78,9.24,10,10,0,0,0-1.25,5.37,2.25,2.25,0,0,0,.06.36,14,14,0,0,0-1.25.79l-2,1.36q-2,1.38-4,2.84l-.08.07a.53.53,0,0,0-.5.55,33.74,33.74,0,0,0,2.15,8.65c.46,1.34,1,2.66,1.52,4,.29.69.6,1.38.92,2.06.25.53.51,1.06,1.11,1.24a2.19,2.19,0,0,0,1.69-.38c.68-.37,1.35-.75,2-1.14,1.24-.71,2.46-1.43,3.68-2.17s2.64-1.63,3.93-2.48c.54-.35,1.07-.72,1.59-1.09a.72.72,0,0,0,.59,0,26.19,26.19,0,0,0,3.52-2.38c1.16-.86,2.27-1.78,3.36-2.73a.86.86,0,0,0,.25-1c-2.09-5-4-10.24-6.54-15.09a.42.42,0,0,0-.76,0,.68.68,0,0,0-.53.1c-.48.32-1,.56-1.56.85s-1.06.62-1.58.95c-.8.5-1.58,1-2.38,1.53a4.57,4.57,0,0,0-1.48-2,.81.81,0,0,0-.73-.15c.47-1,1-2,1.56-2.93,3.08-5.27,7.12-9.92,11.17-14.47,2.21-2.48,4.5-4.9,6.68-7.41-1.17,3.14-2.08,6.4-3.06,9.61q-1.62,5.28-3.23,10.58c-.86,2.85-2,6-1.2,9,.74,2.73,3.11,4.32,5.72,5a24.31,24.31,0,0,0,3.21.64c-.34,1.53-.55,3.1-.84,4.64-.37,2-.78,3.93-1.18,5.89-.65,3.19-1.19,6.37-1.62,9.59a13.81,13.81,0,0,0-5.81-1.19c-1.43,0-3.9.22-3.83,2.19.05,1.78,2,2.85,3.54,3.07a10.69,10.69,0,0,0,3.14-.18c1.18-.21,2.36-.4,3.53-.65a.8.8,0,0,0,.65-.67,82.53,82.53,0,0,1,1.85-12c.38-2,.76-3.92,1.09-5.89a33.41,33.41,0,0,0,.57-4.68,47,47,0,0,0,5.55.2,41.74,41.74,0,0,0,6.87-.59c-.09.59-.13,1.2-.17,1.79-.08,1-.15,2-.22,3-.15,2-.28,3.94-.44,5.91a85.8,85.8,0,0,0-.29,11.78.82.82,0,0,0,.69.68,15.86,15.86,0,0,0,6.58.23c1.72-.3,3.91-1,3.91-3.1s-2.23-2.46-3.8-2.3a22.73,22.73,0,0,0-6,1.1c-.07-2.84.05-5.68.19-8.52.1-1.88.22-3.76.33-5.63.06-1,.11-2,.17-3a17,17,0,0,0,.05-2.14q.9-.19,1.77-.45a10.09,10.09,0,0,0,6.36-4.88c1.29-2.52,1.17-5.56.62-8.26a37.84,37.84,0,0,0-1.31-4.62,29,29,0,0,0,7-3.21.62.62,0,0,0,0-1c-4.55-3.94-9.05-7.94-13.67-11.8a35.33,35.33,0,0,0,17-7.47c6-4.93,9.71-11.83,9.71-19.48S183.09,89.48,177.13,84.55Zm-41.89,78.81,0,0c.82,2,1.67,4.09,2.49,6.14-.91.76-1.84,1.51-2.79,2.22-.76.58-1.58,1.09-2.36,1.64a4.57,4.57,0,0,0-1.17.63l-1.72,1.09c-1.15.72-2.3,1.46-3.45,2.16s-2.37,1.44-3.57,2.13l-1.65.93c-.26.15-1.38,1-1.65.88s-.62-1.19-.78-1.54c-.27-.6-.52-1.21-.78-1.82-.4-1-.78-2-1.15-3a76.68,76.68,0,0,0,8-4.71c0,.08.08.16.13.24a1.94,1.94,0,0,0,.33.37l.13.09a1.32,1.32,0,0,0,.33.18,1.18,1.18,0,0,0,.36.06l.12,0a.61.61,0,0,0,.3,0,.79.79,0,0,0,.29-.18,1.26,1.26,0,0,0,.31-.25l.07-.1a1.35,1.35,0,0,0,.16-.29,2.28,2.28,0,0,0,.11-.45,2.23,2.23,0,0,0,0-.77,2.2,2.2,0,0,0-.17-.45c1.1-.69,2.19-1.38,3.27-2.09.8-.53,1.6-1.06,2.39-1.61a17.09,17.09,0,0,0,1.75-1.16h0l.14,0,.07,0,.15,0a.84.84,0,0,0,.23-.12Zm-8.77-3.48a5.43,5.43,0,0,0-.08-1.34,19.17,19.17,0,0,0,2.61-1.38q.76-.45,1.56-.87a11.66,11.66,0,0,1,1.74-.85l.08-.06c.75,2.4,1.63,4.77,2.55,7.12a.66.66,0,0,0-.67-.18,8.3,8.3,0,0,0-2.15,1.47c-.73.54-1.48,1.07-2.22,1.6-1.17.83-2.34,1.66-3.53,2.47l-.23-.06a1.22,1.22,0,0,0-.77.19.71.71,0,0,0-.24.06.75.75,0,0,0-.32.24c0,.1-.12.2-.16.3a2.19,2.19,0,0,0-.1.34l0,.16c-2.67,1.73-5.44,3.31-8.06,5.09l0-.08c-.76-2.16-1.3-4.39-2-6.56a.79.79,0,0,0,.25-.14q1.84-1.52,3.75-3c.62-.47,1.25-.94,1.89-1.4.33-.24.71-.49,1-.76a2.17,2.17,0,0,0,2.34,1.13A3.8,3.8,0,0,0,126.47,159.88Zm-1.78.08c-.12.73-1.39,2.64-2,1.24s.09-3.09.61-4.35a1,1,0,0,0,.24.27A3,3,0,0,1,124.69,160Zm16.21,27.6c-1.37.21-2.74.51-4.13.64-1.16.12-2.85,0-3.53-1.14-.44-.75.4-.81,1-.88a11.07,11.07,0,0,1,2.23-.07,12.23,12.23,0,0,1,4.23,1.08.74.74,0,0,0,.27.06C140.93,187.35,140.92,187.46,140.9,187.56Zm17.84-1.26a28.46,28.46,0,0,1,4.54-1.14c.57-.09,4.17-.87,3.5.72-.52,1.22-2.86,1.32-4,1.41a15.32,15.32,0,0,1-4.11-.25c0-.24,0-.48,0-.72Zm7.61-29.65a7.14,7.14,0,0,1-4.26,5.7,23.54,23.54,0,0,1-8.13,1.7,44.75,44.75,0,0,1-10-.34c-2.31-.35-5.08-1.06-6.25-3.3-1.36-2.6-.16-5.83.62-8.42,1.08-3.64,2.17-7.27,3.24-10.9s2.22-7.12,3-10.74a40.13,40.13,0,0,0,5,.88,31.85,31.85,0,0,0-1.37,4.52c-.48,1.58-1.09,3.14-1.52,4.74-.37,1.37.66,2.3,1.45,3.31,1.06,1.35,2.15,2.68,3.23,4h0a2.3,2.3,0,0,0,.17.48,2.77,2.77,0,0,0,2.49,1.35,19.78,19.78,0,0,0,3.92-.26,40.41,40.41,0,0,0,6.68-1.71c.15.41.3.82.44,1.23A17.71,17.71,0,0,1,166.35,156.65Zm-12.87-10c1.54-1.59,4.47-1.19,5.15,1v0l-.17,0a21.85,21.85,0,0,1-3.88.32C153.67,148,152.46,147.7,153.48,146.65Zm-.48-2.8a14.54,14.54,0,0,0-1.16,2.12,1.67,1.67,0,0,0-.18.28l-1.26-1.59c.69-.45,1.38-.9,2.06-1.37l1.14-.79c.23-.16.47-.31.7-.48a3.38,3.38,0,0,1-.7,1C153.39,143.28,153.19,143.56,153,143.85Zm.17-2-1.12.79c-.69.49-1.36,1-2,1.49l-.51-.64c-.35-.44-.75-.87-1.1-1.31a9.1,9.1,0,0,0,1.27-.57c.55-.27,1.1-.55,1.64-.84s1.08-.58,1.62-.89a9.65,9.65,0,0,0,.89-.52l.12.54c.07.36.22.78.31,1.2C153.88,141.36,153.53,141.64,153.17,141.89Zm.11-3.21-.8.46-1.57.86-1.58.83a8.3,8.3,0,0,0-1.37.75c-.33-.63,0-1.2.21-1.86s.36-1.13.53-1.7a11.09,11.09,0,0,0,2.41-1c.38-.19.76-.38,1.13-.59a8.82,8.82,0,0,0,.88-.52c.18.85.36,1.7.53,2.55A1.76,1.76,0,0,0,153.28,138.68Zm-1.09-7.25c.25,1.2.5,2.4.74,3.59l-.07,0a2.45,2.45,0,0,0-.57.32l-.5.28c-.37.22-.74.42-1.12.62-.56.3-1.14.57-1.7.88.17-.56.34-1.13.5-1.69a18.55,18.55,0,0,0,.95-4.14Q151.31,131.39,152.19,131.43Zm20.22,11.75a31.78,31.78,0,0,1-6.13,2.42c-.55-1.47-1.16-2.92-1.76-4.34-1.27-3-2.69-5.87-4.23-8.71C164.28,136.15,168.36,139.65,172.41,143.18Zm-15.08-11.46a103.37,103.37,0,0,1,6.84,14.57c-1.31.42-2.63.79-4,1.09a1.06,1.06,0,0,0,0-.39,4.47,4.47,0,0,0-5-2.94,5.18,5.18,0,0,0-1.4.43,8,8,0,0,1,.43-.69,5.89,5.89,0,0,0,1-1.61,4,4,0,0,0-.16-1.79c-.56-3-1.12-5.95-1.69-8.93H154c1.11,0,2.2,0,3.27-.13A1,1,0,0,0,157.33,131.72Zm18.29-10a35.35,35.35,0,0,1-43.31,0c-5.51-4.58-8.85-10.81-8.85-17.66S126.8,91,132.31,86.37a35.35,35.35,0,0,1,43.31,0c5.51,4.58,8.85,10.81,8.85,17.66S181.13,117.11,175.62,121.69Z" transform="translate(-113.16 -76.59)"/><path class="cls-1" d="M128.93,95.19a1.34,1.34,0,0,0-1.31.55l-.06.11a2,2,0,0,0-.32.45,3.59,3.59,0,0,0-.26,1.3,5.82,5.82,0,0,0,.08,1.1c0,.25,0,.5,0,.75a2,2,0,0,0,.36,1.1,1.44,1.44,0,0,0,1.42.54,1.74,1.74,0,0,0,1.2-1,3,3,0,0,0,.19-1c0-.21.07-.42.09-.62a4.52,4.52,0,0,0-.31-2.33A1.54,1.54,0,0,0,128.93,95.19Z" transform="translate(-113.16 -76.59)"/><path class="cls-1" d="M152.11,95.19a1.34,1.34,0,0,0-1.31.55l-.06.11a2,2,0,0,0-.32.45,3.59,3.59,0,0,0-.26,1.3,5.82,5.82,0,0,0,.08,1.1c0,.25,0,.5,0,.75a2,2,0,0,0,.36,1.1,1.44,1.44,0,0,0,1.42.54,1.74,1.74,0,0,0,1.2-1,3,3,0,0,0,.19-1c0-.21.07-.42.09-.62a4.52,4.52,0,0,0-.31-2.33A1.54,1.54,0,0,0,152.11,95.19Z" transform="translate(-113.16 -76.59)"/><path class="cls-1" d="M143.43,103.91a5.63,5.63,0,0,1-1.53,1.43,5,5,0,0,1-2.17.57,9,9,0,0,1-2.42-.36,8,8,0,0,1-1.23-.47,3,3,0,0,0-1.26-.42c-.18,0-.38.13-.33.34.21,1,1.4,1.63,2.22,2.09a6.51,6.51,0,0,0,6.09,0,5.05,5.05,0,0,0,2.29-2.21A1,1,0,0,0,143.43,103.91Z" transform="translate(-113.16 -76.59)"/></svg>