<svg id="Layer_1" data-name="Layer 1" xmlns="http://www.w3.org/2000/svg" viewBox="0 0 84.3 137.84"><defs><style>.cls-1{fill:#fcfcfc;}</style></defs><title>Untitled-1</title><path class="cls-1" d="M127.07,102.52a1.45,1.45,0,0,0-1.36.58.75.75,0,0,1-.07.12,1.56,1.56,0,0,0-.32.47,3.6,3.6,0,0,0-.27,1.34,6.25,6.25,0,0,0,.08,1.14c0,.26,0,.53,0,.79a2.16,2.16,0,0,0,.39,1.13,1.46,1.46,0,0,0,1.47.56,1.76,1.76,0,0,0,1.24-1,2.84,2.84,0,0,0,.2-1.08,5.13,5.13,0,0,0,.1-.65,4.82,4.82,0,0,0-.32-2.41A1.67,1.67,0,0,0,127.07,102.52Z" transform="translate(-104.74 -74.18)"/><path class="cls-1" d="M149.23,107a2.07,2.07,0,0,0,.38,1.13,1.46,1.46,0,0,0,1.47.56,1.76,1.76,0,0,0,1.24-1,2.84,2.84,0,0,0,.2-1.08,5.13,5.13,0,0,0,.1-.65,4.71,4.71,0,0,0-.32-2.41,1.67,1.67,0,0,0-1.15-1,1.45,1.45,0,0,0-1.36.58.75.75,0,0,1-.07.12,1.56,1.56,0,0,0-.32.47,3.6,3.6,0,0,0-.27,1.34,6.25,6.25,0,0,0,.08,1.14C149.21,106.43,149.21,106.7,149.23,107Z" transform="translate(-104.74 -74.18)"/><path class="cls-1" d="M142.14,111.58a5.68,5.68,0,0,1-1.6,1.49,5,5,0,0,1-2.25.59,9.3,9.3,0,0,1-2.51-.37,7.34,7.34,0,0,1-1.28-.49,2.94,2.94,0,0,0-1.31-.43c-.19,0-.39.14-.35.35.23,1,1.46,1.69,2.32,2.17a6.6,6.6,0,0,0,3.43.77,6.68,6.68,0,0,0,2.89-.79,5.2,5.2,0,0,0,2.38-2.3A1,1,0,0,0,142.14,111.58Z" transform="translate(-104.74 -74.18)"/><path class="cls-1" d="M186.66,98a11.81,11.81,0,0,0-5.11-1.24c-3.27-12.88-17-22.59-33.39-22.59C129.33,74.18,114,87,114,102.69c0,12.16,9.18,22.56,22.06,26.65-.7.74-1.35,1.54-2,2.32-1.12,1.37-2.22,2.77-3.32,4.15l-5.11,6.38a58.46,58.46,0,0,0-3.09-8.89c-.8-1.85-1.65-3.67-2.52-5.48a24,24,0,0,0-2.69-4.92c-2.45-3-6.37-2.47-9.46-.85a5.23,5.23,0,0,0-3.1,3.64,3.27,3.27,0,0,0,2.13,3.63c3.31,1.22,7.26-.9,9.55-3.35.49.92.9,1.92,1.33,2.81.82,1.7,1.62,3.4,2.38,5.13A57.65,57.65,0,0,1,123.89,145a1.18,1.18,0,0,0,2.08.54l6.45-8.44c1.08-1.4,2.17-2.8,3.23-4.21l.4-.54c-.33,1-.62,2.11-.93,3.16q-.94,3.25-1.85,6.52c-1.18,4.33-2.32,8.67-3.36,13q-.78,3.3-1.48,6.61a30.61,30.61,0,0,0-.92,6.65c0,3.65,1.76,7.28,5.42,8.5a14.41,14.41,0,0,0,2.34.53,52,52,0,0,0-1.26,5.82c-.47,2.55-.84,5.11-1.16,7.68s-.61,5.15-.82,7.73c-.16,2.09-.22,4.2-.36,6.3a15.38,15.38,0,0,0-7.81-.69c-2.55.44-6.58,1.63-6.5,4.87s3.77,3.16,6.06,2.8a37,37,0,0,0,9.81-3,1.2,1.2,0,0,0,.56-1.69,1.56,1.56,0,0,0,.14-.68c-.06-2.53.21-5.12.39-7.64s.4-5.17.68-7.74.61-5,.95-7.51c.28-2,.67-4.06.83-6.1l2,.13c2.17.13,4.35.21,6.53.19a51,51,0,0,0,11.55-1.25c0,2.17.3,4.37.49,6.51.25,2.77.52,5.54.79,8.3.55,5.53,1.11,11.06,1.59,16.59a1.13,1.13,0,0,0,.7.9,15,15,0,0,0,9,.15c2.27-.65,6.45-2.3,6.33-5.23-.13-3.09-4-2.92-6.15-2.59a20.62,20.62,0,0,0-8,3q-.72-6.56-1.4-13.11-.42-4-.87-8.08a68.66,68.66,0,0,0-.91-6.83c3.14-.91,6.37-2.51,7.39-5.87a13.36,13.36,0,0,0,.28-5.49c-.26-2.14-.57-4.28-.88-6.41q-1.11-7.41-2.62-14.72c-.08-.41-.16-.81-.25-1.21,1.07,1.61,2.19,3.18,3.32,4.69a1.19,1.19,0,0,0,1.66.21A67.24,67.24,0,0,0,183,126.25c1-2,3.34-6.42,2-8.73q.92-3.12,1.82-6.24a73.67,73.67,0,0,0,2.14-7.69A5.13,5.13,0,0,0,186.66,98ZM110.82,126.8c-.82.27-3.41.94-3.63-.43s2.26-2.42,3.32-2.8A4.47,4.47,0,0,1,115,124,8.89,8.89,0,0,1,110.82,126.8ZM125.24,209c-.74.17-5.26,1.41-5.4,0-.1-1,1.69-1.55,2.38-1.8a12.9,12.9,0,0,1,3.2-.65,13.69,13.69,0,0,1,5.4.71A33.16,33.16,0,0,1,125.24,209Zm37-2.12a21.27,21.27,0,0,1,6.33-3c.56-.15,5.23-1.24,4.78.16-.27.85-1.73,1.47-2.46,1.81a13.16,13.16,0,0,1-3.09,1.07,14.06,14.06,0,0,1-5.67,0ZM116.47,102.69c0-14.36,14.21-26,31.69-26,14.93,0,27.46,8.53,30.8,20-.75,0-1.49-.1-2.24-.13a14.72,14.72,0,0,0-3.81.08c-2.17.51-3.31,2.38-3.78,4.41-.55,2.43-.75,5-1.1,7.44-.43,3.06-.86,6.13-1.27,9.19-.3,2.19-.71,4.44-.93,6.67a36.42,36.42,0,0,1-17.67,4.47C130.68,128.74,116.47,117.05,116.47,102.69Zm43.42,39c.92,4,1.7,8,2.37,12s1.42,8,1.73,12a8.32,8.32,0,0,1-.74,4.87,7.31,7.31,0,0,1-3.76,2.86,35.69,35.69,0,0,1-11.17,2,83.44,83.44,0,0,1-11.83-.27c-1.75-.15-3.62-.46-4.9-1.77a7,7,0,0,1-1.78-4.37,21.69,21.69,0,0,1,.69-6.26q.62-3,1.31-6c1.05-4.57,2.22-9.11,3.44-13.64l1.83-6.74a52.17,52.17,0,0,0,1.55-6.24,40.06,40.06,0,0,0,17.84.26.9.9,0,0,0,.22.56.78.78,0,0,0,0,.62,36.56,36.56,0,0,0,1.68,4.06C158.88,137.59,159.41,139.63,159.89,141.68Zm14-5a64.26,64.26,0,0,1-7.18,7.93c-1.48-2.06-2.88-4.17-4.22-6.32-.65-1-1.25-2.1-1.86-3.16-.46-1.85-1-3.69-1.54-5.5a37.2,37.2,0,0,0,6.47-2.49,2.4,2.4,0,0,0,.14,1.22,3.3,3.3,0,0,0,2.81,1.73c2.54.35,5.13.5,7.69.76a1,1,0,0,0,.3,0,6.15,6.15,0,0,0,1,.55A63.36,63.36,0,0,1,173.93,136.71ZM181.87,123c-.68,1.62-1.44,3.21-2.25,4.77-.29.54-.59,1.07-.89,1.61a5,5,0,0,1-2.61-6.53,7.41,7.41,0,0,1,2.87-3.37,6.3,6.3,0,0,1,3-1.15c0,.11-.07.22-.1.34l1.1.12C183.6,119.81,182.22,122.22,181.87,123Zm4.47-19.58c-.48,2.36-1.35,4.7-2,7l-1.68,5.67c-3.48-.55-7.22,2.61-8.56,5.57a7.74,7.74,0,0,0,.26,6.66l-4.09-.27a6.56,6.56,0,0,1-2.5-.34c-.06,0-.09-.07-.15-.1l-.22-.15-.09-.11,0-.05a62.17,62.17,0,0,0,1.24-6.89c.35-2.4.71-4.79,1.07-7.19s.72-4.93,1.07-7.39c.16-1.11.32-2.22.49-3.34a7,7,0,0,1,.74-2.62c1-1.74,4.09-1,5.75-.92a35.29,35.29,0,0,1,6.41.66,3.94,3.94,0,0,1,1.9,1A3.08,3.08,0,0,1,186.34,103.45Z" transform="translate(-104.74 -74.18)"/></svg>