<svg id="Layer_1" data-name="Layer 1" xmlns="http://www.w3.org/2000/svg" viewBox="0 0 110.81 162.96"><defs><style>.cls-1{fill:#fcfcfc;}</style></defs><title>Untitled-1</title><path class="cls-1" d="M164.5,139.47a3.17,3.17,0,0,0,.22,1.18,1.94,1.94,0,0,0,1.37,1.15,1.61,1.61,0,0,0,1.61-.62,2.28,2.28,0,0,0,.42-1.24c0-.29,0-.58,0-.87a6.51,6.51,0,0,0,.08-1.25,3.94,3.94,0,0,0-.29-1.48,2,2,0,0,0-.36-.51l-.07-.13a1.56,1.56,0,0,0-1.5-.63,1.76,1.76,0,0,0-1.25,1,5.14,5.14,0,0,0-.35,2.66A6.06,6.06,0,0,0,164.5,139.47Z" transform="translate(-94.75 -68.43)"/><path class="cls-1" d="M141.11,135.83l-.07-.13a1.55,1.55,0,0,0-1.49-.63,1.78,1.78,0,0,0-1.26,1,5.14,5.14,0,0,0-.35,2.66,6.06,6.06,0,0,0,.1.71,3.17,3.17,0,0,0,.22,1.18,2,2,0,0,0,1.37,1.15,1.6,1.6,0,0,0,1.61-.62,2.2,2.2,0,0,0,.42-1.24c0-.29,0-.58,0-.87a6.52,6.52,0,0,0,.09-1.25,4,4,0,0,0-.3-1.48A1.82,1.82,0,0,0,141.11,135.83Z" transform="translate(-94.75 -68.43)"/><path class="cls-1" d="M153.35,149.5a7.25,7.25,0,0,0,3.77-.84c.94-.53,2.3-1.25,2.54-2.39.05-.24-.17-.39-.38-.39a3.42,3.42,0,0,0-1.44.48,7.71,7.71,0,0,1-1.41.53,9.51,9.51,0,0,1-2.76.41,5.61,5.61,0,0,1-2.47-.65,6.47,6.47,0,0,1-1.75-1.63,1.1,1.1,0,0,0-1.89,1.09,5.76,5.76,0,0,0,2.62,2.52A7.16,7.16,0,0,0,153.35,149.5Z" transform="translate(-94.75 -68.43)"/><path class="cls-1" d="M205.19,135.22a4.08,4.08,0,0,0-5.38-2.47c-2.52,1.11-3.8,4.31-4.41,6.79a15.92,15.92,0,0,0,.5,9.09,1.06,1.06,0,0,0,.19.33,45,45,0,0,1-17.88,10.6,74.73,74.73,0,0,1-12.06,2.69c12.17-5.19,20.52-15.74,20.52-27.9,0-14-11.07-25.89-26.29-29.89l0,0c-2.09-8-4.09-16.11-6.33-24.11a3.81,3.81,0,0,0,2.63-2,4,4,0,0,0-1.35-4.87,3.41,3.41,0,0,0-1.44-4.27,4,4,0,0,0-4.27.24,2.37,2.37,0,0,0-1.86-.95,2.92,2.92,0,0,0-2.58,1.44,2.09,2.09,0,0,0-2.21.18c-1.48,1.12-1.21,2.81-.55,4.27A2.8,2.8,0,0,0,141,77.43c.42,1.76,1.92,2.7,3.5,3.28-1.47,3.25-3,6.45-4.35,9.75s-2.81,6.84-4.19,10.27c-.67,1.64-1.33,3.29-2,4.93l0,0c-13.15,4.88-22.35,15.87-22.35,28.64,0,12.33,8.59,23,21,28.12a79.16,79.16,0,0,1-8-1.19A42.61,42.61,0,0,1,110,155.52a30,30,0,0,1-8.94-8.84,16.18,16.18,0,0,0,3-7.9c.23-2.47.11-5.78-1.71-7.69s-5.09-1.17-6.51,1c-1.57,2.42-1.09,5.84-.46,8.5,2.71,11.39,13.16,19.18,24,22.08a64.44,64.44,0,0,0,10.6,1.86c1.88.18,3.76.29,5.64.34a28.25,28.25,0,0,0,3.19,0c-.55,1.58-.93,3.21-1.36,4.82L135.77,176c-1.09,4.08-2.14,8.16-3.18,12.24-.91,3.55-1.75,7.31.34,10.63,1.54,2.45,4.3,3.89,7,4.67a30.09,30.09,0,0,0,4.32.89c-.11.64-.16,1.31-.23,2-.13,1-.23,2.08-.33,3.12-.21,2.23-.43,4.45-.62,6.68s-.38,4.46-.56,6.69c-.1,1.11-.19,2.23-.29,3.34,0,.71.08,1.9-.68,2.27a6.71,6.71,0,0,1-2.68,0c-1.16,0-2.31-.12-3.46-.2s-4.59-.09-4.23-1.89c.28-1.45,2.83-1.8,3.94-1.88a10.77,10.77,0,0,1,5.54,1.19c1.37.67,2.16-1.43.88-2.14-3-1.7-7.48-2.21-10.62-.44a3.92,3.92,0,0,0,.57,7.42,20.94,20.94,0,0,0,6.17.71c1.75.06,4.16.46,5.67-.66s1.29-3.5,1.42-5.24q.24-3.35.5-6.69.27-3.8.51-7.6c.09-1.34.18-2.68.24-4,0-.78.13-1.63.11-2.45,1.6.14,3.21.2,4.81.22a60.15,60.15,0,0,0,9.08-.54,111.61,111.61,0,0,0,.69,23.11,1.29,1.29,0,0,0,.8,1,17.69,17.69,0,0,0,9.27,1.06c2.6-.42,6.23-1.43,6.72-4.49.52-3.27-2.78-3.95-5.26-4.08a37.53,37.53,0,0,0-9.57.77c-.25-2.32-.46-4.66-.59-7-.2-3.55-.29-7.1-.47-10.65l1.35-.26c3.13-.66,6.34-1.93,8.06-4.79s1.5-6.56.81-9.8c-.94-4.37-2.23-8.7-3.46-13-1.12-3.92-2.31-7.82-3.54-11.72a64.22,64.22,0,0,0,14.62-3.11,48.59,48.59,0,0,0,14.43-7.52,37.56,37.56,0,0,0,9.91-11.31C205,140.34,206.2,137.73,205.19,135.22ZM98,139.53c-.42-1.88-1.2-5.21.56-6.64,2.61-2.12,3.11,3.28,3.07,4.69a13.88,13.88,0,0,1-2,6.7A22.18,22.18,0,0,1,98,139.53Zm71.68,83.94c.85,0,5.68-.46,5.22,1.2-.25.9-1.45,1.28-2.23,1.55a14,14,0,0,1-3.33.69,15,15,0,0,1-6.18-.69c-.08-.6-.16-1.21-.23-1.82A36.44,36.44,0,0,1,169.72,223.47Zm-9.9-109.87c-.07,1.1-1,1.62-1.93,1.93-2.56.82-5.66.62-8.3.45A41,41,0,0,1,141,114.5a30.79,30.79,0,0,0,8.09-2.1,32.59,32.59,0,0,0,5.06-2.5c.88-.53,1.73-1.11,2.55-1.72a10.57,10.57,0,0,0,1.53-1.21c.19.72.38,1.44.56,2.17C159.16,110.48,159.9,112.19,159.82,113.6Zm-21.62-12c.14-.36.27-.72.41-1.07A23.44,23.44,0,0,0,142.94,99q2.42-1,4.75-2.17c1.47-.75,2.92-1.55,4.33-2.41.7-.42,1.39-.87,2.06-1.33l.45-.29q.78,3,1.55,5.91c-1.45.72-2.84,1.64-4.29,2.34a53.32,53.32,0,0,1-5.17,2.18c-1.82.65-3.65,1.25-5.52,1.75-1.52.39-3.06.67-4.59,1C137.07,104.57,137.63,103.1,138.2,101.64Zm-2.35,6a41.07,41.07,0,0,0,11.2-2.89c1.8-.69,3.58-1.47,5.31-2.31a40.6,40.6,0,0,0,4.13-2.15q.72,2.79,1.46,5.6a10.5,10.5,0,0,0-2,1.35c-.79.56-1.62,1.08-2.47,1.57a38.52,38.52,0,0,1-4.93,2.37,53.82,53.82,0,0,1-10.31,2.42c-1.4-.61-2.7-1.52-3-3A5.84,5.84,0,0,1,135.85,107.63ZM143,77.71c-.36-.57-.51-2,.55-1.93a.91.91,0,0,0,.82-1.44c-.39-.65-.94-1.56-.64-2.34.07-.17.24-.51.47-.49l.17.11h0c0,.11-.06.23-.08.34-.19,1.13,1.44,1.48,1.89.5a2.12,2.12,0,0,0,.18-.71,1.77,1.77,0,0,1,.84-1.19c.23-.12,1.13-.1.86.31-.7,1.05.85,2.25,1.57,1.2a2.8,2.8,0,0,1,3-1.49,1.64,1.64,0,0,1,1.17,1c.14.42.14,1.1-.29,1.34-.65.36-.88,1.54,0,1.81a2,2,0,0,1,1.37,2.65,2,2,0,0,1-2.79.79,1,1,0,0,0-1.62.68,2.07,2.07,0,0,1-3.86.91,1.15,1.15,0,0,0-1.47-.59l-.2.12A5.17,5.17,0,0,1,143,77.71Zm2.41,4a4.14,4.14,0,0,0,3.75,1.16,4.26,4.26,0,0,0,2.39-1.5c.36,1.48.73,3,1.11,4.43a36.49,36.49,0,0,1-5.59,3.44c-1,.51-2.06,1-3.11,1.41-.6.24-1.26.44-1.88.69a1,1,0,0,0,0-.1C143.33,88.12,144.36,84.93,145.44,81.74Zm-3.84,11a10.82,10.82,0,0,0,2.8-.8,32.65,32.65,0,0,0,3.33-1.42,40.51,40.51,0,0,0,5.33-3.21l1.07,4.1c-.22.15-.45.32-.67.46-.73.46-1.46.91-2.2,1.35q-2.12,1.25-4.31,2.36c-1.47.73-3,1.4-4.48,2-.76.31-1.52.61-2.29.9l-.89.31Q140.46,95.74,141.6,92.7Zm-27.27,41.65c0-10.94,7.51-20.45,18.51-25.27a6.25,6.25,0,0,0-.11,1.5c.19,2.65,2.32,4.41,4.57,5.46a32,32,0,0,0,9.46,2.39,38.6,38.6,0,0,0,10.13.07c2.31-.32,4.88-1.35,5.49-3.84.39-1.56-.15-3.12-.55-4.62l-.66-2.54c13.29,4,22.79,14.54,22.79,26.85,0,15.78-15.62,28.61-34.81,28.61S114.33,150.13,114.33,134.35Zm53.51,51.07c.81,3,1.9,6.22,1.55,9.36s-2.54,4.9-5.41,5.77a41.55,41.55,0,0,1-10.24,1.38,51.39,51.39,0,0,1-10.8-.6c-2.44-.43-5.16-1.23-6.93-3.07-2.36-2.43-1.65-5.88-.94-8.86,1-4.19,2-8.39,3-12.59l1.44-6.31a54.56,54.56,0,0,0,1.15-5.66,44.24,44.24,0,0,0,20.57-.84.9.9,0,0,0,.55.59Q165,174.94,167.84,185.42ZM203,138.94a22.32,22.32,0,0,1-3.24,5.77c-.58.79-1.19,1.56-1.83,2.3a13.44,13.44,0,0,1-.34-6.08c.34-2,1.16-4.65,2.91-5.81a1.58,1.58,0,0,1,2.3.44A3.67,3.67,0,0,1,203,138.94Z" transform="translate(-94.75 -68.43)"/></svg>