<svg id="Layer_1" data-name="Layer 1" xmlns="http://www.w3.org/2000/svg" viewBox="0 0 113.22 133.94"><defs><style>.cls-1{fill:#fcfcfc;}</style></defs><title>Untitled-1</title><path class="cls-1" d="M162.8,98l-.07-.12a1.54,1.54,0,0,0-1.49-.64,1.8,1.8,0,0,0-1.26,1,5.14,5.14,0,0,0-.35,2.66,6.06,6.06,0,0,0,.1.71,3.17,3.17,0,0,0,.22,1.18,2,2,0,0,0,1.37,1.15,1.61,1.61,0,0,0,1.61-.61,2.26,2.26,0,0,0,.42-1.25c0-.29,0-.58,0-.86a7.63,7.63,0,0,0,.09-1.26,4,4,0,0,0-.3-1.48A1.82,1.82,0,0,0,162.8,98Z" transform="translate(-106.85 -65.21)"/><path class="cls-1" d="M136.35,98l-.08-.12a1.53,1.53,0,0,0-1.49-.64,1.82,1.82,0,0,0-1.26,1,5.14,5.14,0,0,0-.35,2.66,6.06,6.06,0,0,0,.1.71,3.38,3.38,0,0,0,.22,1.18,2,2,0,0,0,1.37,1.15,1.61,1.61,0,0,0,1.61-.61,2.35,2.35,0,0,0,.43-1.25c0-.29,0-.58,0-.86A6.68,6.68,0,0,0,137,100a4,4,0,0,0-.3-1.48A2,2,0,0,0,136.35,98Z" transform="translate(-106.85 -65.21)"/><path class="cls-1" d="M154.51,108.06a3.33,3.33,0,0,0-1.43.48,8.3,8.3,0,0,1-1.41.53,10,10,0,0,1-2.76.42,5.42,5.42,0,0,1-2.47-.66,6.36,6.36,0,0,1-1.76-1.63,1.1,1.1,0,0,0-1.89,1.09,5.76,5.76,0,0,0,2.62,2.52,7.41,7.41,0,0,0,6.94,0c.94-.53,2.3-1.25,2.55-2.39C155,108.21,154.72,108.06,154.51,108.06Z" transform="translate(-106.85 -65.21)"/><path class="cls-1" d="M220.07,100.35a19.36,19.36,0,0,0-38.19-4.53c-.46-16.95-17.1-30.61-37.5-30.61-20.69,0-37.53,14.05-37.53,31.32,0,13.5,10.3,25,24.68,29.43-2.19,3.64-4.08,7.46-5.91,11.28-2.23,4.67-4.35,9.39-6.21,14.22q-1.38,3.57-2.57,7.2c-.72,2.25-1.45,4.69-.49,7a4.55,4.55,0,0,0,4.58,2.93,6.17,6.17,0,0,0,4.55-3.53c2-4,.16-9.29-3.39-11.79a1.31,1.31,0,0,0-.62-.25c2-5.32,4.34-10.52,6.71-15.63,1.23-2.65,2.51-5.29,3.71-8-.1.51-.19,1-.28,1.53-.37,2.09-.72,4.19-1,6.29q-.87,6.32-1.41,12.65c-.17,2.05-.37,4.11-.44,6.16a11.71,11.71,0,0,0,.79,5.31c1.32,2.86,4.17,4.31,7.11,5a31.6,31.6,0,0,0,6.4.7c-.78,4.65-1,9.4-1.38,14.09-.19,2.38-.36,4.77-.55,7.15-.06.8-.09,1.63-.12,2.46l-6.53-.14c-1.67,0-3.46-.13-5,.74a3.61,3.61,0,0,0-1.59,4.29,5.25,5.25,0,0,0,4.32,3.21,25.47,25.47,0,0,0,6.35.2c1.88-.12,3.77-.59,4.5-2.55s.52-4.29.66-6.3l.48-7.17c.35-5.29.86-10.65.74-16l2.74-.05a73.73,73.73,0,0,0,10-.9,36.77,36.77,0,0,0-.54,6.54c-.1,2.68-.21,5.35-.32,8q-.18,4.74-.34,9.49a1.38,1.38,0,0,0,0,.7c-.06,1.88-.13,3.76-.2,5.64a1.3,1.3,0,0,0,.78,1.34,16,16,0,0,0,8.46.53c2.18-.47,5.05-1.55,5.33-4.13s-2.6-3.92-4.72-4.48a20.12,20.12,0,0,0-7.08-.64c.09-2.72.18-5.44.25-8.15l.21-7.82a34.64,34.64,0,0,0-.15-7.34l.46-.07c3-.6,6-1.62,8.17-3.9,2.5-2.69,2.4-6.43,1.8-9.82a170.68,170.68,0,0,0-7.14-27.34,1.38,1.38,0,0,0-.28-.48c1.63.36,3.24.78,4.87,1.11,2.07.42,4.16.75,6.24,1.15,4.15.79,8.29,1.68,12.4,2.64l.27.07c-.88,3,.74,6.22,3.32,7.9a9.17,9.17,0,0,0-.48.87c-.24.5-.48,1-.74,1.5a1.13,1.13,0,0,0,.16,1.17,3.21,3.21,0,0,0,1.45.93,1.17,1.17,0,0,0,.42.2,1.26,1.26,0,0,0,.89-.11,2.43,2.43,0,0,0,1.38-.69,2.22,2.22,0,0,0,.6-2.2,2.59,2.59,0,0,0-.17-.38,13.54,13.54,0,0,0,4.07,0c1.9-.3,4.06-.86,5.12-2.61a3.36,3.36,0,0,0-1-4.71,10.18,10.18,0,0,0-2.83-1.06c-.93-.27-1.87-.52-2.81-.77a7.35,7.35,0,0,0,1-3c.25-1.09.49-2.18.73-3.27l.37-1.64a5.29,5.29,0,0,0,.26-1.81,18,18,0,0,0,2.77.23A19.4,19.4,0,0,0,220.07,100.35ZM123.2,163.57c-.5,1.2-2,2.91-3.42,2.17-1.7-.86-1.28-3.41-.88-4.86.5-1.81,1.07-3.6,1.68-5.38C123,157.26,124.41,160.7,123.2,163.57ZM140.58,195c-.21,1-.86,1.06-1.79,1.14a24.65,24.65,0,0,1-3.33.06c-1.44-.07-4.39,0-5-1.7s2.86-1.45,3.69-1.45l6.69,0A17.57,17.57,0,0,1,140.58,195Zm-9.33-38.68c.05-1.91.21-3.82.36-5.73.21-2.85.5-5.7.82-8.55a18.49,18.49,0,0,0,4.13-6.64,23.6,23.6,0,0,0,1.67-8v0a43.2,43.2,0,0,0,5.62.42.56.56,0,0,0-.07.23c-.5,4.74-.33,9.53-.47,14.29-.14,4.46-.3,8.91-.59,13.36l-5.29.4c-1,.08-2.09.15-3.13.25a5.87,5.87,0,0,0-2.72.62.81.81,0,0,0-.33.36C131.24,157,131.24,156.68,131.25,156.35Zm1.6-17.94c0-.15,0-.3.05-.45.28-2.18.56-4.36.87-6.53.23-1.58.47-3.15.55-4.73.54.12,1.08.24,1.62.34v.15a22.91,22.91,0,0,1-1.27,7.33,24,24,0,0,1-1.48,3.32C133.08,138,133,138.22,132.85,138.41ZM164,191.83c.9.15,4.46.63,4.4,2.11S165,195.89,164,196a13.25,13.25,0,0,1-5.13-.32c0-1.33.08-2.66.13-4A18.67,18.67,0,0,1,164,191.83Zm3.19-33.59c-1,2.69-3.85,3.94-6.44,4.6a57.39,57.39,0,0,1-10.37,1.43,62.52,62.52,0,0,1-11-.12c-2.5-.28-5.5-.9-7-3.11a6,6,0,0,1-.94-2.55,1.11,1.11,0,0,0,.49.42,6.09,6.09,0,0,0,2.85.07l3.12-.3,6.23-.63a1.22,1.22,0,0,0,1-1.05c.27-4.86.49-9.72.53-14.58a89.52,89.52,0,0,0-.57-14.37.49.49,0,0,0-.08-.21,44.36,44.36,0,0,0,7.18-.67,5.54,5.54,0,0,0-.13,1.26c-.05.88-.08,1.76-.09,2.63,0,1.86,0,3.73.11,5.58.15,3.89.46,7.78.95,11.64.36,2.92,1.28,5.63,4.44,6.4a19.8,19.8,0,0,0,5,.31c1.58,0,3.59.17,5-.65A8.56,8.56,0,0,1,167.17,158.24Zm-3.83-21.94c1.08,3.8,2.06,7.63,2.89,11.51.34,1.58.68,3.17,1,4.77-1.33-.39-2.9,0-4.26,0a22,22,0,0,1-4.73-.17c-3.09-.6-2.93-4.44-3.2-6.92-.38-3.35-.64-6.72-.8-10.09-.07-1.62-.09-3.23-.15-4.84,0-1,.23-2.73-.31-3.73a43.14,43.14,0,0,0,4.2-1.14,7.28,7.28,0,0,0-.14,5.74,8.3,8.3,0,0,0,4.75,4.84A1,1,0,0,0,163.34,136.3Zm-.7-2.37a6.51,6.51,0,0,1-2.87-3.24,7.89,7.89,0,0,1-.38-5.27l0-.2.68-.26a1.43,1.43,0,0,0,0,.84C161,128.5,161.83,131.21,162.64,133.93Zm-18.26-8.78a41.68,41.68,0,0,1-10.48-1.33.62.62,0,0,0-.86-.24c-13.65-3.87-23.48-14.53-23.48-27,0-15.78,15.62-28.62,34.82-28.62S179.2,80.75,179.2,96.53,163.58,125.15,144.38,125.15Zm34.57.12q-4.29-.85-8.6-1.56c-2-.34-4-.51-6-.66,8.91-4.68,15.3-12.39,17.09-21.39a19.39,19.39,0,0,0,13.33,17.11,20.33,20.33,0,0,0-.76,1.9c-.3.8-.61,1.6-.86,2.41-.53,1.69-1,3.37-1.57,5.06C187.36,127.08,183.17,126.1,179,125.27Zm19.38,7.06a3.9,3.9,0,0,1,1.93.89c.55.69,0,1.53-.65,1.94a8.74,8.74,0,0,1-5.06,1,6.8,6.8,0,0,1-4.88-2.16,4.5,4.5,0,0,1-1-4.18C191.91,130.55,195.14,131.39,198.33,132.33Zm-14.31-32A16.68,16.68,0,1,1,200.7,117,16.69,16.69,0,0,1,184,100.35Z" transform="translate(-106.85 -65.21)"/><path class="cls-1" d="M192.05,97.37a3.71,3.71,0,0,0-1-.17h-.78V97l0-.11.09-.2A4.75,4.75,0,0,1,191,96a2.89,2.89,0,0,1,.63-.46l.18-.07h.16l.23,0h0l.23.09.08,0,.21.14A.83.83,0,0,0,194,95a1.87,1.87,0,0,0-1.56-1.5,2.87,2.87,0,0,0-2,.26c-1.29.69-2.58,2.23-2.4,3.77a2.21,2.21,0,0,0,1.43,1.82,3.33,3.33,0,0,0,1,.17l.48,0,.18,0,.12,0,.1,0,.06,0,.12.1,0,.07.09.13,0,.07.06.15v.13h0v.17l-.09.2c.08-.15-.05,0-.12.14l-.06,0-.15.1-.11,0,0,0h0l-.14,0h-.15l-.22-.1,0,0-.14-.12-.07-.09-.07-.1-.06-.15c.09.2,0-.12-.05-.17a1.18,1.18,0,0,0-1.6-.85,1.14,1.14,0,0,0-.69.92,3.11,3.11,0,0,0,2.82,3,3.2,3.2,0,0,0,3.3-2.59A3.14,3.14,0,0,0,192.05,97.37Z" transform="translate(-106.85 -65.21)"/><path class="cls-1" d="M201.18,96.18a1.11,1.11,0,0,0,.4-1,1.06,1.06,0,0,0-.66-.83,26.66,26.66,0,0,0-2.67-.83,10.31,10.31,0,0,0-1.23-.25,12.19,12.19,0,0,0-1.35,0,.63.63,0,0,0-.67.45.62.62,0,0,0,.36.72c.38.18.72.39,1.11.57l.29.11c-.07.21-.14.42-.2.62A21.7,21.7,0,0,0,196,98l-.47,2.14c-.15.71-.57,1.72-.22,2.4a1.07,1.07,0,0,0,1.63.41,1.86,1.86,0,0,0,.61-1.31c.07-.36.13-.71.2-1.07.12-.72.25-1.44.38-2.15a20.18,20.18,0,0,0,.34-2.16c0-.15,0-.32,0-.5.53.19,1.06.38,1.59.59A1.06,1.06,0,0,0,201.18,96.18Z" transform="translate(-106.85 -65.21)"/><path class="cls-1" d="M206.27,103.65a5.43,5.43,0,0,0,1.24-5.42,4,4,0,0,0-2-2.07,3.56,3.56,0,0,0-1.61-.36.67.67,0,0,0-.41-.28,2.42,2.42,0,0,0-2.2,1,7.69,7.69,0,0,0-1.17,2.21c-.71,1.93-.89,4.25.8,5.73S204.93,105.12,206.27,103.65Zm-4.22-3.85a11.78,11.78,0,0,1,.56-1.71,1.09,1.09,0,0,0,.75.17l.37-.06.27,0,.23,0,.1,0,.12,0c.07,0,.37.21.18.08l.28.21.08.07.07.07c.05.08.25.41.15.2a3.45,3.45,0,0,1,.14.34v.06l0,.24,0,.27a5.51,5.51,0,0,1-.06.57l0,.07,0,.16c-.05.14-.1.27-.16.41a3.17,3.17,0,0,1-.21.41l-.05.09-.18.26a3.07,3.07,0,0,1-1.21,1l-.15.06-.06,0-.31,0-.18,0s.18.08,0,0l-.18-.08,0,0-.14-.11,0-.05c-.08-.11-.16-.21-.24-.33L202,102l-.06-.17v-.09A4.7,4.7,0,0,1,202.05,99.8Z" transform="translate(-106.85 -65.21)"/><path class="cls-1" d="M208.42,108.26a1.16,1.16,0,0,0,1.27-1l.51-2.35a1,1,0,0,0,.57.08,4.4,4.4,0,0,0,3.26-2.43,4.15,4.15,0,0,0-.36-4.1,2.41,2.41,0,0,0-3.59-.51c-1,.94-1.26,2.5-1.6,3.75a30.68,30.68,0,0,0-1.06,5.28A1.18,1.18,0,0,0,208.42,108.26Zm2.52-7.28c.05-.39.07-.77.1-1.15a1.5,1.5,0,0,1,.27-.5c.24-.25.52-.13.77.11a1.83,1.83,0,0,1,.46,1.5,2.11,2.11,0,0,1-1.91,1.81C210.75,102.16,210.86,101.57,210.94,101Z" transform="translate(-106.85 -65.21)"/></svg>