<svg id="Layer_1" data-name="Layer 1" xmlns="http://www.w3.org/2000/svg" viewBox="0 0 89.62 109.38"><defs><style>.cls-1,.cls-3{fill:#fcfcfc;}.cls-2{fill:none;}.cls-2,.cls-3{stroke:#fcfcfc;stroke-miterlimit:10;stroke-width:2px;}</style></defs><title>Untitled-1</title><path class="cls-1" d="M75.35,147.16a3.22,3.22,0,0,0,.22,1.19,2,2,0,0,0,1.37,1.15,1.62,1.62,0,0,0,1.61-.62,2.23,2.23,0,0,0,.42-1.25c0-.28,0-.57,0-.86a7.63,7.63,0,0,0,.09-1.26,3.9,3.9,0,0,0-.3-1.47,1.86,1.86,0,0,0-.36-.52.75.75,0,0,0-.07-.12,1.54,1.54,0,0,0-1.49-.64,1.79,1.79,0,0,0-1.26,1,5.09,5.09,0,0,0-.35,2.65A6.06,6.06,0,0,0,75.35,147.16Z" transform="translate(-22.47 -110.72)"/><path class="cls-1" d="M52,143.52l-.08-.12a1.53,1.53,0,0,0-1.49-.64,1.81,1.81,0,0,0-1.26,1,5.09,5.09,0,0,0-.35,2.65,6.06,6.06,0,0,0,.1.71,3.44,3.44,0,0,0,.22,1.19,2,2,0,0,0,1.37,1.15,1.62,1.62,0,0,0,1.61-.62,2.32,2.32,0,0,0,.43-1.25c0-.28,0-.57,0-.86a6.68,6.68,0,0,0,.09-1.26,3.9,3.9,0,0,0-.3-1.47A2.06,2.06,0,0,0,52,143.52Z" transform="translate(-22.47 -110.72)"/><path class="cls-1" d="M64.2,157.19a7.15,7.15,0,0,0,3.77-.84c.94-.53,2.3-1.25,2.54-2.38.06-.24-.17-.39-.38-.39a3.19,3.19,0,0,0-1.43.47,7.53,7.53,0,0,1-1.41.53,10,10,0,0,1-2.77.42,5.61,5.61,0,0,1-2.47-.65,6.35,6.35,0,0,1-1.75-1.64c-.79-.9-2.4-.1-1.89,1.09A5.78,5.78,0,0,0,61,156.33,7.32,7.32,0,0,0,64.2,157.19Z" transform="translate(-22.47 -110.72)"/><path class="cls-1" d="M110,201.48a2.82,2.82,0,0,0-2.41.14,2.29,2.29,0,0,0-.27-2.05c.69-4.53,1.19-9.07,2-13.58.43-2.28.89-4.57,1.4-6.84.28-1.2.56-2.4.83-3.61a10.69,10.69,0,0,0,.49-3.4.7.7,0,0,0-.68-.62,1.14,1.14,0,0,0-.87-.25c-7.47.85-14.93,1.74-22.39,2.62a.81.81,0,0,0-.21-.2l-4.15-3a25.38,25.38,0,0,0-2.18-1.49c-.15-.08-.29-.17-.44-.27l-.05-.06a7,7,0,0,0-.6-.62c10.24-5.6,17-15.26,17-26.22,0-17.27-16.83-31.32-37.52-31.32s-37.53,14-37.53,31.32c0,15.67,13.87,28.69,31.89,31-.08.16-.16.33-.23.49a86.76,86.76,0,0,0-6.36,6.81l-3.72,4.11c-1,1.11-2.26,2.42-2,4.05a3.61,3.61,0,0,0,2.35,2.7c1.58.77,3.23,1.41,4.84,2.1l.24.1a17.32,17.32,0,0,0,.49,7,6.79,6.79,0,0,0,5.61,4.79h.2a18.47,18.47,0,0,0,2.13,1.49,15.17,15.17,0,0,0,1.85.92,4.23,4.23,0,0,0,1.1.33,1,1,0,0,0,1.12-.78s0,0,0-.06,0,.05.07.06a1,1,0,0,0,.7,1.29c2.06.33,4.43-.17,6.49-.33l1.46-.13c.9,1.29,2.08,2.42,3,3.67A45.47,45.47,0,0,1,76.6,216h0A3.41,3.41,0,0,0,79,219.91c2.63.78,4.94-1,6.24-3.16a12.75,12.75,0,0,0,1.64-4,6.88,6.88,0,0,0,0-3.71c-1-2.66-4.13-1.92-6-.75a9.44,9.44,0,0,0-3.89,5c-.65-.92-1.31-1.82-2-2.68a32.16,32.16,0,0,0-2.47-2.82l2.88-.27,12.88-1.19,6.21-.6a.82.82,0,0,0,.29.26,45.86,45.86,0,0,1,6.71,4.14,5.49,5.49,0,0,0-.16,3.4,3.09,3.09,0,0,0,2.35,2.08c1.28.2,2.36-.67,3.22-1.51a16.54,16.54,0,0,0,2.35-2.8c1.28-2,2.58-4.59,2.48-7A3.19,3.19,0,0,0,110,201.48ZM78.65,216c0,.1,0-.09,0-.11v-.64a7,7,0,0,1,.1-.92,6.2,6.2,0,0,1,.47-1.59l.21-.37.08-.07a.78.78,0,0,1,.15-.1,9.32,9.32,0,0,1,1.91-2.32,3.91,3.91,0,0,1,2.82-1.16c1.25.15,1.24,1.53,1.07,2.49a10.28,10.28,0,0,1-3.35,6.21,3.1,3.1,0,0,1-2,.67,1.76,1.76,0,0,1-.56,0,1.71,1.71,0,0,1-1-.55c0-.17,0-.34,0-.52S78.66,216.39,78.65,216Zm3.89-43.72L85,174.26l-1.39.17c-.32-.71-.67-1.41-1-2.09l0,0ZM25.18,142c0-15.78,15.62-28.62,34.82-28.62S94.82,126.26,94.82,142,79.2,170.66,60,170.66,25.18,157.82,25.18,142ZM53.8,180.81c.46-2,.92-4,1.44-5.95.38-.53.75-1.08,1.08-1.64h0c1.21.1,2.44.15,3.68.15a43.06,43.06,0,0,0,18.53-4.1.13.13,0,0,0,0,.05l.33.53.22.39h0c.08.17.16.33.25.49a11.47,11.47,0,0,1,.53,1,1.27,1.27,0,0,0,.4.51c.17.31.35.61.51.91.26.48.5,1,.73,1.45-7.08.81-14.16,1.6-21.17,2.86a.66.66,0,0,0-1.2,0c-.71,2.07-.29,4.7-.18,6.85.14,2.52.3,5,.54,7.55.1,1.1.22,2.19.35,3.29l-7.94-3.38c.13-1,.27-2,.37-2.73C52.67,186.33,53.17,183.55,53.8,180.81Zm-4.11,10.08L47.47,190c-.78-.33-3.28-.92-3.14-2,.09-.67.82-1.31,1.24-1.79L47,184.47l3.2-3.67c.63-.73,1.29-1.45,1.94-2.19-.25.84-.48,1.69-.7,2.55A68.5,68.5,0,0,0,49.69,190.89Zm3.36,10.3c-1.27-1.62-1.47-4.29-1.33-6.84l8,3.41a1.2,1.2,0,0,0,.5.1v0a.69.69,0,0,0-.13,0l-4,1.19C54.9,199.44,53.3,199.74,53.05,201.19Zm7.34,4.37a17.69,17.69,0,0,1-1.54-.89A15.71,15.71,0,0,1,56,202.41c-.2-.21-.39-.43-.57-.65l-.07-.09.17-.07,1-.33,3.86-1.22a40.19,40.19,0,0,0,1,6.1A7.9,7.9,0,0,0,60.39,205.56Zm24.86-1.44-11.53,1.15c-1.92.19-3.84.38-5.76.6-1.37.15-2.86.19-4.25.48a1.33,1.33,0,0,0,.08-.45,67.47,67.47,0,0,0-1-7.05c-.33-2.42-.61-4.85-.87-7.28s-.49-4.71-.68-7.08c-.1-1.18-.19-2.36-.29-3.53a20.81,20.81,0,0,0-.28-2.36c7-.32,13.9-1.09,20.84-1.84l.23,0a27.76,27.76,0,0,1,5.15-.52c7.63-.81,15.26-1.6,22.89-2.44-.13.42-.25.83-.37,1.23-.32,1.08-.61,2.16-.88,3.25-.6,2.4-1.16,4.82-1.65,7.24a105.58,105.58,0,0,0-2.18,14.46,1.24,1.24,0,0,0,.41,1,1.9,1.9,0,0,1-.51.67,4.36,4.36,0,0,1-2.21.8c-1.86.28-3.76.38-5.63.56ZM102,207.81a27.88,27.88,0,0,0-4.49-2.37l3.66-.35a17.84,17.84,0,0,0,2.9-.45A16.62,16.62,0,0,0,102,207.81Zm7.29-1a15.57,15.57,0,0,1-3.33,5.27c-.44.46-1.51,1.78-2.21,1.27s-.35-2.06-.15-2.83a1.37,1.37,0,0,0,0-.83,18.19,18.19,0,0,1,3.52-5.15c.55-.56,1.84-2,2.53-.9C110.19,204.55,109.61,205.91,109.27,206.81Z" transform="translate(-22.47 -110.72)"/><polyline class="cls-2" points="38.22 67.88 64.27 85.56 87.34 63.04"/><line class="cls-3" x1="82.16" y1="90.92" x2="69.79" y2="80.17"/><line class="cls-3" x1="54.67" y1="80.17" x2="41.31" y2="95.18"/></svg>