<svg xmlns="http://www.w3.org/2000/svg" xmlns:xlink="http://www.w3.org/1999/xlink" viewBox="0 0 119.34 123.64"><defs><style>.cls-1{isolation:isolate;}.cls-2{fill:#f71d0d;}.cls-3{fill:#f58ac3;}.cls-4{fill:#f84539;}.cls-5{fill:none;}.cls-6{fill:#811107;}.cls-7{opacity:0.5;mix-blend-mode:multiply;}.cls-8{fill:url(#_12);}.cls-9{fill:url(#_12-2);}.cls-10{fill:url(#_12-3);}.cls-11{fill:url(#_12-4);}.cls-12{fill:url(#_12-5);}.cls-13{fill:url(#_12-6);}.cls-14{fill:url(#_12-7);}.cls-15{fill:url(#_12-8);}.cls-16{fill:url(#_12-9);}.cls-17{fill:url(#_134);}.cls-18{fill:#7f489f;}.cls-19{fill:#20abcb;}.cls-20{fill:#1a83b6;}.cls-21{fill:#fefeff;}</style><linearGradient id="_12" x1="133.94" y1="169.78" x2="143.04" y2="169.78" gradientTransform="translate(-3.71 4.67) rotate(-1.64)" gradientUnits="userSpaceOnUse"><stop offset="0" stop-color="#a578b8"/><stop offset="1" stop-color="#4c1c89"/></linearGradient><linearGradient id="_12-2" x1="167.33" y1="94.99" x2="179.56" y2="94.99" xlink:href="#_12"/><linearGradient id="_12-3" x1="128.27" y1="122.81" x2="160.23" y2="122.81" xlink:href="#_12"/><linearGradient id="_12-4" x1="123.36" y1="89.63" x2="124.07" y2="89.63" xlink:href="#_12"/><linearGradient id="_12-5" x1="122.47" y1="89.69" x2="122.74" y2="89.69" xlink:href="#_12"/><linearGradient id="_12-6" x1="171.24" y1="172.93" x2="171.66" y2="172.93" xlink:href="#_12"/><linearGradient id="_12-7" x1="167.11" y1="141.69" x2="196.05" y2="141.69" xlink:href="#_12"/><linearGradient id="_12-8" x1="169.34" y1="176.08" x2="169.55" y2="176.08" xlink:href="#_12"/><linearGradient id="_12-9" x1="106.13" y1="122.98" x2="209.09" y2="122.98" xlink:href="#_12"/><linearGradient id="_134" x1="115.32" y1="130.38" x2="208.81" y2="130.38" gradientTransform="translate(-3.71 4.67) rotate(-1.64)" gradientUnits="userSpaceOnUse"><stop offset="0" stop-color="#461766"/><stop offset="1" stop-color="#491773"/></linearGradient></defs><title>Untitled-1</title><g class="cls-1"><g id="Layer_1" data-name="Layer 1"><path class="cls-2" d="M218.89,91.24a1.09,1.09,0,0,0-.86-.59,1.35,1.35,0,0,0-.41-.07H200.7l-6.07,0q-12.31,0-24.62,0l-14.79,0q-17.75,0-35.48.14c-2.3,0-4.61,0-6.92,0H101.07a1.58,1.58,0,0,0-1.25.22.28.28,0,0,0-.15.17.43.43,0,0,0,0,.19c1.49,3.28,3.51,6.42,5.28,9.56,2.52,4.48,5.13,8.92,7.71,13.37l3.72,6.4,1.56,2.68,11.2,19.28,5.46,9.44q3.5,6,7,12.09l3.87,6.68q4,7,8.1,14c1,1.67,2,3.34,2.94,5l2.43,4.15a1,1,0,0,0,.84.46.94.94,0,0,0,.83-.46q1.8-3.17,3.59-6.33l2.23-3.92c1.29-2.27,2.6-4.54,3.9-6.8l2.18-3.8,4.75-8.28,7.64-13.33q12.54-21.79,25-43.62l5.69-10,3.24-5.68A1.13,1.13,0,0,0,218.89,91.24Z" transform="translate(-99.67 -70.88)"/><path class="cls-3" d="M129,71a8.43,8.43,0,0,0-4.33,1.92,10,10,0,0,0-2.66,4,18.6,18.6,0,0,0-1.14,5.2,32.66,32.66,0,0,0,0,5.14c.1,1.19.23,2.39.4,3.65h0l1.57,0a22.76,22.76,0,0,1,.35-3.92,13.35,13.35,0,0,1,.89-2.84,9,9,0,0,1,1.1-1.71,6.18,6.18,0,0,1,1.05-.95,5.26,5.26,0,0,1,2.77-1c.26,0,.5,0,.75,0l.46,0a7.15,7.15,0,0,1,1.22.16,18,18,0,0,1,4.32,1.5,44.26,44.26,0,0,1,8.85,6l.14.13a93,93,0,0,1,9.06,9c-2.44,2-5.19,4.48-8.18,7.35a210.39,210.39,0,0,0-16.32,17.62A145.41,145.41,0,0,0,115.51,142a84.15,84.15,0,0,0-5.28,10.66,41.83,41.83,0,0,0-3,10.85,19.21,19.21,0,0,0,.13,5.54,11.41,11.41,0,0,0,.7,2.26,8.89,8.89,0,0,0,5.32,5.08,13.5,13.5,0,0,0,2.45.62,15.94,15.94,0,0,0,2.42.17h.48a30.54,30.54,0,0,0,5-.65,42.11,42.11,0,0,0,5.08-1.5,60.36,60.36,0,0,0,5.94-2.51c.95-.27,2-.63,3.34-1.13A56,56,0,0,0,143.5,169l.59-.31c-.38-.6-.77-1.2-1.12-1.82-.27-.44-.53-.9-.78-1.35l-.82.49-.49.3c-.58.35-1.17.69-1.77,1-1.26.72-2.54,1.42-3.83,2.1-.71.37-1.43.73-2.15,1.08a22.42,22.42,0,0,1-3,.51c-.5.05-1,.07-1.49.07a12.14,12.14,0,0,1-2.12-.17,8.35,8.35,0,0,1-1.86-.58,7.21,7.21,0,0,1-1.18-.76l-.1-.1-.11-.1a7.31,7.31,0,0,1-.81-.9,10.61,10.61,0,0,1-.79-1.52,11.77,11.77,0,0,1-.51-2.51,19.84,19.84,0,0,1,.3-4.93v-.13a49.41,49.41,0,0,1,4.15-11.83l.08-.2a116.28,116.28,0,0,1,8.19-13.85,159,159,0,0,1,10.18-13.23,162.38,162.38,0,0,1,13-13.48c.87-.8,1.74-1.6,2.63-2.39l.56.81c1,1.41,1.94,2.71,2.79,3.91a155,155,0,0,1,9.82,16.15c1.55,3,3,5.91,4.23,8.72s2.42,5.68,3.51,8.68a94.22,94.22,0,0,1,2.84,9.18,62.85,62.85,0,0,1,1.66,9.38,3,3,0,0,0,0,.31l.12-.14-.1.16a27.71,27.71,0,0,1-.23,6.58,13.48,13.48,0,0,1-.87,2.88,8.89,8.89,0,0,1-.94,1.45,6.79,6.79,0,0,1-.94.85,4.85,4.85,0,0,1-2.56.88l-.47,0a10.37,10.37,0,0,1-1.8-.16,18.68,18.68,0,0,1-4.05-1.38l-.26-.12.17.21-.17-.2-.34-.19-2.1,3.6a50.87,50.87,0,0,0,6.32,4.26,28.29,28.29,0,0,0,4.87,2.25,15,15,0,0,0,5.1,1h.34a10.7,10.7,0,0,0,2.59-.42,8.8,8.8,0,0,0,2.57-1.27,9.42,9.42,0,0,0,1.85-1.8,11.13,11.13,0,0,0,1.42-2.5,18.42,18.42,0,0,0,1.28-5.29,35.2,35.2,0,0,0,.11-5.32,63.46,63.46,0,0,0-1.86-11.67,106.38,106.38,0,0,0-3.56-11.48,155.09,155.09,0,0,0-10.17-22,189.22,189.22,0,0,0-13.08-20.32q-1-1.34-2-2.64c2.23-1.64,3.94-2.89,5.38-3.9l.14-.1c2.71-1.86,5.5-3.61,8.32-5.2a62.94,62.94,0,0,1,8.85-4.14,28.71,28.71,0,0,1,6.84-1.64c.42,0,.85-.05,1.28-.05a13.64,13.64,0,0,1,2.17.17,9.47,9.47,0,0,1,2,.63l.15,0a10.33,10.33,0,0,1,1,.67l.38.33a9.9,9.9,0,0,1,.73.85c.14.2.27.41.4.64s.23.52.34.79a10.4,10.4,0,0,1,.52,2.5c0,.07,0,.14,0,.22l.28,0c.6.06,1.19.1,1.79.14,0-.09,0-.17.07-.25l0-.17a2,2,0,0,0,.1-.35,24,24,0,0,0,.44-2.48c0-.26.06-.52.08-.79l0-.32c0-.55,0-1.11,0-1.66a16.07,16.07,0,0,0-.31-2.81,9.91,9.91,0,0,0-2.22-4.48l-.11-.13a10.15,10.15,0,0,0-1.93-1.53,7.08,7.08,0,0,0-1.22-.61,8.63,8.63,0,0,0-1.31-.44,13.23,13.23,0,0,0-3.59-.44c-.64,0-1.27,0-1.9.08a37.62,37.62,0,0,0-10.87,3,76.34,76.34,0,0,0-10.2,5.15c-3.07,1.8-6.39,4-10.14,6.72-1.16.84-2.3,1.69-3.43,2.57a98.53,98.53,0,0,0-7.6-8,74.7,74.7,0,0,0-9.11-7.44,32.23,32.23,0,0,0-9.6-4.81,13.85,13.85,0,0,0-3.82-.58A12.81,12.81,0,0,0,129,71Z" transform="translate(-99.67 -70.88)"/><path class="cls-4" d="M161.67,90.63a3.17,3.17,0,0,1-.4.49c-.87.65-1,.61-1.52-.53Z" transform="translate(-99.67 -70.88)"/><path class="cls-5" d="M100.91,90.82a2.17,2.17,0,0,0-.36,0Z" transform="translate(-99.67 -70.88)"/><path class="cls-5" d="M179,148.92c-1.73-3.86-3.2-7.83-5.23-11.55a39.56,39.56,0,0,0-3.15-6.1,5.21,5.21,0,0,0-.61-1.17,2.92,2.92,0,0,1-.24-.37c-3.22-6.14-6.07-12.47-9.89-18.28-.9-1.36-.87-1.41-2.1-.38-8.17,6.84-14.58,15.14-20.08,24.2a2,2,0,0,0,.06,2.25c.88,1.48,1.73,3,2.63,4.43.26,3,.74,6,2.56,8.53a21.8,21.8,0,0,0,7.5,6.42c.51.28,1.12.41,1.48.93,2.49,3.45,6.1,5.19,10,6.45a61.84,61.84,0,0,0,11.35,2.43,7,7,0,0,1,2.34.53,1,1,0,0,1,.21.34l1.52-2.65,5.1-8.91a1.41,1.41,0,0,1-.38.11C180.64,153.88,180,151.3,179,148.92Z" transform="translate(-99.67 -70.88)"/><path class="cls-5" d="M172.3,173.65a11.07,11.07,0,0,0-1.07,1.86Z" transform="translate(-99.67 -70.88)"/><path class="cls-5" d="M218.89,91.24a1.09,1.09,0,0,0-.86-.59,1.35,1.35,0,0,0-.41-.07H200.7l-6.07,0q-12.31,0-24.62,0l-14.79,0-7.86,0a56.74,56.74,0,0,1,5,5c.22.23.46.44.69.66.51.6.69,1.12-.14,1.66s-1.42,1.13-2.13,1.71a78.55,78.55,0,0,1-5.42-6.51,13.31,13.31,0,0,1-2-2.46h0l-18.63.07a2.5,2.5,0,0,1,.4,1.66,91.88,91.88,0,0,0,4.62,26.19,5.27,5.27,0,0,1,.42,2.35c-1.64,2.11-3.27,4.22-4.93,6.31a37.28,37.28,0,0,1-2.84,3.66c-.13-.23-.26-.46-.4-.69l6.48,11.16a17.32,17.32,0,0,1,2.39-4.23,159.06,159.06,0,0,1,17.39-22.35c3.08-3.32,6.42-6.33,9.63-9.5,1.47-1.45,2-1.41,3.18.25a145.88,145.88,0,0,1,21.87,42.88,15.21,15.21,0,0,1,1.07,4.8l1-1.69q12.54-21.79,25-43.62l5.69-10,3.24-5.68A1.13,1.13,0,0,0,218.89,91.24Z" transform="translate(-99.67 -70.88)"/><path class="cls-6" d="M182.9,148.49A145.88,145.88,0,0,0,161,105.61c-1.2-1.66-1.71-1.7-3.18-.25-3.21,3.17-6.55,6.18-9.63,9.5a159.06,159.06,0,0,0-17.39,22.35,17.32,17.32,0,0,0-2.39,4.23l.74,1.28,5.46,9.44q3.5,6,7,12.09l3.87,6.68q4,7,8.1,14c1,1.67,2,3.34,2.94,5l2.43,4.15a1,1,0,0,0,.84.46.94.94,0,0,0,.83-.46q1.8-3.17,3.59-6.33l2.23-3.92c1.29-2.27,2.6-4.54,3.9-6.8l.86-1.5a11.07,11.07,0,0,1,1.07-1.86l.25-.44,3.23-5.63a1,1,0,0,0-.21-.34,7,7,0,0,0-2.34-.53,61.84,61.84,0,0,1-11.35-2.43c-3.88-1.26-7.49-3-10-6.45-.36-.52-1-.65-1.48-.93a21.8,21.8,0,0,1-7.5-6.42c-1.82-2.54-2.3-5.51-2.56-8.53-.9-1.46-1.75-2.95-2.63-4.43a2,2,0,0,1-.06-2.25c5.5-9.06,11.91-17.36,20.08-24.2,1.23-1,1.2-1,2.1.38,3.82,5.81,6.67,12.14,9.89,18.28a2.92,2.92,0,0,0,.24.37,5.21,5.21,0,0,1,.61,1.17,39.56,39.56,0,0,1,3.15,6.1c2,3.72,3.5,7.69,5.23,11.55,1.07,2.38,1.67,5,3.05,7.21a1.41,1.41,0,0,0,.38-.11c.53-.91,1-1.82,1.57-2.73A15.21,15.21,0,0,0,182.9,148.49Z" transform="translate(-99.67 -70.88)"/><path class="cls-6" d="M125.2,127.31c1.66-2.09,3.29-4.2,4.93-6.31a5.27,5.27,0,0,0-.42-2.35,91.88,91.88,0,0,1-4.62-26.19,2.5,2.5,0,0,0-.4-1.66l-5,0c-2.3,0-4.61,0-6.92,0H101.07l-.16,0h-.36a1.73,1.73,0,0,0-.73.26.28.28,0,0,0-.15.17.43.43,0,0,0,0,.19c1.49,3.28,3.51,6.42,5.28,9.56,2.52,4.48,5.13,8.92,7.71,13.37l3.72,6.4,1.56,2.68,4,6.84c.14.23.27.46.4.69A37.28,37.28,0,0,0,125.2,127.31Z" transform="translate(-99.67 -70.88)"/><path class="cls-6" d="M145.33,93.19a78.55,78.55,0,0,0,5.42,6.51c.71-.58,1.38-1.21,2.13-1.71s.65-1.06.14-1.66c-.23-.22-.47-.43-.69-.66a56.74,56.74,0,0,0-5-5l-4,0h0A13.31,13.31,0,0,0,145.33,93.19Z" transform="translate(-99.67 -70.88)"/><g class="cls-7"><path class="cls-8" d="M140.22,170.41c-1.7.69-3.42,1.36-5.14,2,.88-.26,1.86-.59,3.06-1A56,56,0,0,0,143.5,169l.59-.31c-.06-.08-.11-.17-.16-.25l.06.17C142.74,169.2,141.52,169.89,140.22,170.41Z" transform="translate(-99.67 -70.88)"/><path class="cls-9" d="M166.37,98.63a.56.56,0,0,0,0,.08c2.21-1.63,3.91-2.87,5.34-3.87l.14-.1c2.12-1.46,4.29-2.84,6.48-4.14a70.31,70.31,0,0,0-7.92,5.05C169.1,96.6,167.78,97.6,166.37,98.63Z" transform="translate(-99.67 -70.88)"/><path class="cls-10" d="M129.31,140.47c-.27.46-.51.95-.77,1.42,0,0,0,.05,0,.08,1.57-2.74,3.33-5.55,5.32-8.48a159,159,0,0,1,10.18-13.23,162.38,162.38,0,0,1,13-13.48l2.36-2.15a2.59,2.59,0,0,0-.84.62A154.09,154.09,0,0,0,129.31,140.47Z" transform="translate(-99.67 -70.88)"/><path class="cls-11" d="M122.17,90.84h.7v-.28l-.1.17A4.17,4.17,0,0,1,122.17,90.84Z" transform="translate(-99.67 -70.88)"/><path class="cls-12" d="M121.28,90.83h.26a2.48,2.48,0,0,1-.27,0Z" transform="translate(-99.67 -70.88)"/><path class="cls-13" d="M172.83,172.44l-.12-.07-.29.5C172.55,172.72,172.69,172.58,172.83,172.44Z" transform="translate(-99.67 -70.88)"/><path class="cls-14" d="M167.47,104.57c-1.38,1.12-1.44,1.29-.3,2.71a100.35,100.35,0,0,1,10.58,16.92c3.57,6.86,5.81,14.2,7.72,21.66.84,3.33,2,6.61,2.33,10,.45,4.16,1,8.35.14,12.51-.93,4.36-3.14,7.79-7.58,9.26a11.78,11.78,0,0,1-8.07-.44,45.17,45.17,0,0,0,4.64,3,28.29,28.29,0,0,0,4.87,2.25,15,15,0,0,0,5.1,1h.34a10.7,10.7,0,0,0,2.59-.42,8.8,8.8,0,0,0,2.57-1.27,9.42,9.42,0,0,0,1.85-1.8,11.13,11.13,0,0,0,1.42-2.5,18.42,18.42,0,0,0,1.28-5.29,35.2,35.2,0,0,0,.11-5.32,63.46,63.46,0,0,0-1.86-11.67,106.38,106.38,0,0,0-3.56-11.48,155.09,155.09,0,0,0-10.17-22,189.22,189.22,0,0,0-13.08-20.32c-.58-.78-1.17-1.56-1.76-2.33.82,1.31,1.9,2.37,2.56,3.7C169,103.71,168.12,104,167.47,104.57Z" transform="translate(-99.67 -70.88)"/><path class="cls-15" d="M170.61,176l.07.06c0-.14.08-.28.13-.41C170.74,175.74,170.67,175.85,170.61,176Z" transform="translate(-99.67 -70.88)"/><path class="cls-16" d="M207.75,84.7a16.07,16.07,0,0,0-.31-2.81,9.91,9.91,0,0,0-2.22-4.48l-.11-.13a10.15,10.15,0,0,0-1.93-1.53,7.08,7.08,0,0,0-1.22-.61,8.63,8.63,0,0,0-1.31-.44,13.23,13.23,0,0,0-3.59-.44c-.64,0-1.27,0-1.9.08a37.62,37.62,0,0,0-10.87,3,76.34,76.34,0,0,0-10.2,5.15c-3.07,1.8-6.39,4-10.14,6.72-1.16.84-2.3,1.69-3.43,2.57a98.53,98.53,0,0,0-7.6-8,74.7,74.7,0,0,0-9.11-7.44,32.23,32.23,0,0,0-9.6-4.81,13.85,13.85,0,0,0-3.82-.58A12.81,12.81,0,0,0,129,71a8.43,8.43,0,0,0-4.33,1.92,10,10,0,0,0-2.66,4,17.74,17.74,0,0,0-1.1,4.85,12.53,12.53,0,0,1,9.38-5.26,5.4,5.4,0,0,1,2.23.27c8.66,2.9,15.54,8,19.51,16.42a9.45,9.45,0,0,1,1,3.21l0,0,.85,1c-2.44,2-5.19,4.48-8.18,7.35a210.39,210.39,0,0,0-16.32,17.62A145.41,145.41,0,0,0,115.51,142a84.15,84.15,0,0,0-5.28,10.66,41.83,41.83,0,0,0-3,10.85,19.21,19.21,0,0,0,.13,5.54,11.41,11.41,0,0,0,.7,2.26,8.89,8.89,0,0,0,5.32,5.08,13.5,13.5,0,0,0,2.45.62,15.94,15.94,0,0,0,2.42.17h.48a30.54,30.54,0,0,0,5-.65,42.11,42.11,0,0,0,5.08-1.5,57.45,57.45,0,0,0,5.62-2.36l-5.65,2.18a18.11,18.11,0,0,1-7.41-2c-3.83-2.18-5.64-6.1-5.13-10.82a57.57,57.57,0,0,1,7.38-22,128.31,128.31,0,0,1,10.66-15.74c3.88-5,8.17-9.69,12.36-14.45,5.08-5.76,11-10.54,16.88-15.41a77.15,77.15,0,0,1,11.48-7.73A22.17,22.17,0,0,1,178.87,85a92,92,0,0,1,13.36-3.58,20.18,20.18,0,0,1,10,.76,9.85,9.85,0,0,1,5.28,4.5,21,21,0,0,1-.56,3.79,4.76,4.76,0,0,1-2.09,0,.13.13,0,0,1,0,.06l.28,0c.6.06,1.19.1,1.79.14,0-.09,0-.17.07-.25l0-.17a2,2,0,0,0,.1-.35,24,24,0,0,0,.44-2.48c0-.26.06-.52.08-.79l0-.32C207.76,85.81,207.76,85.25,207.75,84.7Z" transform="translate(-99.67 -70.88)"/></g><path class="cls-17" d="M207,90.49a21,21,0,0,0,.56-3.79,9.85,9.85,0,0,0-5.28-4.5,20.18,20.18,0,0,0-10-.76A92,92,0,0,0,178.87,85a22.17,22.17,0,0,0-3.82,1.71,77.15,77.15,0,0,0-11.48,7.73c-5.88,4.87-11.8,9.65-16.88,15.41-4.19,4.76-8.48,9.44-12.36,14.45a128.31,128.31,0,0,0-10.66,15.74,57.57,57.57,0,0,0-7.38,22c-.51,4.72,1.3,8.64,5.13,10.82a18.11,18.11,0,0,0,7.41,2l5.65-2.18.32-.15.28-.09c1.72-.66,3.44-1.33,5.14-2,1.3-.52,2.52-1.21,3.77-1.83l-.06-.17c-.33-.52-.66-1-1-1.57s-.53-.9-.78-1.35l-.82.49-.49.3c-.58.35-1.17.69-1.77,1-1.26.72-2.54,1.42-3.83,2.1-.71.37-1.43.73-2.15,1.08a22.42,22.42,0,0,1-3,.51c-.5.05-1,.07-1.49.07a12.14,12.14,0,0,1-2.12-.17,8.35,8.35,0,0,1-1.86-.58,7.21,7.21,0,0,1-1.18-.76l-.1-.1-.11-.1a7.31,7.31,0,0,1-.81-.9,10.61,10.61,0,0,1-.79-1.52,11.77,11.77,0,0,1-.51-2.51,19.84,19.84,0,0,1,.3-4.93v-.13a49.41,49.41,0,0,1,4.15-11.83l.08-.2c.88-1.77,1.83-3.56,2.87-5.37,0,0,0-.06,0-.08.26-.47.5-1,.77-1.42a154.09,154.09,0,0,1,29.3-35.22,2.59,2.59,0,0,1,.84-.62l.27-.24.56.81c1,1.41,1.94,2.71,2.79,3.91a155,155,0,0,1,9.82,16.15c1.55,3,3,5.91,4.23,8.72s2.42,5.68,3.51,8.68a94.22,94.22,0,0,1,2.84,9.18,62.85,62.85,0,0,1,1.66,9.38,3,3,0,0,0,0,.31l.12-.14-.1.16a27.71,27.71,0,0,1-.23,6.58,13.48,13.48,0,0,1-.87,2.88,8.89,8.89,0,0,1-.94,1.45,6.79,6.79,0,0,1-.94.85,4.85,4.85,0,0,1-2.56.88l-.47,0a10.37,10.37,0,0,1-1.8-.16,18.68,18.68,0,0,1-4.05-1.38l-.26-.12.17.21-.17-.2-.22-.12c-.14.14-.28.28-.41.43l-1.61,2.75c-.05.13-.09.27-.13.41.54.42,1.08.82,1.61,1.2a11.78,11.78,0,0,0,8.07.44c4.44-1.47,6.65-4.9,7.58-9.26.89-4.16.31-8.35-.14-12.51-.37-3.43-1.49-6.71-2.33-10-1.91-7.46-4.15-14.8-7.72-21.66a100.35,100.35,0,0,0-10.58-16.92c-1.14-1.42-1.08-1.59.3-2.71.65-.53,1.53-.86,1.72-1.82-.66-1.33-1.74-2.39-2.56-3.7-.09-.1-.16-.21-.25-.31l0,0a.56.56,0,0,1,0-.08c1.41-1,2.73-2,4.09-3a70.31,70.31,0,0,1,7.92-5.05l1.84-1.06a62.94,62.94,0,0,1,8.85-4.14,28.71,28.71,0,0,1,6.84-1.64c.42,0,.85-.05,1.28-.05a13.64,13.64,0,0,1,2.17.17,9.47,9.47,0,0,1,2,.63l.15,0a10.33,10.33,0,0,1,1,.67l.38.33a9.9,9.9,0,0,1,.73.85c.14.2.27.41.4.64s.23.52.34.79a10.4,10.4,0,0,1,.52,2.5s0,.1,0,.16A4.76,4.76,0,0,0,207,90.49Z" transform="translate(-99.67 -70.88)"/><path class="cls-18" d="M152,93.12c-4-8.47-10.85-13.52-19.51-16.42a5.4,5.4,0,0,0-2.23-.27,12.53,12.53,0,0,0-9.38,5.26c0,.12,0,.23,0,.35a32.66,32.66,0,0,0,0,5.14c.1,1.18.23,2.36.39,3.62a2.48,2.48,0,0,0,.27,0h.63a4.17,4.17,0,0,0,.6-.1l.1-.17a22.59,22.59,0,0,1,.35-3.64,13.35,13.35,0,0,1,.89-2.84,9,9,0,0,1,1.1-1.71,6.18,6.18,0,0,1,1.05-.95,5.26,5.26,0,0,1,2.77-1c.26,0,.5,0,.75,0l.46,0a7.15,7.15,0,0,1,1.22.16,18,18,0,0,1,4.32,1.5,44.26,44.26,0,0,1,8.85,6l.14.13a88.75,88.75,0,0,1,8.21,8.1l0,0A9.45,9.45,0,0,0,152,93.12Z" transform="translate(-99.67 -70.88)"/><circle class="cls-19" cx="157.42" cy="141.72" r="17.24" transform="translate(-141.5 142.71) rotate(-61.83)"/><path class="cls-5" d="M157.42,124.49a17.14,17.14,0,0,0-7.86,1.89c-.1,1-.25,1.91-.26,2.87-.09,9.76,4.94,20,15.79,23.95,1.3.47,2.65.82,4,1.22a17.23,17.23,0,0,0-11.66-29.93Z" transform="translate(-99.67 -70.88)"/><path class="cls-20" d="M149.3,129.25c0-1,.16-1.91.26-2.87a17.24,17.24,0,1,0,19.52,28c-1.34-.4-2.69-.75-4-1.22C154.24,149.28,149.21,139,149.3,129.25Z" transform="translate(-99.67 -70.88)"/><path class="cls-21" d="M148.38,147.41a2,2,0,0,1,.49-1.32c1.39-2.18,3.1-4.1,4.63-6.17,1.78-2.41,3.78-4.64,5.72-6.93a6,6,0,0,1,2-1.8,1.42,1.42,0,0,1,2,.42,1.28,1.28,0,0,1-.32,1.84c-1.54,1.49-2.85,3.19-4.24,4.82-2.57,3-4.86,6.25-7.29,9.38a5.41,5.41,0,0,1-.71.86,1.33,1.33,0,0,1-2.28-1.1Z" transform="translate(-99.67 -70.88)"/><path class="cls-21" d="M166.47,139.2a1.4,1.4,0,0,1-.37,1c-1.78,2.06-3.32,4.34-5.28,6.26a4.86,4.86,0,0,1-.83.75,1.44,1.44,0,0,1-1.79-.18,1.29,1.29,0,0,1-.25-1.62,3.36,3.36,0,0,1,.76-1c1.69-1.66,3-3.62,4.54-5.41a3.51,3.51,0,0,1,1.35-1.11A1.32,1.32,0,0,1,166.47,139.2Z" transform="translate(-99.67 -70.88)"/></g></g></svg>